<?xml version="1.0" encoding="utf-8"?>
<!-- Generator: Adobe Illustrator 16.0.0, SVG Export Plug-In . SVG Version: 6.00 Build 0)  -->
<!DOCTYPE svg PUBLIC "-//W3C//DTD SVG 1.1//EN" "http://www.w3.org/Graphics/SVG/1.1/DTD/svg11.dtd">
<svg version="1.1" id="Layer_1" xmlns="http://www.w3.org/2000/svg" xmlns:xlink="http://www.w3.org/1999/xlink" x="0px" y="0px"
	 width="112.949px" height="36.312px" viewBox="0 0 112.949 36.312" enable-background="new 0 0 112.949 36.312"
	 xml:space="preserve">
<g>
	<path fill="#FFFFFF" d="M10.582,0L0,18.057h9.391L4.034,32.806l12.764-19.05H6.216L10.582,0z"/>
	<g enable-background="new    ">
		<path fill="#FFFFFF" d="M23.459,26.424V6.37h12.924v1.615h-11.03v7.242H35.38v1.614H25.354v9.581L23.459,26.424L23.459,26.424z"/>
		<path fill="#FFFFFF" d="M40.115,26.424V6.37h1.894v18.438H52.76v1.614L40.115,26.424L40.115,26.424z"/>
		<path fill="#FFFFFF" d="M54.738,26.424L62.621,6.37h2.145l7.688,20.054h-1.95l-2.312-6.295h-9.135l-2.368,6.295H54.738z
			 M59.695,18.514h7.855L63.623,7.985L59.695,18.514z"/>
		<path fill="#FFFFFF" d="M76.908,20.436c0.074,0.892,0.273,1.647,0.6,2.27c0.324,0.623,0.742,1.129,1.253,1.52
			c0.511,0.39,1.101,0.673,1.769,0.85c0.669,0.177,1.384,0.265,2.146,0.265c0.892,0,1.662-0.11,2.312-0.335
			c0.648-0.223,1.179-0.523,1.588-0.904c0.408-0.38,0.71-0.821,0.904-1.322c0.195-0.502,0.293-1.031,0.293-1.588
			c0-0.78-0.178-1.411-0.528-1.895c-0.354-0.482-0.812-0.878-1.38-1.185c-0.565-0.306-1.217-0.552-1.948-0.737
			c-0.733-0.186-1.485-0.367-2.257-0.544c-0.771-0.176-1.522-0.385-2.256-0.626c-0.734-0.241-1.385-0.565-1.95-0.975
			s-1.025-0.935-1.379-1.574c-0.353-0.641-0.528-1.452-0.528-2.438c0-0.688,0.145-1.354,0.432-2.006
			c0.289-0.648,0.715-1.226,1.281-1.727c0.565-0.502,1.276-0.9,2.131-1.198c0.854-0.297,1.838-0.445,2.952-0.445
			c1.134,0,2.121,0.158,2.968,0.475c0.844,0.314,1.545,0.747,2.102,1.295c0.558,0.548,0.976,1.184,1.254,1.908
			c0.279,0.724,0.418,1.494,0.418,2.312H87.27c0-0.761-0.135-1.421-0.403-1.978c-0.269-0.558-0.636-1.013-1.101-1.365
			c-0.465-0.354-0.994-0.612-1.588-0.779s-1.207-0.251-1.838-0.251c-0.966,0-1.777,0.135-2.438,0.404
			c-0.66,0.269-1.185,0.617-1.573,1.044c-0.39,0.428-0.659,0.901-0.808,1.421c-0.149,0.521-0.178,1.04-0.084,1.561
			c0.11,0.649,0.371,1.17,0.779,1.56s0.909,0.71,1.504,0.961c0.594,0.251,1.25,0.455,1.965,0.613
			c0.715,0.156,1.442,0.325,2.186,0.501c0.742,0.177,1.463,0.386,2.158,0.627c0.697,0.241,1.313,0.565,1.854,0.975
			c0.538,0.408,0.971,0.934,1.295,1.573c0.324,0.641,0.487,1.444,0.487,2.409c0,1.856-0.642,3.297-1.922,4.316
			c-1.281,1.021-3.083,1.532-5.403,1.532c-1.04,0-2.006-0.135-2.896-0.404c-0.892-0.269-1.661-0.678-2.312-1.226
			c-0.649-0.547-1.155-1.226-1.519-2.033c-0.36-0.808-0.543-1.759-0.543-2.854h1.838V20.436z"/>
		<path fill="#FFFFFF" d="M94.094,26.424V6.37h1.895v8.606h11.865V6.37h1.894v20.054h-1.894v-9.832H95.986v9.832H94.094z"/>
	</g>
</g>
</svg>
