<?xml version="1.0" encoding="utf-8"?>
<!-- Generator: Adobe Illustrator 16.0.0, SVG Export Plug-In . SVG Version: 6.00 Build 0)  -->
<!DOCTYPE svg PUBLIC "-//W3C//DTD SVG 1.1//EN" "http://www.w3.org/Graphics/SVG/1.1/DTD/svg11.dtd">
<svg version="1.1" id="Layer_1" xmlns="http://www.w3.org/2000/svg" xmlns:xlink="http://www.w3.org/1999/xlink" x="0px" y="0px"
	 width="172.775px" height="151.018px" viewBox="0 0 172.775 151.018" enable-background="new 0 0 172.775 151.018"
	 xml:space="preserve">
<g>
	<g>
		<path fill="#333333" d="M157.624,14.902c-19.601-19.396-50.931-19.801-71.238-1.554C66.083-4.898,34.758-4.493,15.152,14.902
			c-20.203,19.979-20.203,52.37,0,72.354c5.773,5.71,59.685,59.023,59.685,59.023c6.387,6.315,16.718,6.315,23.104,0
			c0,0,59.03-58.376,59.685-59.023C177.826,67.272,177.826,34.882,157.624,14.902z M149.92,79.64l-59.686,59.022
			c-2.119,2.103-5.579,2.103-7.693,0L22.856,79.64c-15.932-15.75-15.932-41.376,0-57.126c15.356-15.187,40.047-15.72,56.21-1.196
			l7.32,6.579l7.323-6.579c16.163-14.523,40.859-13.991,56.21,1.195C165.851,38.264,165.851,63.891,149.92,79.64z M49.946,26.965
			c-0.01,0-0.01,0.005-0.021,0.005c-12.66,0.012-22.929,10.268-22.929,22.921c0,1.489,1.208,2.696,2.7,2.696
			c1.493,0,2.7-1.207,2.7-2.696v-0.006c0-9.677,7.856-17.524,17.544-17.524h0.005c1.493,0,2.7-1.206,2.7-2.697
			S51.438,26.965,49.946,26.965z"/>
	</g>
</g>
</svg>
