<?xml version="1.0" encoding="utf-8"?>
<!-- Generator: Adobe Illustrator 15.0.0, SVG Export Plug-In . SVG Version: 6.00 Build 0)  -->
<!DOCTYPE svg PUBLIC "-//W3C//DTD SVG 1.1//EN" "http://www.w3.org/Graphics/SVG/1.1/DTD/svg11.dtd">
<svg version="1.1" id="Layer_1" xmlns="http://www.w3.org/2000/svg" xmlns:xlink="http://www.w3.org/1999/xlink" x="0px" y="0px"
	 width="401.047px" height="84.344px" viewBox="0 0 401.047 84.344" enable-background="new 0 0 401.047 84.344"
	 xml:space="preserve">
<g>
	<path fill="#FFFFFF" d="M41.125,54.834L82.251,0v84.344h-16.9V50.596L41.125,82.982L16.9,50.596v33.748H0V0L41.125,54.834z"/>
	<path fill="#FFFFFF" d="M161.885,12.4c8.267,8.267,12.4,18.191,12.4,29.771c0,11.616-4.133,21.548-12.4,29.798
		c-8.267,8.25-18.191,12.374-29.771,12.374c-11.616,0-21.548-4.125-29.798-12.374c-8.25-8.248-12.375-18.181-12.375-29.797
		c0-11.581,4.125-21.504,12.374-29.771S120.498,0,132.113,0C143.694,0,153.618,4.133,161.885,12.4z M114.245,24.304
		c-4.936,4.971-7.404,10.927-7.404,17.868c0,6.977,2.468,12.934,7.404,17.868s10.892,7.403,17.868,7.403
		c6.941,0,12.897-2.467,17.868-7.403s7.456-10.892,7.456-17.868c0-6.941-2.485-12.897-7.456-17.868
		c-4.971-4.971-10.927-7.456-17.868-7.456C125.137,16.848,119.181,19.333,114.245,24.304z"/>
	<path fill="#FFFFFF" d="M217.188,0h21.086v16.848h-21.086v67.496h-16.9V16.848h-21.085V0h21.085H217.188z"/>
	<path fill="#FFFFFF" d="M246.646,0h16.899v84.344h-16.899V0z"/>
	<path fill="#FFFFFF" d="M309.118,84.344l-1.777-3.977L271.237,0h3.35h11.092h0.681h2.722l19.986,44.422L329.054,0h2.877h0.681
		h10.936h3.559L309.118,84.344z"/>
	<path fill="#FFFFFF" d="M401.047,0v16.848h-33.694v16.9h25.271v16.848h-25.271v16.848h33.694v16.9h-33.694h-16.899V50.596V33.748V0
		H401.047z"/>
</g>
</svg>
