<?xml version="1.0" encoding="utf-8"?>
<!-- Generator: Adobe Illustrator 19.1.0, SVG Export Plug-In . SVG Version: 6.00 Build 0)  -->
<svg version="1.1" id="Layer_1" xmlns="http://www.w3.org/2000/svg" xmlns:xlink="http://www.w3.org/1999/xlink" x="0px" y="0px"
	 viewBox="0 0 300 200" style="enable-background:new 0 0 300 200;" xml:space="preserve">
<style type="text/css">
	.st0{fill:#303030;}
	.st1{fill:#231F20;}
</style>
<g>
	<g>
		<g>
			<path class="st0" d="M91,127.3l4,2.9l-0.6,0.8l-3-2.2l-1.8,2.5l2.8,2.1l-0.6,0.8l-2.8-2.1l-2.5,3.4l-1-0.7L91,127.3z"/>
			<path class="st0" d="M99.1,132.9l-4.9,7.8l-1-0.6l4.9-7.8L99.1,132.9z"/>
			<path class="st0" d="M98.2,143.1l4.2-8.2l1.2,0.6l0.5,5.5c0.1,1.3,0.1,2.4,0.1,3.4h0c0.5-1.1,1-2.1,1.6-3.4l1.8-3.4l1,0.5
				l-4.2,8.2l-1.1-0.6l-0.4-5.5c-0.1-1.2-0.2-2.4-0.1-3.5l0,0c-0.5,1.1-1,2.1-1.7,3.4l-1.8,3.5L98.2,143.1z"/>
			<path class="st0" d="M114.8,146l-3.3-1.3l-1.2,3.1l3.7,1.5l-0.4,0.9l-4.8-1.9l3.4-8.5l4.6,1.8l-0.4,0.9l-3.5-1.4l-1.1,2.7
				l3.3,1.3L114.8,146z"/>
			<path class="st0" d="M117.8,150.1c0.4,0.5,1.1,1,1.9,1.2c1.2,0.4,2-0.1,2.3-0.9c0.2-0.8-0.1-1.4-1.1-2.3c-1.3-0.9-1.9-2-1.6-3.2
				c0.4-1.4,1.9-2,3.6-1.5c0.9,0.3,1.5,0.7,1.8,1l-0.6,0.8c-0.2-0.2-0.7-0.7-1.5-0.9c-1.2-0.4-1.9,0.2-2.1,0.8
				c-0.2,0.8,0.2,1.4,1.2,2.2c1.3,1,1.9,2,1.5,3.3c-0.4,1.4-1.8,2.2-3.9,1.6c-0.8-0.3-1.7-0.8-2.1-1.2L117.8,150.1z"/>
			<path class="st0" d="M130,146.4l-2.7-0.6l0.2-1l6.7,1.4l-0.2,1l-2.8-0.6l-1.7,8l-1.2-0.2L130,146.4z"/>
			<path class="st0" d="M141.8,147.4c0.6-0.1,1.3-0.1,2.3,0c1.2,0.1,2,0.4,2.5,0.9c0.5,0.5,0.7,1.2,0.7,2c-0.1,0.8-0.3,1.5-0.8,1.9
				c-0.7,0.6-1.7,0.9-2.9,0.8c-0.4,0-0.7-0.1-0.9-0.1l-0.3,3.7l-1.2-0.1L141.8,147.4z M142.7,151.9c0.3,0.1,0.6,0.1,1,0.2
				c1.4,0.1,2.3-0.5,2.4-1.8c0.1-1.2-0.7-1.9-2-1.9c-0.5,0-0.9,0-1.1,0L142.7,151.9z"/>
			<path class="st0" d="M150.9,147.9c0.6-0.1,1.5-0.2,2.3-0.2c1.3,0,2.1,0.2,2.7,0.7c0.5,0.4,0.7,1,0.8,1.7c0,1.2-0.7,2-1.7,2.4l0,0
				c0.7,0.2,1.2,0.9,1.4,1.8c0.3,1.3,0.6,2.2,0.8,2.5l-1.2,0c-0.2-0.3-0.4-1-0.7-2.2c-0.3-1.3-0.8-1.7-1.9-1.7l-1.1,0l0.1,4l-1.2,0
				L150.9,147.9z M152.2,152l1.2,0c1.3,0,2.1-0.7,2-1.8c0-1.2-0.9-1.7-2.2-1.7c-0.6,0-1,0.1-1.2,0.1L152.2,152z"/>
			<path class="st0" d="M168.5,150.9c0.4,3.1-1.3,5-3.6,5.3c-2.4,0.3-4.3-1.4-4.7-4.1c-0.4-2.9,1.2-5,3.6-5.3
				C166.3,146.5,168.1,148.2,168.5,150.9z M161.4,151.9c0.2,2,1.5,3.6,3.4,3.3c1.9-0.2,2.7-2.1,2.5-4.2c-0.2-1.8-1.4-3.6-3.4-3.4
				C161.9,148,161.1,149.9,161.4,151.9z"/>
			<path class="st0" d="M171.2,145.9c0.7-0.3,1.5-0.6,2.4-0.8c1.7-0.4,2.9-0.3,3.9,0.2c1,0.5,1.7,1.5,2,2.9c0.3,1.5,0.2,2.8-0.5,3.8
				c-0.6,1-1.9,1.8-3.6,2.2c-0.8,0.2-1.5,0.3-2.1,0.4L171.2,145.9z M174.2,153.5c0.3,0,0.7-0.1,1.2-0.2c2.5-0.6,3.5-2.3,2.9-4.7
				c-0.5-2.1-2-3.2-4.4-2.6c-0.6,0.1-1,0.3-1.3,0.4L174.2,153.5z"/>
			<path class="st0" d="M182.8,142.6l1.8,5.1c0.7,1.9,1.8,2.5,3,2c1.3-0.5,1.8-1.6,1.1-3.5l-1.8-5.1l1.1-0.4l1.8,5
				c1,2.7-0.1,4.3-1.9,4.9c-1.8,0.6-3.5,0.1-4.4-2.6l-1.8-5.1L182.8,142.6z"/>
			<path class="st0" d="M201.3,144.5c-0.3,0.4-1,1-2,1.4c-2.3,1.1-4.8,0.5-6.1-2.2c-1.2-2.6-0.3-5.2,2.2-6.4c1-0.5,1.8-0.6,2.1-0.6
				l0.2,1c-0.5,0-1.2,0.1-1.8,0.5c-1.9,0.9-2.6,2.8-1.6,5c1,2,2.8,2.8,4.8,1.8c0.7-0.3,1.3-0.8,1.6-1.2L201.3,144.5z"/>
			<path class="st0" d="M202.7,134.6l-2.4,1.4l-0.5-0.9l5.8-3.5l0.5,0.9l-2.4,1.5l4.2,7l-1,0.6L202.7,134.6z"/>
			<path class="st0" d="M212.4,136.4c0.6,0,1.4-0.3,2.1-0.8c1-0.7,1.2-1.7,0.6-2.4c-0.5-0.7-1.2-0.8-2.5-0.5
				c-1.5,0.5-2.7,0.4-3.5-0.7c-0.8-1.2-0.5-2.7,0.9-3.8c0.8-0.6,1.4-0.8,1.9-0.8l0.3,1c-0.3,0-1,0.2-1.7,0.7c-1,0.7-1,1.6-0.6,2.1
				c0.5,0.7,1.2,0.7,2.5,0.4c1.6-0.4,2.7-0.3,3.5,0.8c0.8,1.1,0.7,2.8-1,4c-0.7,0.5-1.7,0.9-2.2,0.9L212.4,136.4z"/>
		</g>
		<g>
			<path class="st0" d="M62.3,86.2v18.7c0,0.5,0.2,0.9,0.7,1.1c0.4,0.2,1.2,0.4,2.2,0.5c0.3,0,0.4,0.2,0.4,0.6c0,0.2,0,0.4-0.1,0.6
				c-0.7,0-1.5-0.1-2.4-0.1c-0.8,0-1.7-0.1-2.5-0.1c-0.8,0-1.7,0-2.5,0.1c-0.9,0-1.7,0.1-2.4,0.1c0-0.2-0.1-0.4-0.1-0.6
				c0-0.3,0.1-0.5,0.4-0.6c1.1-0.1,1.8-0.3,2.3-0.5c0.5-0.2,0.7-0.6,0.7-1.1V86.2h-3.6c-0.7,0-1.3,0.1-1.8,0.2
				c-0.5,0.1-0.9,0.4-1.2,0.6s-0.7,0.6-0.9,1.1c-0.3,0.4-0.5,1-0.8,1.5c0,0.1-0.1,0.2-0.2,0.2c-0.1,0-0.2,0.1-0.3,0.1
				c-0.3,0-0.5-0.1-0.7-0.2c0.2-0.8,0.4-1.6,0.5-2.2c0.1-0.7,0.2-1.2,0.3-1.6c0.1-0.4,0.2-0.8,0.3-1c0.1-0.2,0.3-0.4,0.5-0.4
				c0.2,0,0.4,0,0.7,0c0.3,0,0.6,0,1,0.1s0.7,0,1,0.1c0.4,0,0.7,0,1,0h11.7c0.3,0,0.6,0,0.9,0c0.4,0,0.7,0,1.1-0.1s0.7,0,1-0.1
				c0.3,0,0.5,0,0.7,0c0.2,0,0.4,0.1,0.5,0.4s0.2,0.6,0.3,1c0.1,0.4,0.2,1,0.3,1.6c0.1,0.7,0.3,1.4,0.5,2.2c-0.1,0-0.2,0.1-0.3,0.1
				c-0.1,0-0.2,0.1-0.4,0.1c-0.1,0-0.2,0-0.3-0.1c-0.1,0-0.2-0.1-0.2-0.2c-0.3-0.6-0.5-1.1-0.8-1.5c-0.3-0.4-0.6-0.8-0.9-1.1
				s-0.7-0.5-1.2-0.6c-0.5-0.1-1.1-0.2-1.8-0.2H62.3z"/>
			<path class="st0" d="M93.9,105.1c0,0.5,0.2,0.8,0.5,1c0.3,0.2,0.9,0.4,1.8,0.5c0.2,0,0.4,0.2,0.4,0.5c0,0.2,0,0.4-0.1,0.6
				c-0.6,0-1.3-0.1-2.1-0.1c-0.8,0-1.5-0.1-2.1-0.1c-0.6,0-1.3,0-2.1,0.1c-0.7,0-1.5,0.1-2.2,0.1c0-0.2-0.1-0.4-0.1-0.6
				c0-0.3,0.1-0.4,0.4-0.5c0.9-0.2,1.5-0.3,1.8-0.5s0.5-0.5,0.5-1v-8.5h-11v8.5c0,0.5,0.2,0.8,0.5,1c0.3,0.2,0.9,0.4,1.8,0.5
				c0.3,0,0.4,0.2,0.4,0.5c0,0.2,0,0.4-0.1,0.6c-0.6,0-1.3-0.1-2.1-0.1c-0.8,0-1.5-0.1-2.1-0.1c-0.7,0-1.3,0-2.1,0.1
				s-1.4,0.1-2.2,0.1c0-0.2-0.1-0.4-0.1-0.6c0-0.3,0.1-0.4,0.4-0.5c0.9-0.2,1.5-0.3,1.8-0.5s0.5-0.5,0.5-1V87.2c0-0.2,0-0.4-0.1-0.6
				c-0.1-0.2-0.2-0.3-0.3-0.4c-0.2-0.1-0.4-0.2-0.7-0.3c-0.3-0.1-0.7-0.2-1.1-0.3c-0.2,0-0.4-0.2-0.4-0.6c0-0.2,0-0.4,0.1-0.6
				c0.6,0,1.3,0.1,2,0.1s1.5,0.1,2.1,0.1c0.7,0,1.3,0,2.1-0.1s1.4-0.1,2.1-0.1c0,0.2,0.1,0.4,0.1,0.6c0,0.3-0.1,0.5-0.4,0.6
				c-0.9,0.1-1.5,0.3-1.8,0.5c-0.3,0.2-0.4,0.5-0.4,1v7.9h11v-7.9c0-0.4-0.1-0.7-0.4-1s-0.9-0.4-1.8-0.6c-0.3,0-0.4-0.2-0.4-0.6
				c0-0.2,0-0.4,0.1-0.6c0.6,0,1.3,0.1,2,0.1c0.8,0,1.5,0.1,2.1,0.1c0.6,0,1.3,0,2-0.1c0.7,0,1.4-0.1,2.2-0.1c0,0.2,0.1,0.4,0.1,0.6
				c0,0.3-0.1,0.5-0.4,0.6c-0.9,0.1-1.5,0.3-1.8,0.5c-0.3,0.2-0.4,0.5-0.4,1V105.1z"/>
			<path class="st0" d="M106,86.2v9h5.5c0.5,0,0.8-0.2,1-0.7c0.2-0.5,0.4-1,0.5-1.7c0.1-0.3,0.3-0.5,0.6-0.5c0.1,0,0.2,0,0.3,0
				c0.1,0,0.2,0,0.3,0.1c0,0.5-0.1,1.1-0.1,1.8c0,0.7-0.1,1.2-0.1,1.7c0,0.4,0,0.9,0,1.5c0,0.6,0.1,1.2,0.1,1.9
				c-0.2,0-0.4,0.1-0.5,0.1c-0.4,0-0.6-0.2-0.7-0.5c-0.1-0.7-0.3-1.2-0.5-1.7c-0.2-0.5-0.5-0.7-1-0.7H106v8.3c0,0.5,0.3,0.8,0.9,1
				c0.6,0.2,1.7,0.2,3.1,0.2h1.9c0.7,0,1.3-0.1,1.8-0.3c0.5-0.2,0.9-0.5,1.3-0.8c0.4-0.3,0.7-0.7,1-1.2c0.3-0.5,0.6-1,0.9-1.5
				c0.1-0.2,0.2-0.2,0.5-0.2c0.1,0,0.2,0,0.4,0.1c0.1,0.1,0.3,0.1,0.4,0.2c-0.2,0.4-0.4,1-0.5,1.6c-0.2,0.6-0.3,1.2-0.4,1.8
				c-0.1,0.6-0.3,1-0.4,1.4c-0.2,0.4-0.3,0.6-0.6,0.6c-0.2,0-0.5,0-0.8,0c-0.4,0-0.7,0-1.1-0.1c-0.4,0-0.8,0-1.2-0.1
				c-0.4,0-0.8,0-1.1,0h-7.7c-0.7,0-1.4,0-2.2,0.1s-1.5,0.1-2.2,0.1c0-0.2-0.1-0.4-0.1-0.6c0-0.3,0.1-0.5,0.4-0.6
				c0.9-0.2,1.5-0.3,1.9-0.5s0.6-0.5,0.6-1V87.2c0-0.5-0.2-0.8-0.5-1c-0.3-0.2-1-0.4-2-0.5c-0.2,0-0.4-0.2-0.4-0.6
				c0-0.1,0-0.2,0-0.3c0-0.1,0-0.2,0.1-0.3c1,0.1,1.8,0.1,2.5,0.1c0.7,0,1.3,0,1.8,0h6.9c1.1,0,2,0,2.7-0.1c0.8-0.1,1.3-0.1,1.5-0.1
				c0.3,0,0.5,0.2,0.6,0.6s0.2,0.8,0.3,1.4c0.1,0.5,0.2,1.1,0.2,1.7c0.1,0.6,0.3,1.1,0.5,1.5c-0.2,0.1-0.4,0.2-0.6,0.2
				c-0.3,0-0.5-0.1-0.6-0.3c-0.3-0.6-0.5-1.1-0.8-1.6c-0.3-0.4-0.6-0.8-0.9-1.1c-0.3-0.3-0.7-0.5-1.2-0.6c-0.5-0.1-1.1-0.2-1.8-0.2
				H106z"/>
			<path class="st0" d="M143.4,90.2c-0.2,0-0.4,0.1-0.5,0.1c-0.3,0-0.5-0.1-0.7-0.2c-0.1-0.1-0.2-0.2-0.3-0.4
				c-0.6-1.3-1.3-2.3-2.2-2.9c-0.8-0.6-2-0.9-3.4-0.9c-0.6,0-1.1,0.1-1.6,0.2c-0.5,0.2-0.9,0.4-1.3,0.7c-0.4,0.3-0.7,0.6-0.9,1.1
				c-0.2,0.4-0.3,0.9-0.3,1.4c0,1.1,0.5,2,1.4,2.7c0.9,0.7,2.3,1.4,4.1,2.1c2.2,0.9,3.9,1.9,5,3c1.1,1.1,1.6,2.4,1.6,4
				c0,1-0.1,1.9-0.4,2.7c-0.3,0.8-0.7,1.6-1.4,2.2c-0.6,0.6-1.4,1.1-2.4,1.5c-1,0.4-2.2,0.5-3.5,0.5c-1.5,0-2.8-0.2-3.9-0.5
				c-1.2-0.3-2.2-0.7-3-1.2c-0.1-1-0.2-1.9-0.3-2.8c-0.1-0.9-0.3-1.8-0.5-2.7c0.2-0.1,0.4-0.1,0.6-0.1c0.3,0,0.5,0.1,0.6,0.2
				c0.2,0.1,0.3,0.3,0.4,0.6c0.6,1.7,1.3,2.9,2.3,3.7c0.9,0.8,2.2,1.2,3.9,1.2c0.7,0,1.4-0.1,2-0.3c0.6-0.2,1-0.5,1.4-0.9
				c0.4-0.4,0.7-0.8,0.8-1.3c0.2-0.5,0.3-1,0.3-1.5c0-1.2-0.4-2.2-1.2-2.9c-0.8-0.7-2-1.3-3.6-1.9c-1-0.4-1.9-0.8-2.7-1.2
				c-0.8-0.4-1.5-0.9-2.1-1.4c-0.6-0.5-1-1.2-1.3-1.9c-0.3-0.7-0.5-1.6-0.5-2.5c0-0.9,0.2-1.7,0.5-2.4c0.3-0.8,0.8-1.4,1.4-2
				s1.3-1,2.2-1.3c0.8-0.3,1.8-0.5,2.8-0.5c1.1,0,2.2,0.1,3.2,0.3c1,0.2,2.1,0.6,3.4,1.1c0,0.7,0.1,1.5,0.2,2.3
				C143.1,88.8,143.2,89.5,143.4,90.2z"/>
			<path class="st0" d="M153.9,97.6v7.2c0,0.5,0.3,0.9,0.8,1.1c0.5,0.2,1.3,0.4,2.3,0.5c0.3,0,0.4,0.2,0.4,0.6c0,0.2,0,0.4-0.1,0.6
				c-0.7,0-1.4-0.1-2.3-0.1c-0.9,0-1.8-0.1-2.8-0.1c-0.6,0-1.3,0-2.1,0.1c-0.8,0-1.5,0.1-2.2,0.1c0-0.2-0.1-0.4-0.1-0.6
				c0-0.3,0.1-0.5,0.4-0.6c0.9-0.2,1.6-0.4,1.9-0.5c0.3-0.2,0.5-0.5,0.5-1V87.2c0-0.5-0.2-0.8-0.5-1c-0.4-0.2-1-0.4-1.9-0.5
				c-0.2,0-0.4-0.3-0.4-0.6c0-0.2,0-0.3,0.1-0.5c0.7,0,1.3,0.1,2.1,0.1s1.4,0.1,2.1,0.1h4.9c2.5,0,4.4,0.6,5.7,1.8s1.9,2.7,1.9,4.6
				c0,0.7-0.2,1.5-0.5,2.3c-0.3,0.8-0.8,1.5-1.5,2.1c-0.6,0.6-1.4,1.1-2.4,1.5s-2,0.6-3.2,0.6H153.9z M155.7,96.2
				c1.6,0,2.9-0.4,3.8-1.1c0.9-0.7,1.3-2,1.3-3.7c0-0.7-0.1-1.4-0.2-2c-0.2-0.6-0.4-1.2-0.8-1.7c-0.4-0.5-0.9-0.9-1.6-1.1
				c-0.7-0.3-1.5-0.4-2.5-0.4h-1.9v10H155.7z"/>
			<path class="st0" d="M177.2,99.2h-7.8l-2.2,5.6c-0.1,0.3-0.2,0.5-0.2,0.7c0,0.5,0.7,0.8,2.1,1.1c0.2,0,0.3,0.1,0.3,0.2
				s0.1,0.2,0.1,0.4c0,0.1,0,0.3-0.1,0.6c-0.6,0-1.3-0.1-2-0.1s-1.4-0.1-2.1-0.1c-0.5,0-0.9,0-1.4,0c-0.5,0-1,0.1-1.5,0.1
				c0-0.2-0.1-0.4-0.1-0.6c0-0.2,0-0.3,0.1-0.4s0.2-0.2,0.4-0.2c0.7-0.1,1.3-0.3,1.6-0.4c0.4-0.2,0.6-0.5,0.8-0.8l8.4-20.3
				c0.2-0.4,0.4-0.6,0.7-0.6c0.1,0,0.2,0,0.4,0.1l8.5,21c0.1,0.3,0.5,0.6,0.9,0.8c0.5,0.2,1,0.3,1.4,0.4c0.1,0,0.3,0.1,0.3,0.2
				s0.1,0.2,0.1,0.4c0,0.1,0,0.3-0.1,0.6c-0.7,0-1.5-0.1-2.2-0.1s-1.4-0.1-2-0.1c-0.7,0-1.4,0-2.2,0.1c-0.8,0-1.6,0.1-2.3,0.1
				c0-0.2-0.1-0.4-0.1-0.6c0-0.2,0-0.4,0.1-0.4c0.1-0.1,0.2-0.1,0.2-0.1c0.6-0.1,1.1-0.2,1.5-0.4s0.6-0.4,0.6-0.7
				c0-0.1,0-0.3-0.1-0.5L177.2,99.2z M176.7,97.7l-3.3-8.6l-3.4,8.6H176.7z"/>
			<path class="st0" d="M211.2,96.1c0,1.4-0.2,2.7-0.7,4.1c-0.5,1.4-1.2,2.6-2.2,3.7c-1,1.1-2.2,2-3.7,2.6c-1.5,0.7-3.2,1-5.2,1
				h-7.2c-0.6,0-1.3,0-2.1,0.1s-1.5,0.1-2.2,0.1c0-0.2-0.1-0.4-0.1-0.6c0-0.3,0.1-0.5,0.4-0.6c0.9-0.2,1.5-0.4,1.9-0.6
				s0.6-0.5,0.6-0.9V87.2c0-0.5-0.2-0.8-0.5-1c-0.4-0.2-1-0.4-1.9-0.5c-0.1,0-0.2-0.1-0.3-0.2c-0.1-0.1-0.1-0.2-0.1-0.4
				s0-0.3,0.1-0.6c0.5,0,0.9,0.1,1.3,0.1c0.4,0,0.7,0,1,0.1c0.3,0,0.6,0,1,0s0.6,0,1,0h7.2c2,0,3.7,0.3,5.2,0.9
				c1.5,0.6,2.7,1.4,3.7,2.5c1,1,1.7,2.2,2.2,3.6C211,93.1,211.2,94.5,211.2,96.1z M207.6,96.8c0-3.6-0.9-6.3-2.7-8
				c-1.8-1.7-4.4-2.6-7.8-2.6h-3v18.7c0,0.2,0.1,0.4,0.2,0.6c0.1,0.2,0.3,0.3,0.6,0.4c0.3,0.1,0.7,0.2,1.2,0.2
				c0.5,0,1.1,0.1,1.9,0.1c1.8,0,3.3-0.2,4.6-0.6c1.2-0.4,2.2-1.1,3-1.9c0.8-0.8,1.3-1.8,1.7-2.9C207.4,99.5,207.6,98.2,207.6,96.8z
				"/>
			<path class="st0" d="M220.6,86.2v9h5.5c0.5,0,0.8-0.2,1-0.7c0.2-0.5,0.4-1,0.5-1.7c0.1-0.3,0.3-0.5,0.6-0.5c0.1,0,0.2,0,0.3,0
				c0.1,0,0.2,0,0.3,0.1c0,0.5-0.1,1.1-0.1,1.8c0,0.7-0.1,1.2-0.1,1.7c0,0.4,0,0.9,0,1.5c0,0.6,0.1,1.2,0.1,1.9
				c-0.2,0-0.4,0.1-0.5,0.1c-0.4,0-0.6-0.2-0.7-0.5c-0.1-0.7-0.3-1.2-0.5-1.7c-0.2-0.5-0.5-0.7-1-0.7h-5.5v8.3c0,0.5,0.3,0.8,0.9,1
				c0.6,0.2,1.7,0.2,3.1,0.2h1.9c0.7,0,1.3-0.1,1.8-0.3c0.5-0.2,0.9-0.5,1.3-0.8c0.4-0.3,0.7-0.7,1-1.2c0.3-0.5,0.6-1,0.9-1.5
				c0.1-0.2,0.2-0.2,0.5-0.2c0.1,0,0.2,0,0.4,0.1c0.1,0.1,0.3,0.1,0.4,0.2c-0.2,0.4-0.4,1-0.5,1.6c-0.2,0.6-0.3,1.2-0.4,1.8
				c-0.1,0.6-0.3,1-0.4,1.4c-0.2,0.4-0.3,0.6-0.6,0.6c-0.2,0-0.5,0-0.8,0c-0.4,0-0.7,0-1.1-0.1c-0.4,0-0.8,0-1.2-0.1
				c-0.4,0-0.8,0-1.1,0h-7.7c-0.7,0-1.4,0-2.2,0.1s-1.5,0.1-2.2,0.1c0-0.2-0.1-0.4-0.1-0.6c0-0.3,0.1-0.5,0.4-0.6
				c0.9-0.2,1.5-0.3,1.9-0.5s0.6-0.5,0.6-1V87.2c0-0.5-0.2-0.8-0.5-1c-0.3-0.2-1-0.4-2-0.5c-0.2,0-0.4-0.2-0.4-0.6
				c0-0.1,0-0.2,0-0.3c0-0.1,0-0.2,0.1-0.3c1,0.1,1.8,0.1,2.5,0.1c0.7,0,1.3,0,1.8,0h6.9c1.1,0,2,0,2.7-0.1c0.8-0.1,1.3-0.1,1.5-0.1
				c0.3,0,0.5,0.2,0.6,0.6s0.2,0.8,0.3,1.4c0.1,0.5,0.2,1.1,0.2,1.7c0.1,0.6,0.3,1.1,0.5,1.5c-0.2,0.1-0.4,0.2-0.6,0.2
				c-0.3,0-0.5-0.1-0.6-0.3c-0.3-0.6-0.5-1.1-0.8-1.6c-0.3-0.4-0.6-0.8-0.9-1.1c-0.3-0.3-0.7-0.5-1.2-0.6c-0.5-0.1-1.1-0.2-1.8-0.2
				H220.6z"/>
			<path class="st0" d="M250.6,90.2c-0.2,0-0.4,0.1-0.5,0.1c-0.3,0-0.5-0.1-0.7-0.2c-0.1-0.1-0.2-0.2-0.3-0.4
				c-0.6-1.3-1.3-2.3-2.2-2.9c-0.8-0.6-2-0.9-3.4-0.9c-0.6,0-1.1,0.1-1.6,0.2c-0.5,0.2-0.9,0.4-1.3,0.7c-0.4,0.3-0.7,0.6-0.9,1.1
				c-0.2,0.4-0.3,0.9-0.3,1.4c0,1.1,0.5,2,1.4,2.7c0.9,0.7,2.3,1.4,4.1,2.1c2.2,0.9,3.9,1.9,5,3c1.1,1.1,1.6,2.4,1.6,4
				c0,1-0.1,1.9-0.4,2.7c-0.3,0.8-0.7,1.6-1.4,2.2c-0.6,0.6-1.4,1.1-2.4,1.5c-1,0.4-2.2,0.5-3.5,0.5c-1.5,0-2.8-0.2-3.9-0.5
				c-1.2-0.3-2.2-0.7-3-1.2c-0.1-1-0.2-1.9-0.3-2.8c-0.1-0.9-0.3-1.8-0.5-2.7c0.2-0.1,0.4-0.1,0.6-0.1c0.3,0,0.5,0.1,0.6,0.2
				c0.2,0.1,0.3,0.3,0.4,0.6c0.6,1.7,1.3,2.9,2.3,3.7c0.9,0.8,2.2,1.2,3.9,1.2c0.7,0,1.4-0.1,2-0.3c0.6-0.2,1-0.5,1.4-0.9
				c0.4-0.4,0.7-0.8,0.8-1.3c0.2-0.5,0.3-1,0.3-1.5c0-1.2-0.4-2.2-1.2-2.9c-0.8-0.7-2-1.3-3.6-1.9c-1-0.4-1.9-0.8-2.7-1.2
				c-0.8-0.4-1.5-0.9-2.1-1.4c-0.6-0.5-1-1.2-1.3-1.9c-0.3-0.7-0.5-1.6-0.5-2.5c0-0.9,0.2-1.7,0.5-2.4c0.3-0.8,0.8-1.4,1.4-2
				s1.3-1,2.2-1.3c0.8-0.3,1.8-0.5,2.8-0.5c1.1,0,2.2,0.1,3.2,0.3c1,0.2,2.1,0.6,3.4,1.1c0,0.7,0.1,1.5,0.2,2.3
				C250.4,88.8,250.5,89.5,250.6,90.2z"/>
		</g>
		<g>
			<g>
				<polygon class="st0" points="171.1,114.8 242.6,116.2 171.1,117.7 				"/>
				<polygon class="st0" points="131.6,117.7 60.1,116.2 131.6,114.8 				"/>
			</g>
			<g>
				<polygon class="st0" points="151.4,112.8 152.7,115.5 155.6,115.9 153.5,118 154,120.9 151.4,119.6 148.7,120.9 149.2,118 
					147.1,115.9 150,115.5 				"/>
			</g>
		</g>
	</g>
	<g>
		<g>
			<path class="st0" d="M84.3,75.2c-0.5,0-0.9-0.1-1.3-0.2c-0.4-0.2-0.7-0.4-0.9-0.6c-0.2-0.3-0.4-0.6-0.5-0.9
				c-0.1-0.4-0.2-0.7-0.2-1.2c0-0.3,0.1-0.7,0.2-1c0.1-0.4,0.3-0.7,0.5-1c0.2-0.3,0.5-0.5,0.9-0.7c0.4-0.2,0.8-0.3,1.3-0.3
				c0.2,0,0.4,0,0.5,0s0.3,0,0.5,0s0.3,0,0.4,0.1s0.3,0.1,0.4,0.1c0,0.2,0,0.4,0.1,0.6c0,0.2,0.1,0.5,0.1,0.7c0,0-0.1,0-0.1,0
				s-0.1,0-0.1,0s-0.1,0-0.1-0.1c-0.1-0.4-0.3-0.7-0.5-0.8c-0.2-0.2-0.6-0.2-1-0.2c-0.4,0-0.7,0.1-1,0.2c-0.3,0.1-0.5,0.3-0.7,0.5
				c-0.2,0.2-0.3,0.5-0.4,0.8s-0.1,0.6-0.1,1c0,0.4,0.1,0.8,0.2,1.1c0.1,0.3,0.3,0.6,0.5,0.9c0.2,0.2,0.5,0.4,0.7,0.6
				c0.3,0.1,0.6,0.2,0.9,0.2c0.3,0,0.5,0,0.6-0.1c0.2,0,0.3-0.1,0.4-0.2s0.2-0.2,0.3-0.3c0.1-0.1,0.2-0.3,0.2-0.5
				c0-0.1,0.1-0.1,0.2-0.1c0,0,0.1,0,0.1,0s0.1,0,0.1,0c-0.1,0.2-0.1,0.4-0.2,0.7c-0.1,0.2-0.1,0.5-0.2,0.7c-0.3,0-0.6,0.1-0.9,0.1
				C85,75.2,84.7,75.2,84.3,75.2z"/>
			<path class="st0" d="M90.6,73h-2l-0.6,1.4c0,0.1,0,0.1,0,0.2c0,0.1,0.2,0.2,0.5,0.3c0,0,0.1,0,0.1,0c0,0,0,0.1,0,0.1s0,0.1,0,0.1
				c-0.2,0-0.3,0-0.5,0s-0.3,0-0.5,0c-0.1,0-0.2,0-0.4,0s-0.3,0-0.4,0c0,0,0-0.1,0-0.1c0,0,0-0.1,0-0.1s0,0,0.1-0.1
				c0.2,0,0.3-0.1,0.4-0.1c0.1,0,0.2-0.1,0.2-0.2l2.1-5.1c0-0.1,0.1-0.1,0.2-0.1c0,0,0.1,0,0.1,0l2.1,5.2c0,0.1,0.1,0.1,0.2,0.2
				s0.2,0.1,0.4,0.1c0,0,0.1,0,0.1,0s0,0.1,0,0.1c0,0,0,0.1,0,0.1c-0.2,0-0.4,0-0.6,0s-0.4,0-0.5,0c-0.2,0-0.4,0-0.6,0s-0.4,0-0.6,0
				c0-0.1,0-0.1,0-0.1c0-0.1,0-0.1,0-0.1s0,0,0.1,0c0.2,0,0.3-0.1,0.4-0.1s0.1-0.1,0.1-0.2c0,0,0-0.1,0-0.1L90.6,73z M90.5,72.7
				l-0.8-2.1l-0.9,2.1H90.5z"/>
			<path class="st0" d="M95.5,72.6h-0.6v1.9c0,0.1,0.1,0.2,0.2,0.3s0.3,0.1,0.5,0.1c0.1,0,0.1,0.1,0.1,0.1c0,0,0,0.1,0,0.1
				c-0.2,0-0.3,0-0.6,0c-0.2,0-0.4,0-0.7,0c-0.2,0-0.3,0-0.5,0c-0.2,0-0.4,0-0.6,0c0-0.1,0-0.1,0-0.1c0-0.1,0-0.1,0.1-0.1
				c0.2,0,0.4-0.1,0.5-0.1c0.1,0,0.1-0.1,0.1-0.2V70c0-0.1,0-0.2-0.1-0.2s-0.2-0.1-0.5-0.1c-0.1,0-0.1-0.1-0.1-0.1c0,0,0-0.1,0-0.1
				c0.2,0,0.4,0,0.5,0c0.2,0,0.4,0,0.5,0h1.2c0.6,0,1.1,0.1,1.4,0.4c0.3,0.3,0.5,0.7,0.5,1.1c0,0.1,0,0.3-0.1,0.4
				c0,0.1-0.1,0.3-0.2,0.4c-0.1,0.1-0.2,0.3-0.4,0.4c-0.1,0.1-0.3,0.2-0.5,0.3l1.5,2c0.1,0.2,0.2,0.3,0.4,0.3
				c0.1,0.1,0.3,0.1,0.4,0.1c0.1,0,0.1,0.1,0.1,0.1c0,0,0,0.1,0,0.2c-0.1,0-0.3,0-0.5,0c-0.2,0-0.4,0-0.5,0c-0.1,0-0.2-0.1-0.4-0.2
				c-0.1-0.1-0.2-0.2-0.4-0.4L95.5,72.6z M95.3,72.2c0.4,0,0.7-0.1,0.9-0.3c0.2-0.2,0.3-0.5,0.3-0.9c0-0.2,0-0.3-0.1-0.5
				c0-0.2-0.1-0.3-0.2-0.4c-0.1-0.1-0.2-0.2-0.4-0.3c-0.2-0.1-0.4-0.1-0.6-0.1h-0.4v2.4H95.3z"/>
			<path class="st0" d="M100.5,69.8V72h1.4c0.1,0,0.2-0.1,0.2-0.2c0-0.1,0.1-0.3,0.1-0.4c0-0.1,0.1-0.1,0.2-0.1c0,0,0,0,0.1,0
				c0,0,0.1,0,0.1,0c0,0.1,0,0.3,0,0.4c0,0.2,0,0.3,0,0.4c0,0.1,0,0.2,0,0.4c0,0.1,0,0.3,0,0.5c0,0-0.1,0-0.1,0
				c-0.1,0-0.1,0-0.2-0.1c0-0.2-0.1-0.3-0.1-0.4c0-0.1-0.1-0.2-0.2-0.2h-1.4v2.1c0,0.1,0.1,0.2,0.2,0.2c0.2,0,0.4,0.1,0.8,0.1h0.5
				c0.2,0,0.3,0,0.4-0.1c0.1,0,0.2-0.1,0.3-0.2c0.1-0.1,0.2-0.2,0.3-0.3c0.1-0.1,0.1-0.2,0.2-0.4c0,0,0.1-0.1,0.1-0.1
				c0,0,0.1,0,0.1,0c0,0,0.1,0,0.1,0.1c-0.1,0.1-0.1,0.2-0.1,0.4c0,0.2-0.1,0.3-0.1,0.4c0,0.1-0.1,0.3-0.1,0.4
				c0,0.1-0.1,0.1-0.1,0.1c0,0-0.1,0-0.2,0s-0.2,0-0.3,0s-0.2,0-0.3,0s-0.2,0-0.3,0h-1.9c-0.2,0-0.4,0-0.5,0c-0.2,0-0.4,0-0.6,0
				c0-0.1,0-0.1,0-0.1c0-0.1,0-0.1,0.1-0.1c0.2,0,0.4-0.1,0.5-0.1s0.1-0.1,0.1-0.2V70c0-0.1,0-0.2-0.1-0.2c-0.1,0-0.2-0.1-0.5-0.1
				c-0.1,0-0.1-0.1-0.1-0.1c0,0,0-0.1,0-0.1s0,0,0-0.1c0.3,0,0.5,0,0.6,0s0.3,0,0.5,0h1.7c0.3,0,0.5,0,0.7,0c0.2,0,0.3,0,0.4,0
				c0.1,0,0.1,0,0.2,0.1c0,0.1,0,0.2,0.1,0.3c0,0.1,0,0.3,0.1,0.4c0,0.2,0.1,0.3,0.1,0.4c0,0-0.1,0.1-0.2,0.1c-0.1,0-0.1,0-0.1-0.1
				c-0.1-0.2-0.1-0.3-0.2-0.4s-0.1-0.2-0.2-0.3s-0.2-0.1-0.3-0.2c-0.1,0-0.3-0.1-0.4-0.1H100.5z"/>
			<path class="st0" d="M105,70c0-0.1,0-0.2-0.1-0.2s-0.3-0.1-0.5-0.1c0,0-0.1,0-0.1,0s0-0.1,0-0.1c0,0,0-0.1,0-0.1
				c0.2,0,0.4,0,0.6,0c0.2,0,0.4,0,0.5,0h1.7c0.2,0,0.4,0,0.6,0c0.2,0,0.3,0,0.4,0c0.1,0,0.1,0,0.1,0.1c0,0.1,0.1,0.2,0.1,0.3
				c0,0.1,0,0.3,0.1,0.4c0,0.1,0.1,0.3,0.1,0.4c0,0,0,0-0.1,0c0,0-0.1,0-0.1,0c-0.1,0-0.1,0-0.1-0.1c-0.1-0.2-0.1-0.3-0.2-0.4
				c-0.1-0.1-0.1-0.2-0.2-0.3s-0.2-0.1-0.3-0.2c-0.1,0-0.3,0-0.4,0h-1.3v2.3h1.3c0.1,0,0.2-0.1,0.2-0.2c0-0.1,0.1-0.2,0.1-0.4
				c0-0.1,0.1-0.1,0.2-0.1c0,0,0.1,0,0.1,0c0,0.1,0,0.3,0,0.4c0,0.2,0,0.3,0,0.4c0,0.1,0,0.2,0,0.4c0,0.1,0,0.3,0,0.5
				c0,0-0.1,0-0.1,0c0,0-0.1,0-0.1,0c0,0,0,0-0.1-0.1c0-0.2-0.1-0.3-0.1-0.4c-0.1-0.1-0.1-0.2-0.3-0.2h-1.3v2c0,0.1,0.1,0.2,0.2,0.2
				s0.3,0.1,0.5,0.1c0.1,0,0.1,0.1,0.1,0.1c0,0,0,0.1,0,0.1c-0.1,0-0.3,0-0.4,0c-0.1,0-0.3,0-0.4,0s-0.3,0-0.5,0c-0.2,0-0.3,0-0.5,0
				c-0.2,0-0.4,0-0.6,0c0-0.1,0-0.1,0-0.1c0-0.1,0-0.1,0.1-0.1c0.2,0,0.3-0.1,0.5-0.1c0.1,0,0.2-0.1,0.2-0.2V70z"/>
			<path class="st0" d="M114.6,73c0,0.3,0,0.6-0.1,0.9s-0.2,0.5-0.4,0.7s-0.4,0.4-0.7,0.5c-0.3,0.1-0.7,0.2-1.1,0.2
				c-0.5,0-0.9-0.1-1.2-0.2c-0.3-0.1-0.5-0.3-0.7-0.5s-0.3-0.4-0.3-0.7c-0.1-0.3-0.1-0.5-0.1-0.8v-3c0-0.1,0-0.2-0.1-0.3
				c-0.1-0.1-0.2-0.1-0.5-0.1c-0.1,0-0.1-0.1-0.1-0.1c0,0,0-0.1,0-0.1c0.2,0,0.4,0,0.5,0s0.4,0,0.5,0c0.2,0,0.3,0,0.5,0
				c0.2,0,0.4,0,0.6,0c0,0.1,0,0.1,0,0.1c0,0.1,0,0.1-0.1,0.1c-0.2,0-0.4,0.1-0.5,0.1c-0.1,0.1-0.1,0.1-0.1,0.3v2.8
				c0,0.6,0.1,1.1,0.4,1.4c0.2,0.3,0.7,0.5,1.2,0.5c0.3,0,0.6,0,0.8-0.1s0.4-0.2,0.6-0.3c0.1-0.2,0.3-0.3,0.3-0.6s0.1-0.5,0.1-0.9
				V70c0-0.1,0-0.2-0.1-0.3c-0.1-0.1-0.2-0.1-0.5-0.1c-0.1,0-0.1-0.1-0.1-0.1c0,0,0-0.1,0-0.1c0.2,0,0.3,0,0.5,0s0.3,0,0.4,0
				c0.1,0,0.3,0,0.4,0c0.1,0,0.3,0,0.4,0c0,0.1,0,0.1,0,0.1c0,0,0,0.1,0,0.1s0,0.1-0.1,0.1c-0.2,0-0.4,0.1-0.5,0.1s-0.1,0.1-0.1,0.3
				V73z"/>
			<path class="st0" d="M117.5,74.5c0,0.1,0,0.2,0.1,0.2c0.1,0,0.2,0.1,0.4,0.1h1c0.2,0,0.3,0,0.4-0.1c0.1,0,0.2-0.1,0.3-0.2
				s0.2-0.2,0.2-0.3c0.1-0.1,0.1-0.3,0.2-0.4c0,0,0.1-0.1,0.1-0.1c0,0,0.1,0,0.1,0s0.1,0,0.1,0c0,0.2-0.1,0.4-0.1,0.6
				c0,0.2-0.1,0.4-0.1,0.7c0,0.1,0,0.1-0.1,0.1s-0.1,0-0.1,0c-0.1,0-0.2,0-0.4,0s-0.3,0-0.4,0h-2.2c-0.1,0-0.3,0-0.5,0
				c-0.2,0-0.4,0-0.6,0c0-0.1,0-0.1,0-0.1c0-0.1,0-0.1,0.1-0.1c0.2,0,0.4-0.1,0.5-0.1c0.1,0,0.1-0.1,0.1-0.2V70c0-0.1,0-0.2-0.1-0.2
				c-0.1,0-0.2-0.1-0.5-0.1c0,0-0.1,0-0.1,0s0-0.1,0-0.1c0,0,0-0.1,0-0.1c0.2,0,0.4,0,0.6,0c0.2,0,0.4,0,0.5,0c0.2,0,0.4,0,0.6,0
				c0.2,0,0.4,0,0.6,0c0,0.1,0,0.1,0,0.1c0,0.1,0,0.2-0.1,0.2c-0.3,0-0.4,0.1-0.6,0.1s-0.2,0.2-0.2,0.3V74.5z"/>
			<path class="st0" d="M122.4,74.5c0,0.1,0,0.2,0.1,0.2c0.1,0,0.2,0.1,0.4,0.1h1c0.2,0,0.3,0,0.4-0.1c0.1,0,0.2-0.1,0.3-0.2
				s0.2-0.2,0.2-0.3c0.1-0.1,0.1-0.3,0.2-0.4c0,0,0.1-0.1,0.1-0.1c0,0,0.1,0,0.1,0s0.1,0,0.1,0c0,0.2-0.1,0.4-0.1,0.6
				c0,0.2-0.1,0.4-0.1,0.7c0,0.1,0,0.1-0.1,0.1s-0.1,0-0.1,0c-0.1,0-0.2,0-0.4,0s-0.3,0-0.4,0h-2.2c-0.1,0-0.3,0-0.5,0
				c-0.2,0-0.4,0-0.6,0c0-0.1,0-0.1,0-0.1c0-0.1,0-0.1,0.1-0.1c0.2,0,0.4-0.1,0.5-0.1c0.1,0,0.1-0.1,0.1-0.2V70c0-0.1,0-0.2-0.1-0.2
				c-0.1,0-0.2-0.1-0.5-0.1c0,0-0.1,0-0.1,0s0-0.1,0-0.1c0,0,0-0.1,0-0.1c0.2,0,0.4,0,0.6,0c0.2,0,0.4,0,0.5,0c0.2,0,0.4,0,0.6,0
				c0.2,0,0.4,0,0.6,0c0,0.1,0,0.1,0,0.1c0,0.1,0,0.2-0.1,0.2c-0.3,0-0.4,0.1-0.6,0.1s-0.2,0.2-0.2,0.3V74.5z"/>
			<path class="st0" d="M126.9,72.6l-1.5-2.6c-0.1-0.1-0.1-0.2-0.2-0.2c-0.1,0-0.2-0.1-0.4-0.1c0,0-0.1,0-0.1-0.1s0-0.1,0-0.1
				c0,0,0,0,0,0s0,0,0,0c0,0,0,0,0-0.1c0.1,0,0.3,0,0.5,0s0.4,0,0.6,0c0.1,0,0.2,0,0.2,0c0.1,0,0.2,0,0.3,0s0.2,0,0.3,0s0.2,0,0.2,0
				c0,0,0,0,0,0.1c0,0,0,0,0,0s0,0,0,0c0,0,0,0.1,0,0.1s0,0-0.1,0.1c-0.2,0-0.3,0.1-0.4,0.1c-0.1,0-0.1,0.1-0.1,0.1
				c0,0,0,0.1,0.1,0.2l1.1,2l1-1.8c0.1-0.1,0.1-0.2,0.1-0.2c0-0.1,0-0.1-0.1-0.2s-0.2-0.1-0.4-0.1c-0.1,0-0.1-0.1-0.1-0.1
				c0,0,0-0.1,0-0.1c0,0,0,0,0-0.1c0.1,0,0.3,0,0.5,0s0.3,0,0.5,0c0.1,0,0.3,0,0.4,0s0.3,0,0.4,0c0,0,0,0,0,0.1c0,0,0,0,0,0s0,0,0,0
				c0,0.1,0,0.1-0.1,0.1c-0.2,0-0.3,0.1-0.4,0.1c-0.1,0-0.2,0.1-0.2,0.2l-1.4,2.5v2c0,0.1,0,0.2,0.1,0.3c0.1,0,0.3,0.1,0.5,0.1
				c0.1,0,0.1,0.1,0.1,0.1c0,0,0,0,0,0s0,0,0,0c0,0,0,0,0,0.1c-0.1,0-0.3,0-0.4,0c-0.1,0-0.2,0-0.4,0c-0.1,0-0.2,0-0.3,0
				s-0.2,0-0.3,0s-0.3,0-0.4,0c-0.1,0-0.3,0-0.4,0c0,0,0,0,0-0.1c0,0,0,0,0,0s0,0,0,0c0-0.1,0-0.1,0.1-0.1c0.2,0,0.4-0.1,0.5-0.1
				c0.1,0,0.1-0.1,0.1-0.3V72.6z"/>
			<path class="st0" d="M135.1,75.2c-0.5,0-0.9-0.1-1.3-0.2c-0.4-0.2-0.7-0.4-0.9-0.6c-0.2-0.3-0.4-0.6-0.5-0.9
				c-0.1-0.4-0.2-0.7-0.2-1.2c0-0.3,0.1-0.7,0.2-1c0.1-0.4,0.3-0.7,0.5-1c0.2-0.3,0.5-0.5,0.9-0.7c0.4-0.2,0.8-0.3,1.3-0.3
				c0.2,0,0.4,0,0.5,0s0.3,0,0.5,0s0.3,0,0.4,0.1s0.3,0.1,0.4,0.1c0,0.2,0,0.4,0.1,0.6c0,0.2,0.1,0.5,0.1,0.7c0,0-0.1,0-0.1,0
				s-0.1,0-0.1,0s-0.1,0-0.1-0.1c-0.1-0.4-0.3-0.7-0.5-0.8c-0.2-0.2-0.6-0.2-1-0.2c-0.4,0-0.7,0.1-1,0.2c-0.3,0.1-0.5,0.3-0.7,0.5
				c-0.2,0.2-0.3,0.5-0.4,0.8s-0.1,0.6-0.1,1c0,0.4,0.1,0.8,0.2,1.1c0.1,0.3,0.3,0.6,0.5,0.9c0.2,0.2,0.5,0.4,0.7,0.6
				c0.3,0.1,0.6,0.2,0.9,0.2c0.3,0,0.5,0,0.6-0.1c0.2,0,0.3-0.1,0.4-0.2s0.2-0.2,0.3-0.3c0.1-0.1,0.2-0.3,0.2-0.5
				c0-0.1,0.1-0.1,0.2-0.1c0,0,0.1,0,0.1,0s0.1,0,0.1,0c-0.1,0.2-0.1,0.4-0.2,0.7c-0.1,0.2-0.1,0.5-0.2,0.7c-0.3,0-0.6,0.1-0.9,0.1
				C135.8,75.2,135.5,75.2,135.1,75.2z"/>
			<path class="st0" d="M143.2,74.5c0,0.1,0,0.2,0.1,0.2s0.2,0.1,0.5,0.1c0.1,0,0.1,0.1,0.1,0.1c0,0,0,0.1,0,0.2c-0.1,0-0.3,0-0.5,0
				s-0.4,0-0.5,0c-0.2,0-0.3,0-0.5,0s-0.4,0-0.5,0c0-0.1,0-0.1,0-0.2c0-0.1,0-0.1,0.1-0.1c0.2,0,0.4-0.1,0.4-0.1
				c0.1,0,0.1-0.1,0.1-0.2v-2.1h-2.8v2.1c0,0.1,0,0.2,0.1,0.2c0.1,0,0.2,0.1,0.5,0.1c0.1,0,0.1,0.1,0.1,0.1c0,0,0,0.1,0,0.2
				c-0.2,0-0.3,0-0.5,0c-0.2,0-0.4,0-0.5,0c-0.2,0-0.3,0-0.5,0c-0.2,0-0.4,0-0.5,0c0-0.1,0-0.1,0-0.2c0-0.1,0-0.1,0.1-0.1
				c0.2,0,0.4-0.1,0.5-0.1s0.1-0.1,0.1-0.2V70c0-0.1,0-0.1,0-0.1s0-0.1-0.1-0.1s-0.1-0.1-0.2-0.1s-0.2,0-0.3-0.1
				c-0.1,0-0.1-0.1-0.1-0.1c0,0,0-0.1,0-0.1c0.1,0,0.3,0,0.5,0c0.2,0,0.4,0,0.5,0c0.2,0,0.3,0,0.5,0c0.2,0,0.4,0,0.5,0
				c0,0.1,0,0.1,0,0.1c0,0.1,0,0.1-0.1,0.1c-0.2,0-0.4,0.1-0.5,0.1c-0.1,0.1-0.1,0.1-0.1,0.3v2h2.8v-2c0-0.1,0-0.2-0.1-0.2
				c-0.1-0.1-0.2-0.1-0.4-0.1c-0.1,0-0.1-0.1-0.1-0.1c0,0,0-0.1,0-0.1c0.1,0,0.3,0,0.5,0s0.4,0,0.5,0c0.2,0,0.3,0,0.5,0s0.4,0,0.5,0
				c0,0.1,0,0.1,0,0.1c0,0.1,0,0.1-0.1,0.1c-0.2,0-0.4,0.1-0.5,0.1c-0.1,0.1-0.1,0.1-0.1,0.3V74.5z"/>
			<path class="st0" d="M144.6,72.3c0-0.4,0.1-0.8,0.2-1.1c0.1-0.4,0.3-0.7,0.6-0.9c0.3-0.3,0.5-0.5,0.9-0.6
				c0.3-0.2,0.7-0.2,1.1-0.2c0.5,0,1,0.1,1.3,0.2c0.4,0.2,0.7,0.4,0.9,0.6c0.2,0.3,0.4,0.6,0.6,0.9s0.2,0.7,0.2,1.1
				c0,0.5-0.1,0.9-0.2,1.2c-0.2,0.4-0.4,0.7-0.6,0.9c-0.3,0.3-0.6,0.4-0.9,0.6c-0.4,0.1-0.7,0.2-1.2,0.2c-0.4,0-0.8-0.1-1.1-0.2
				c-0.3-0.1-0.6-0.3-0.9-0.6c-0.2-0.3-0.4-0.6-0.6-0.9C144.7,73.1,144.6,72.7,144.6,72.3z M147.6,74.8c0.3,0,0.5-0.1,0.8-0.2
				c0.2-0.1,0.4-0.3,0.6-0.4c0.2-0.2,0.3-0.4,0.4-0.7c0.1-0.3,0.1-0.5,0.1-0.8c0-0.4,0-0.8-0.1-1.2c-0.1-0.4-0.2-0.7-0.4-0.9
				c-0.2-0.3-0.4-0.5-0.7-0.6c-0.3-0.2-0.6-0.2-1-0.2c-0.2,0-0.5,0-0.7,0.1c-0.2,0.1-0.4,0.2-0.6,0.4c-0.2,0.2-0.3,0.4-0.4,0.6
				c-0.1,0.3-0.1,0.5-0.1,0.9c0,0.4,0,0.8,0.1,1.2c0.1,0.4,0.2,0.7,0.4,1c0.2,0.3,0.4,0.5,0.7,0.6C147,74.7,147.3,74.8,147.6,74.8z"
				/>
			<path class="st0" d="M151.2,72.3c0-0.4,0.1-0.8,0.2-1.1c0.1-0.4,0.3-0.7,0.6-0.9c0.3-0.3,0.5-0.5,0.9-0.6
				c0.3-0.2,0.7-0.2,1.1-0.2c0.5,0,1,0.1,1.3,0.2c0.4,0.2,0.7,0.4,0.9,0.6c0.2,0.3,0.4,0.6,0.6,0.9s0.2,0.7,0.2,1.1
				c0,0.5-0.1,0.9-0.2,1.2c-0.2,0.4-0.4,0.7-0.6,0.9c-0.3,0.3-0.6,0.4-0.9,0.6c-0.4,0.1-0.7,0.2-1.2,0.2c-0.4,0-0.8-0.1-1.1-0.2
				c-0.3-0.1-0.6-0.3-0.9-0.6c-0.2-0.3-0.4-0.6-0.6-0.9C151.3,73.1,151.2,72.7,151.2,72.3z M154.2,74.8c0.3,0,0.5-0.1,0.8-0.2
				c0.2-0.1,0.4-0.3,0.6-0.4c0.2-0.2,0.3-0.4,0.4-0.7c0.1-0.3,0.1-0.5,0.1-0.8c0-0.4,0-0.8-0.1-1.2c-0.1-0.4-0.2-0.7-0.4-0.9
				c-0.2-0.3-0.4-0.5-0.7-0.6c-0.3-0.2-0.6-0.2-1-0.2c-0.2,0-0.5,0-0.7,0.1c-0.2,0.1-0.4,0.2-0.6,0.4c-0.2,0.2-0.3,0.4-0.4,0.6
				c-0.1,0.3-0.1,0.5-0.1,0.9c0,0.4,0,0.8,0.1,1.2c0.1,0.4,0.2,0.7,0.4,1c0.2,0.3,0.4,0.5,0.7,0.6C153.6,74.7,153.9,74.8,154.2,74.8
				z"/>
			<path class="st0" d="M161.4,70.8c-0.1,0-0.1,0-0.1,0c-0.1,0-0.1,0-0.2,0c0,0-0.1-0.1-0.1-0.1c-0.2-0.3-0.3-0.6-0.5-0.7
				c-0.2-0.2-0.5-0.2-0.9-0.2c-0.1,0-0.3,0-0.4,0.1s-0.2,0.1-0.3,0.2s-0.2,0.2-0.2,0.3c-0.1,0.1-0.1,0.2-0.1,0.4
				c0,0.3,0.1,0.5,0.3,0.7c0.2,0.2,0.6,0.4,1,0.5c0.6,0.2,1,0.5,1.2,0.7c0.3,0.3,0.4,0.6,0.4,1c0,0.2,0,0.5-0.1,0.7
				c-0.1,0.2-0.2,0.4-0.3,0.5c-0.2,0.2-0.4,0.3-0.6,0.4c-0.2,0.1-0.5,0.1-0.9,0.1c-0.4,0-0.7,0-1-0.1c-0.3-0.1-0.5-0.2-0.8-0.3
				c0-0.2,0-0.5-0.1-0.7c0-0.2-0.1-0.5-0.1-0.7c0,0,0.1,0,0.1,0c0.1,0,0.1,0,0.2,0s0.1,0.1,0.1,0.2c0.1,0.4,0.3,0.7,0.6,0.9
				s0.6,0.3,1,0.3c0.2,0,0.4,0,0.5-0.1s0.3-0.1,0.4-0.2c0.1-0.1,0.2-0.2,0.2-0.3s0.1-0.2,0.1-0.4c0-0.3-0.1-0.5-0.3-0.7
				c-0.2-0.2-0.5-0.3-0.9-0.5c-0.3-0.1-0.5-0.2-0.7-0.3c-0.2-0.1-0.4-0.2-0.5-0.4c-0.1-0.1-0.3-0.3-0.3-0.5s-0.1-0.4-0.1-0.6
				c0-0.2,0-0.4,0.1-0.6s0.2-0.4,0.3-0.5c0.1-0.1,0.3-0.3,0.5-0.3c0.2-0.1,0.4-0.1,0.7-0.1c0.3,0,0.5,0,0.8,0.1
				c0.3,0.1,0.5,0.1,0.9,0.3c0,0.2,0,0.4,0,0.6S161.4,70.6,161.4,70.8z"/>
			<path class="st0" d="M164.1,69.8V72h1.4c0.1,0,0.2-0.1,0.2-0.2c0-0.1,0.1-0.3,0.1-0.4c0-0.1,0.1-0.1,0.2-0.1c0,0,0,0,0.1,0
				c0,0,0.1,0,0.1,0c0,0.1,0,0.3,0,0.4c0,0.2,0,0.3,0,0.4c0,0.1,0,0.2,0,0.4c0,0.1,0,0.3,0,0.5c0,0-0.1,0-0.1,0
				c-0.1,0-0.1,0-0.2-0.1c0-0.2-0.1-0.3-0.1-0.4c0-0.1-0.1-0.2-0.2-0.2h-1.4v2.1c0,0.1,0.1,0.2,0.2,0.2c0.2,0,0.4,0.1,0.8,0.1h0.5
				c0.2,0,0.3,0,0.4-0.1c0.1,0,0.2-0.1,0.3-0.2c0.1-0.1,0.2-0.2,0.3-0.3c0.1-0.1,0.1-0.2,0.2-0.4c0,0,0.1-0.1,0.1-0.1
				c0,0,0.1,0,0.1,0c0,0,0.1,0,0.1,0.1c-0.1,0.1-0.1,0.2-0.1,0.4c0,0.2-0.1,0.3-0.1,0.4c0,0.1-0.1,0.3-0.1,0.4
				c0,0.1-0.1,0.1-0.1,0.1c0,0-0.1,0-0.2,0s-0.2,0-0.3,0s-0.2,0-0.3,0s-0.2,0-0.3,0h-1.9c-0.2,0-0.4,0-0.5,0c-0.2,0-0.4,0-0.6,0
				c0-0.1,0-0.1,0-0.1c0-0.1,0-0.1,0.1-0.1c0.2,0,0.4-0.1,0.5-0.1s0.1-0.1,0.1-0.2V70c0-0.1,0-0.2-0.1-0.2c-0.1,0-0.2-0.1-0.5-0.1
				c-0.1,0-0.1-0.1-0.1-0.1c0,0,0-0.1,0-0.1s0,0,0-0.1c0.3,0,0.5,0,0.6,0s0.3,0,0.5,0h1.7c0.3,0,0.5,0,0.7,0c0.2,0,0.3,0,0.4,0
				c0.1,0,0.1,0,0.2,0.1c0,0.1,0,0.2,0.1,0.3c0,0.1,0,0.3,0.1,0.4c0,0.2,0.1,0.3,0.1,0.4c0,0-0.1,0.1-0.2,0.1c-0.1,0-0.1,0-0.1-0.1
				c-0.1-0.2-0.1-0.3-0.2-0.4s-0.1-0.2-0.2-0.3s-0.2-0.1-0.3-0.2c-0.1,0-0.3-0.1-0.4-0.1H164.1z"/>
			<path class="st0" d="M172.4,73.7v-3.7c0-0.1,0-0.2-0.1-0.3c-0.1-0.1-0.3-0.1-0.5-0.1c-0.1,0-0.1-0.1-0.1-0.1c0,0,0-0.1,0-0.1
				c0.1,0,0.3,0,0.4,0s0.3,0,0.4,0c0.1,0,0.3,0,0.4,0s0.3,0,0.4,0c0,0.1,0,0.1,0,0.1c0,0.1,0,0.1-0.1,0.1c-0.2,0-0.3,0.1-0.4,0.1
				c-0.1,0.1-0.1,0.1-0.1,0.3v5.2c0,0,0,0-0.1,0c0,0-0.1,0-0.1,0c0,0-0.1,0-0.1,0s-0.1-0.1-0.1-0.1l-3.6-4.7v4.1
				c0,0.1,0,0.2,0.1,0.2s0.2,0.1,0.5,0.1c0.1,0,0.1,0.1,0.1,0.1c0,0,0,0.1,0,0.1c-0.1,0-0.3,0-0.4,0s-0.3,0-0.4,0
				c-0.1,0-0.3,0-0.4,0c-0.2,0-0.3,0-0.4,0c0-0.1,0-0.1,0-0.1c0-0.1,0-0.1,0.1-0.1c0.2,0,0.4-0.1,0.4-0.1s0.1-0.1,0.1-0.2V70
				c0-0.1,0-0.2-0.1-0.2s-0.2-0.1-0.4-0.1c-0.1,0-0.1-0.1-0.1-0.1c0,0,0-0.1,0-0.1c0,0,0,0,0-0.1c0.1,0,0.2,0,0.3,0
				c0.1,0,0.2,0,0.3,0s0.2,0,0.3,0c0.2,0,0.3,0,0.3,0s0.1,0,0.1,0.1L172.4,73.7z"/>
			<path class="st0" d="M177.6,72.6v1.8c0,0.1,0.1,0.2,0.2,0.3c0.1,0.1,0.3,0.1,0.6,0.1c0.1,0,0.1,0.1,0.1,0.1c0,0,0,0.1,0,0.1
				c-0.2,0-0.4,0-0.6,0c-0.2,0-0.5,0-0.7,0c-0.2,0-0.3,0-0.5,0c-0.2,0-0.4,0-0.5,0c0-0.1,0-0.1,0-0.1c0-0.1,0-0.1,0.1-0.1
				c0.2,0,0.4-0.1,0.5-0.1s0.1-0.1,0.1-0.2V70c0-0.1,0-0.2-0.1-0.3c-0.1-0.1-0.3-0.1-0.5-0.1c-0.1,0-0.1-0.1-0.1-0.2
				c0,0,0-0.1,0-0.1c0.2,0,0.3,0,0.5,0s0.4,0,0.5,0h1.2c0.6,0,1.1,0.1,1.4,0.4c0.3,0.3,0.5,0.7,0.5,1.2c0,0.2,0,0.4-0.1,0.6
				c-0.1,0.2-0.2,0.4-0.4,0.5c-0.2,0.2-0.4,0.3-0.6,0.4c-0.2,0.1-0.5,0.1-0.8,0.1H177.6z M178,72.3c0.4,0,0.7-0.1,0.9-0.3
				c0.2-0.2,0.3-0.5,0.3-0.9c0-0.2,0-0.4-0.1-0.5c0-0.2-0.1-0.3-0.2-0.4c-0.1-0.1-0.2-0.2-0.4-0.3s-0.4-0.1-0.6-0.1h-0.5v2.5H178z"
				/>
			<path class="st0" d="M183.1,72.6h-0.6v1.9c0,0.1,0.1,0.2,0.2,0.3s0.3,0.1,0.5,0.1c0.1,0,0.1,0.1,0.1,0.1c0,0,0,0.1,0,0.1
				c-0.2,0-0.3,0-0.6,0c-0.2,0-0.4,0-0.7,0c-0.2,0-0.3,0-0.5,0c-0.2,0-0.4,0-0.6,0c0-0.1,0-0.1,0-0.1c0-0.1,0-0.1,0.1-0.1
				c0.2,0,0.4-0.1,0.5-0.1c0.1,0,0.1-0.1,0.1-0.2V70c0-0.1,0-0.2-0.1-0.2s-0.2-0.1-0.5-0.1c-0.1,0-0.1-0.1-0.1-0.1c0,0,0-0.1,0-0.1
				c0.2,0,0.4,0,0.5,0c0.2,0,0.4,0,0.5,0h1.2c0.6,0,1.1,0.1,1.4,0.4c0.3,0.3,0.5,0.7,0.5,1.1c0,0.1,0,0.3-0.1,0.4
				c0,0.1-0.1,0.3-0.2,0.4c-0.1,0.1-0.2,0.3-0.4,0.4c-0.1,0.1-0.3,0.2-0.5,0.3l1.5,2c0.1,0.2,0.2,0.3,0.4,0.3
				c0.1,0.1,0.3,0.1,0.4,0.1c0.1,0,0.1,0.1,0.1,0.1c0,0,0,0.1,0,0.2c-0.1,0-0.3,0-0.5,0c-0.2,0-0.4,0-0.5,0c-0.1,0-0.2-0.1-0.4-0.2
				c-0.1-0.1-0.2-0.2-0.4-0.4L183.1,72.6z M182.9,72.2c0.4,0,0.7-0.1,0.9-0.3c0.2-0.2,0.3-0.5,0.3-0.9c0-0.2,0-0.3-0.1-0.5
				c0-0.2-0.1-0.3-0.2-0.4c-0.1-0.1-0.2-0.2-0.4-0.3c-0.2-0.1-0.4-0.1-0.6-0.1h-0.4v2.4H182.9z"/>
			<path class="st0" d="M186.3,72.3c0-0.4,0.1-0.8,0.2-1.1c0.1-0.4,0.3-0.7,0.6-0.9c0.3-0.3,0.5-0.5,0.9-0.6
				c0.3-0.2,0.7-0.2,1.1-0.2c0.5,0,1,0.1,1.3,0.2c0.4,0.2,0.7,0.4,0.9,0.6c0.2,0.3,0.4,0.6,0.6,0.9s0.2,0.7,0.2,1.1
				c0,0.5-0.1,0.9-0.2,1.2c-0.2,0.4-0.4,0.7-0.6,0.9c-0.3,0.3-0.6,0.4-0.9,0.6c-0.4,0.1-0.7,0.2-1.2,0.2c-0.4,0-0.8-0.1-1.1-0.2
				c-0.3-0.1-0.6-0.3-0.9-0.6c-0.2-0.3-0.4-0.6-0.6-0.9C186.4,73.1,186.3,72.7,186.3,72.3z M189.4,74.8c0.3,0,0.5-0.1,0.8-0.2
				c0.2-0.1,0.4-0.3,0.6-0.4c0.2-0.2,0.3-0.4,0.4-0.7c0.1-0.3,0.1-0.5,0.1-0.8c0-0.4,0-0.8-0.1-1.2c-0.1-0.4-0.2-0.7-0.4-0.9
				c-0.2-0.3-0.4-0.5-0.7-0.6c-0.3-0.2-0.6-0.2-1-0.2c-0.2,0-0.5,0-0.7,0.1c-0.2,0.1-0.4,0.2-0.6,0.4c-0.2,0.2-0.3,0.4-0.4,0.6
				c-0.1,0.3-0.1,0.5-0.1,0.9c0,0.4,0,0.8,0.1,1.2c0.1,0.4,0.2,0.7,0.4,1c0.2,0.3,0.4,0.5,0.7,0.6C188.7,74.7,189,74.8,189.4,74.8z"
				/>
			<path class="st0" d="M198.8,72.3c0,0.3-0.1,0.7-0.2,1c-0.1,0.3-0.3,0.6-0.5,0.9c-0.2,0.3-0.5,0.5-0.9,0.7
				c-0.4,0.2-0.8,0.2-1.3,0.2H194c-0.2,0-0.3,0-0.5,0c-0.2,0-0.4,0-0.6,0c0-0.1,0-0.1,0-0.1c0-0.1,0-0.1,0.1-0.1
				c0.2-0.1,0.4-0.1,0.5-0.1c0.1,0,0.1-0.1,0.1-0.2V70c0-0.1,0-0.2-0.1-0.2c-0.1,0-0.2-0.1-0.5-0.1c0,0-0.1,0-0.1-0.1s0-0.1,0-0.1
				c0,0,0-0.1,0-0.1c0.1,0,0.2,0,0.3,0s0.2,0,0.3,0s0.2,0,0.2,0c0.1,0,0.2,0,0.3,0h1.8c0.5,0,0.9,0.1,1.3,0.2
				c0.4,0.2,0.7,0.4,0.9,0.6s0.4,0.6,0.6,0.9S198.8,71.9,198.8,72.3z M197.8,72.4c0-0.9-0.2-1.6-0.7-2c-0.4-0.4-1.1-0.7-2-0.7h-0.8
				v4.7c0,0.1,0,0.1,0,0.1s0.1,0.1,0.1,0.1c0.1,0,0.2,0,0.3,0.1s0.3,0,0.5,0c0.5,0,0.8-0.1,1.1-0.2c0.3-0.1,0.6-0.3,0.8-0.5
				c0.2-0.2,0.3-0.4,0.4-0.7C197.8,73.1,197.8,72.8,197.8,72.4z"/>
			<path class="st0" d="M204.6,73c0,0.3,0,0.6-0.1,0.9s-0.2,0.5-0.4,0.7s-0.4,0.4-0.7,0.5c-0.3,0.1-0.7,0.2-1.1,0.2
				c-0.5,0-0.9-0.1-1.2-0.2c-0.3-0.1-0.5-0.3-0.7-0.5s-0.3-0.4-0.3-0.7c-0.1-0.3-0.1-0.5-0.1-0.8v-3c0-0.1,0-0.2-0.1-0.3
				c-0.1-0.1-0.2-0.1-0.5-0.1c-0.1,0-0.1-0.1-0.1-0.1c0,0,0-0.1,0-0.1c0.2,0,0.4,0,0.5,0s0.4,0,0.5,0c0.2,0,0.3,0,0.5,0
				c0.2,0,0.4,0,0.6,0c0,0.1,0,0.1,0,0.1c0,0.1,0,0.1-0.1,0.1c-0.2,0-0.4,0.1-0.5,0.1c-0.1,0.1-0.1,0.1-0.1,0.3v2.8
				c0,0.6,0.1,1.1,0.4,1.4c0.2,0.3,0.7,0.5,1.2,0.5c0.3,0,0.6,0,0.8-0.1s0.4-0.2,0.6-0.3c0.1-0.2,0.3-0.3,0.3-0.6s0.1-0.5,0.1-0.9
				V70c0-0.1,0-0.2-0.1-0.3c-0.1-0.1-0.2-0.1-0.5-0.1c-0.1,0-0.1-0.1-0.1-0.1c0,0,0-0.1,0-0.1c0.2,0,0.3,0,0.5,0s0.3,0,0.4,0
				c0.1,0,0.3,0,0.4,0c0.1,0,0.3,0,0.4,0c0,0.1,0,0.1,0,0.1c0,0,0,0.1,0,0.1s0,0.1-0.1,0.1c-0.2,0-0.4,0.1-0.5,0.1s-0.1,0.1-0.1,0.3
				V73z"/>
			<path class="st0" d="M208.7,75.2c-0.5,0-0.9-0.1-1.3-0.2c-0.4-0.2-0.7-0.4-0.9-0.6c-0.2-0.3-0.4-0.6-0.5-0.9
				c-0.1-0.4-0.2-0.7-0.2-1.2c0-0.3,0.1-0.7,0.2-1c0.1-0.4,0.3-0.7,0.5-1c0.2-0.3,0.5-0.5,0.9-0.7c0.4-0.2,0.8-0.3,1.3-0.3
				c0.2,0,0.4,0,0.5,0s0.3,0,0.5,0s0.3,0,0.4,0.1s0.3,0.1,0.4,0.1c0,0.2,0,0.4,0.1,0.6c0,0.2,0.1,0.5,0.1,0.7c0,0-0.1,0-0.1,0
				s-0.1,0-0.1,0s-0.1,0-0.1-0.1c-0.1-0.4-0.3-0.7-0.5-0.8c-0.2-0.2-0.6-0.2-1-0.2c-0.4,0-0.7,0.1-1,0.2c-0.3,0.1-0.5,0.3-0.7,0.5
				c-0.2,0.2-0.3,0.5-0.4,0.8s-0.1,0.6-0.1,1c0,0.4,0.1,0.8,0.2,1.1c0.1,0.3,0.3,0.6,0.5,0.9c0.2,0.2,0.5,0.4,0.7,0.6
				c0.3,0.1,0.6,0.2,0.9,0.2c0.3,0,0.5,0,0.6-0.1c0.2,0,0.3-0.1,0.4-0.2s0.2-0.2,0.3-0.3c0.1-0.1,0.2-0.3,0.2-0.5
				c0-0.1,0.1-0.1,0.2-0.1c0,0,0.1,0,0.1,0s0.1,0,0.1,0c-0.1,0.2-0.1,0.4-0.2,0.7c-0.1,0.2-0.1,0.5-0.2,0.7c-0.3,0-0.6,0.1-0.9,0.1
				C209.4,75.2,209,75.2,208.7,75.2z"/>
			<path class="st0" d="M214.5,69.8v4.7c0,0.1,0.1,0.2,0.2,0.3c0.1,0.1,0.3,0.1,0.6,0.1c0.1,0,0.1,0,0.1,0.1c0,0,0,0.1,0,0.1
				c-0.2,0-0.4,0-0.6,0c-0.2,0-0.4,0-0.6,0c-0.2,0-0.4,0-0.6,0c-0.2,0-0.4,0-0.6,0c0-0.1,0-0.1,0-0.1c0-0.1,0-0.1,0.1-0.1
				c0.3,0,0.5-0.1,0.6-0.1s0.2-0.1,0.2-0.3v-4.7h-0.9c-0.2,0-0.3,0-0.4,0.1c-0.1,0-0.2,0.1-0.3,0.2s-0.2,0.2-0.2,0.3
				c-0.1,0.1-0.1,0.2-0.2,0.4c0,0,0,0-0.1,0.1s-0.1,0-0.1,0c-0.1,0-0.1,0-0.2-0.1c0.1-0.2,0.1-0.4,0.1-0.6c0-0.2,0.1-0.3,0.1-0.4
				c0-0.1,0-0.2,0.1-0.2s0.1-0.1,0.1-0.1c0,0,0.1,0,0.2,0s0.2,0,0.2,0s0.2,0,0.3,0s0.2,0,0.2,0h2.9c0.1,0,0.1,0,0.2,0
				c0.1,0,0.2,0,0.3,0s0.2,0,0.2,0s0.1,0,0.2,0c0.1,0,0.1,0,0.1,0.1c0,0.1,0.1,0.1,0.1,0.3s0,0.2,0.1,0.4c0,0.2,0.1,0.3,0.1,0.5
				c0,0-0.1,0-0.1,0s-0.1,0-0.1,0c0,0,0,0-0.1,0s0,0-0.1-0.1c-0.1-0.1-0.1-0.3-0.2-0.4c-0.1-0.1-0.1-0.2-0.2-0.3
				c-0.1-0.1-0.2-0.1-0.3-0.2c-0.1,0-0.3-0.1-0.4-0.1H214.5z"/>
			<path class="st0" d="M221.1,70.8c-0.1,0-0.1,0-0.1,0c-0.1,0-0.1,0-0.2,0c0,0-0.1-0.1-0.1-0.1c-0.2-0.3-0.3-0.6-0.5-0.7
				c-0.2-0.2-0.5-0.2-0.9-0.2c-0.1,0-0.3,0-0.4,0.1s-0.2,0.1-0.3,0.2s-0.2,0.2-0.2,0.3c-0.1,0.1-0.1,0.2-0.1,0.4
				c0,0.3,0.1,0.5,0.3,0.7c0.2,0.2,0.6,0.4,1,0.5c0.6,0.2,1,0.5,1.2,0.7c0.3,0.3,0.4,0.6,0.4,1c0,0.2,0,0.5-0.1,0.7
				c-0.1,0.2-0.2,0.4-0.3,0.5c-0.2,0.2-0.4,0.3-0.6,0.4c-0.2,0.1-0.5,0.1-0.9,0.1c-0.4,0-0.7,0-1-0.1c-0.3-0.1-0.5-0.2-0.8-0.3
				c0-0.2,0-0.5-0.1-0.7c0-0.2-0.1-0.5-0.1-0.7c0,0,0.1,0,0.1,0c0.1,0,0.1,0,0.2,0s0.1,0.1,0.1,0.2c0.1,0.4,0.3,0.7,0.6,0.9
				s0.6,0.3,1,0.3c0.2,0,0.4,0,0.5-0.1s0.3-0.1,0.4-0.2c0.1-0.1,0.2-0.2,0.2-0.3s0.1-0.2,0.1-0.4c0-0.3-0.1-0.5-0.3-0.7
				c-0.2-0.2-0.5-0.3-0.9-0.5c-0.3-0.1-0.5-0.2-0.7-0.3c-0.2-0.1-0.4-0.2-0.5-0.4c-0.1-0.1-0.3-0.3-0.3-0.5s-0.1-0.4-0.1-0.6
				c0-0.2,0-0.4,0.1-0.6s0.2-0.4,0.3-0.5c0.1-0.1,0.3-0.3,0.5-0.3c0.2-0.1,0.4-0.1,0.7-0.1c0.3,0,0.5,0,0.8,0.1
				c0.3,0.1,0.5,0.1,0.9,0.3c0,0.2,0,0.4,0,0.6S221,70.6,221.1,70.8z"/>
		</g>
	</g>
	<g>
		<g>
			<path class="st1" d="M153.9,28.7h0.2C154.1,28.7,153.9,28.7,153.9,28.7z"/>
			<path class="st1" d="M176.4,33.5c0,0,0-0.1,0-0.1c0-0.1-0.1-0.1-0.1,0c0,0,0,0,0,0.1c-0.1,0-0.1,0-0.1,0.1c0,0,0,0,0,0
				c-0.6,0.9-1.6,1.4-1.9,2.4c-0.3,0.7-0.3,1.4-0.1,2.1c-1.1-1.1-2.9-1.2-4.2,0c0,0,0,0.1,0,0.1l0,0c0,0,0,0.1,0.1,0.1
				c1,0,2,0,2.8,0.8c-0.1,0.6,0,1.2,0.3,1.7c-0.8,0.3-1.1,1.8-1.3,2.6c-0.5,1.6-1.4,3.3-3.2,3.7c-2.9,0.7-3-2.5-3.3-4.4
				c0,0,0,0,0-0.1c0.7-0.2,1.4-0.8,1.2-1.6c-0.1-0.4-0.3-0.7-0.7-0.7c0.1-0.4,0-0.9-0.3-1.3c-0.4-0.5-1.1-0.7-1.7-0.4
				c-0.6,0.2-1,0.8-1,1.4c-0.3,0-0.5,0-0.8,0.2c-0.4,0.2-0.6,0.6-0.6,1.1c0.1,0.7,0.8,1.2,1.5,1.2c-0.3,1.1-0.7,2.1-1.6,2.9
				c-1.7,1.7-3.5,1.2-4.8-0.5c-1.2-1.6-1.6-3.4-1.6-5.2c0.4,0.1,0.8,0.1,1.2,0.1c0.1,0,0.1,0,0.2-0.1c0.2-0.8-0.2-1.6-0.8-2.2
				c0-0.4,0-0.8,0.2-1.2c0.4-0.7,1.4-0.6,1.8,0.1c0.3,0.5,0.4,1.2,0.8,1.7c0.4,0.6,1,1,1.7,0.7c0,0,0.1,0,0.1,0c0,0,0,0,0,0
				c0.1,0,0-0.2-0.1-0.1c0,0,0,0-0.1,0c-0.8-1.4,0.5-2.5,0.5-3.8c0-0.8-0.4-1.5-1-2c-0.9-0.7-2-0.7-3-0.2c0-0.4-0.2-0.8-0.5-1.1
				c-0.7-0.9-1.9-1.3-2.1-2.6c-0.3,1.3-1.4,1.6-2.1,2.6c-0.3,0.3-0.4,0.7-0.5,1.1c-1-0.4-2.1-0.5-3,0.2c-0.6,0.5-1.1,1.2-1,2
				c0,1.4,1.3,2.5,0.5,3.8c0,0,0,0-0.1,0c-0.1,0-0.1,0.1-0.1,0.1c0,0,0,0,0,0c0,0,0,0.1,0.1,0c0.6,0.3,1.3-0.1,1.7-0.7
				c0.3-0.5,0.4-1.2,0.8-1.7c0.5-0.7,1.4-0.8,1.8-0.1c0.2,0.4,0.2,0.8,0.2,1.2c-0.6,0.6-1,1.4-0.8,2.2c0,0.1,0.1,0.1,0.2,0.1
				c0.4,0,0.8,0,1.2-0.1c0,1.9-0.4,3.7-1.6,5.2c-1.3,1.7-3.1,2.2-4.8,0.5c-0.8-0.8-1.3-1.8-1.6-2.9c0.7,0,1.4-0.4,1.5-1.2
				c0.1-0.4-0.2-0.9-0.6-1.1c-0.3-0.1-0.5-0.2-0.8-0.2c0-0.6-0.4-1.2-1-1.4c-0.6-0.2-1.3-0.1-1.7,0.4c-0.3,0.3-0.4,0.9-0.3,1.3
				c-0.3,0.1-0.6,0.3-0.7,0.7c-0.1,0.8,0.5,1.3,1.2,1.6c0,0,0,0,0,0.1c-0.3,1.9-0.4,5.1-3.3,4.4c-1.8-0.4-2.6-2.1-3.2-3.7
				c-0.3-0.8-0.5-2.3-1.3-2.6c0.3-0.5,0.4-1.2,0.3-1.7c0.8-0.8,1.7-0.8,2.8-0.8c0,0,0.1,0,0.1-0.1l0,0c0,0,0-0.1,0-0.1
				c-1.2-1.2-3.1-1.1-4.2,0c0.2-0.7,0.1-1.4-0.1-2.1c-0.4-1.1-1.4-1.5-1.9-2.4c0,0,0,0,0,0c0-0.1,0-0.1-0.1-0.1c0,0,0,0,0-0.1
				c0-0.1-0.1,0-0.1,0c0,0,0,0.1,0,0.1c-0.9,1.3-1.6,3.1-1.1,4.7c0.5,1.5,2,2.6,3.1,3.6c0.4,3,1,6,1.7,8.9c0,0.1,0.1,0.1,0.1,0.1h0
				c0.1,0.1,0.2,0.1,0.3,0.1c1.3-0.3,2.6-0.6,4-0.8c6.3-0.9,18.6-2.1,30.7,0.4c0.7,0.1,1.4,0.3,2.2,0.5c0.1,0,0.2,0,0.3-0.1h0
				c0.1,0,0.1,0,0.1-0.1c0.7-2.9,1.3-5.9,1.7-8.9c1.1-1.1,2.6-2.1,3.1-3.6C178.1,36.6,177.4,34.8,176.4,33.5z M134.6,40.1
				c-0.1,0.2-0.2,0.5-0.3,0.7c0-0.5,0.2-0.9,0.4-1.3C134.7,39.6,134.7,39.9,134.6,40.1z M173.2,40.1c-0.1-0.2-0.1-0.4-0.1-0.6
				c0.3,0.4,0.4,0.8,0.4,1.3C173.4,40.5,173.3,40.3,173.2,40.1z"/>
			<path class="st1" d="M153.7,28.7h0.2C153.9,28.7,153.8,28.7,153.7,28.7z"/>
		</g>
		<path class="st1" d="M135.6,51.9c0,0,16.5-4.7,36.6,0l-2,9.3c0,0-15.5-4.2-32.2,0L135.6,51.9z"/>
	</g>
	<path class="st1" d="M130.3,136.5c0,0,0.1-0.2,0.2-0.5c0.2-0.3,0.4-0.8,0.8-1.3c0.4-0.5,1-1.2,1.8-1.7c0.8-0.6,1.7-1.1,2.9-1.6
		c1.1-0.4,2.4-0.7,3.8-0.9c0.4,0,0.7,0,1.1-0.1c0.3,0,0.7,0,1,0c0.7,0,1.5,0.1,2.2,0.2c1.5,0.2,3,0.5,4.4,1c1.5,0.4,2.9,0.9,4.3,1.3
		c1.4,0.5,2.8,0.9,4.2,1.2c1.4,0.3,2.7,0.6,4,0.7c1.3,0.1,2.6,0,3.8-0.2c1.1-0.2,2.2-0.6,3.1-1.1c0.9-0.5,1.7-1.1,2.3-1.7
		c0.6-0.6,1.1-1.2,1.4-1.8c0.3-0.6,0.5-1,0.6-1.4c0.1-0.3,0.2-0.5,0.2-0.5s0,0.2,0,0.6c0,0.4-0.1,0.9-0.2,1.6
		c-0.2,0.7-0.5,1.5-1.1,2.3c-0.5,0.8-1.3,1.7-2.3,2.4c-1,0.7-2.1,1.4-3.5,1.9c-1.3,0.4-2.8,0.7-4.3,0.7c-1.5,0-3.1-0.1-4.6-0.5
		c-1.5-0.3-3-0.7-4.5-1.2c-1.4-0.5-2.9-1-4.3-1.4c-1.4-0.4-2.7-0.9-4-1.1c-0.7-0.1-1.3-0.3-1.9-0.3c-0.3-0.1-0.6-0.1-1-0.1
		c-0.3,0-0.6,0-0.9-0.1c-1.2,0-2.4,0.1-3.4,0.3c-1,0.2-2,0.5-2.8,0.9c-0.8,0.4-1.4,0.8-1.9,1.2c-0.5,0.4-0.9,0.8-1.1,1
		C130.4,136.4,130.3,136.5,130.3,136.5z"/>
</g>
</svg>
