<?xml version="1.0" encoding="utf-8"?>
<!-- Generator: Adobe Illustrator 19.1.0, SVG Export Plug-In . SVG Version: 6.00 Build 0)  -->
<svg version="1.1" id="Layer_1" xmlns="http://www.w3.org/2000/svg" xmlns:xlink="http://www.w3.org/1999/xlink" x="0px" y="0px"
	 viewBox="0 0 300 200" style="enable-background:new 0 0 300 200;" xml:space="preserve">
<style type="text/css">
	.st0{fill:#303030;}
	.st1{font-family:'Athelas-Regular';}
	.st2{font-size:27.9742px;}
	.st3{font-size:10.1137px;}
	.st4{font-size:15.8612px;}
	.st5{fill:none;stroke:#303030;stroke-width:2;stroke-miterlimit:10;}
</style>
<g>
	<g>
		<text transform="matrix(1 0 0 1 37.5771 115.2158)" class="st0 st1 st2">BLACK &amp; WHITE</text>
	</g>
	<g>
		<text transform="matrix(1 0 0 1 62.2695 131.7695)" class="st0 st1 st3">CAREFULLY CHOOSEN PRODUCTS</text>
	</g>
	<g>
		<g>
			<text transform="matrix(1 0 0 1 88.4316 82.124)" class="st0 st1 st4">Since</text>
		</g>
		<text transform="matrix(1 0 0 1 164.5684 82.124)" class="st0 st1 st4">1878</text>
	</g>
	<g>
		
			<rect x="135.5" y="65.6" transform="matrix(0.7071 0.7071 -0.7071 0.7071 94.7639 -80.2058)" class="st5" width="17.5" height="17.5"/>
		<polygon class="st0" points="144.2,71.4 145.2,73.3 147.3,73.6 145.7,75.1 146.1,77.2 144.2,76.2 142.3,77.2 142.7,75.1 
			141.1,73.6 143.2,73.3 		"/>
	</g>
	<polygon class="st0" points="144.2,139.7 217,138.5 144.2,137.4 144.2,137.4 144.2,137.4 144.2,137.4 144.2,137.4 71.4,138.5 
		144.2,139.7 144.2,139.7 144.2,139.7 144.2,139.7 	"/>
</g>
</svg>
