<?xml version="1.0" encoding="utf-8"?>
<!-- Generator: Adobe Illustrator 19.1.0, SVG Export Plug-In . SVG Version: 6.00 Build 0)  -->
<svg version="1.1" id="Layer_1" xmlns="http://www.w3.org/2000/svg" xmlns:xlink="http://www.w3.org/1999/xlink" x="0px" y="0px"
	 viewBox="0 0 300 200" style="enable-background:new 0 0 300 200;" xml:space="preserve">
<style type="text/css">
	.st0{fill:#303030;}
</style>
<g>
	<g>
		<g>
			<path class="st0" d="M96.1,70.7c-0.7,0.4-1.5,0.7-2.2,0.8c-0.7,0.1-1.4,0.1-2-0.1c-0.6-0.2-1.2-0.5-1.7-0.9
				c-0.5-0.4-0.9-1-1.3-1.6c-0.3-0.5-0.5-1.1-0.7-1.8c-0.1-0.6-0.1-1.3,0-1.9c0.1-0.7,0.4-1.3,0.8-1.9c0.4-0.6,1-1.1,1.7-1.6
				c0.3-0.2,0.6-0.3,0.8-0.5c0.3-0.1,0.5-0.2,0.7-0.3c0.2-0.1,0.5-0.2,0.7-0.3s0.5-0.2,0.8-0.2c0.2,0.2,0.4,0.5,0.6,0.8
				c0.3,0.3,0.5,0.6,0.8,0.9c-0.1,0.1-0.1,0.1-0.2,0.2c-0.1,0-0.1,0.1-0.2,0.1c-0.1,0-0.1,0-0.2-0.1c-0.5-0.5-1-0.8-1.5-0.8
				s-1.1,0.1-1.7,0.5c-0.6,0.3-1,0.7-1.3,1.1c-0.3,0.4-0.5,0.9-0.6,1.4c-0.1,0.5-0.1,1,0,1.5c0.1,0.5,0.3,1.1,0.7,1.6
				c0.4,0.6,0.8,1.1,1.3,1.5c0.5,0.4,1,0.7,1.5,0.9c0.5,0.2,1.1,0.3,1.6,0.2c0.5,0,1.1-0.2,1.5-0.5c0.4-0.2,0.7-0.5,0.9-0.7
				c0.2-0.2,0.4-0.5,0.5-0.7s0.1-0.5,0.1-0.8c0-0.3,0-0.6-0.1-0.9c0-0.2,0.1-0.3,0.2-0.4c0,0,0.1,0,0.2-0.1s0.1,0,0.1,0
				c0.1,0.4,0.2,0.8,0.3,1.2s0.2,0.9,0.4,1.3c-0.4,0.3-0.8,0.6-1.2,1C97.1,70.1,96.6,70.4,96.1,70.7z"/>
			<path class="st0" d="M105.1,64.6c0.1,0.2,0.2,0.2,0.4,0.2c0.2,0,0.4-0.1,0.6-0.2l1.5-0.7c0.3-0.1,0.5-0.3,0.7-0.4
				c0.2-0.2,0.3-0.3,0.4-0.5c0.1-0.2,0.1-0.4,0.2-0.7c0-0.2,0-0.5,0-0.8c0-0.1,0-0.2,0.1-0.2c0,0,0.1,0,0.2,0c0.1,0,0.1,0,0.2,0
				c0.1,0.3,0.1,0.6,0.2,1s0.2,0.7,0.3,1.1c0,0.1,0,0.2,0,0.2c0,0-0.1,0.1-0.2,0.1c-0.2,0.1-0.4,0.1-0.6,0.2
				c-0.3,0.1-0.5,0.2-0.6,0.2l-3.5,1.6c-0.2,0.1-0.5,0.2-0.8,0.4c-0.3,0.2-0.6,0.3-0.9,0.5c-0.1-0.1-0.1-0.2-0.1-0.2
				c-0.1-0.1,0-0.2,0-0.3c0.4-0.2,0.6-0.4,0.7-0.6s0.1-0.3,0-0.5l-3.2-7.2c-0.1-0.2-0.2-0.3-0.4-0.3c-0.2,0-0.5,0-0.9,0.1
				c-0.1,0-0.1,0-0.1,0c0,0-0.1-0.1-0.1-0.1c0-0.1-0.1-0.2-0.1-0.3c0.3-0.1,0.7-0.2,1-0.4c0.3-0.1,0.6-0.2,0.8-0.3
				c0.3-0.1,0.7-0.3,1-0.5c0.4-0.2,0.7-0.3,0.9-0.5c0.1,0.1,0.1,0.2,0.1,0.2c0.1,0.2,0.1,0.3,0,0.3c-0.4,0.2-0.7,0.4-0.8,0.6
				c-0.2,0.2-0.2,0.4-0.1,0.6L105.1,64.6z"/>
			<path class="st0" d="M118.2,56.9l-3.3,1l-0.2,2.7c0,0.1,0,0.2,0,0.3c0.1,0.2,0.4,0.3,1,0.2c0.1,0,0.1,0,0.2,0
				c0,0,0.1,0.1,0.1,0.1s0,0.1,0,0.2c-0.3,0.1-0.6,0.1-0.9,0.2s-0.6,0.2-0.9,0.3c-0.2,0.1-0.4,0.1-0.6,0.2c-0.2,0.1-0.4,0.2-0.6,0.3
				c0-0.1-0.1-0.1-0.1-0.2c0-0.1,0-0.1,0-0.2c0-0.1,0.1-0.1,0.1-0.1c0.3-0.1,0.5-0.3,0.6-0.4s0.2-0.3,0.2-0.5l0.9-9.7
				c0-0.2,0.1-0.3,0.2-0.3c0,0,0.1,0,0.2,0l6.4,7.7c0.1,0.1,0.3,0.2,0.5,0.2c0.2,0,0.5,0,0.7,0c0.1,0,0.1,0,0.2,0
				c0,0,0.1,0.1,0.1,0.2c0,0.1,0,0.1,0,0.2c-0.3,0.1-0.6,0.2-0.9,0.2c-0.3,0.1-0.6,0.2-0.9,0.2c-0.3,0.1-0.6,0.2-0.9,0.3
				c-0.4,0.1-0.7,0.2-0.9,0.4c-0.1-0.1-0.1-0.2-0.1-0.2c0-0.1,0-0.2,0-0.2c0,0,0.1-0.1,0.1-0.1c0.2-0.1,0.4-0.3,0.6-0.4
				s0.2-0.2,0.1-0.4c0-0.1-0.1-0.1-0.1-0.2L118.2,56.9z M117.7,56.4l-2.5-3.2l-0.3,4.1L117.7,56.4z"/>
			<path class="st0" d="M129.5,53.3l-1.1,0.2l0.6,3.4c0,0.2,0.2,0.4,0.4,0.4c0.2,0,0.6,0.1,1,0c0.1,0,0.2,0.1,0.2,0.2
				c0,0.1,0,0.2,0,0.3c-0.3,0-0.6,0.1-1,0.1s-0.8,0.1-1.2,0.2c-0.3,0-0.6,0.1-0.9,0.2s-0.7,0.2-1,0.2c0-0.1-0.1-0.2-0.1-0.2
				c0-0.1,0-0.2,0.1-0.3c0.4-0.1,0.6-0.3,0.8-0.4c0.1-0.1,0.2-0.3,0.2-0.5l-1.4-7.8c0-0.2-0.1-0.3-0.3-0.4c-0.2-0.1-0.5-0.1-0.9-0.1
				c-0.1,0-0.2-0.1-0.2-0.2c0-0.1,0-0.1,0-0.2c0.3,0,0.6-0.1,1-0.1c0.3,0,0.6-0.1,0.9-0.1l2.1-0.4c1.1-0.2,2-0.1,2.6,0.3
				c0.6,0.4,1,1,1.2,1.8c0,0.2,0,0.5,0,0.7c0,0.3-0.1,0.5-0.2,0.8c-0.1,0.3-0.3,0.5-0.5,0.8s-0.5,0.5-0.8,0.6l3.2,3.1
				c0.2,0.2,0.5,0.4,0.7,0.4c0.3,0.1,0.5,0.1,0.7,0.1c0.1,0,0.2,0.1,0.2,0.2c0,0.1,0,0.2,0,0.3c-0.2,0-0.5,0.1-0.9,0.1
				c-0.3,0-0.7,0.1-0.9,0.1c-0.2,0-0.4,0-0.7-0.2s-0.5-0.3-0.7-0.6L129.5,53.3z M129.1,52.7c0.7-0.1,1.2-0.4,1.6-0.8
				s0.4-0.9,0.3-1.7c-0.1-0.3-0.2-0.6-0.3-0.8s-0.3-0.5-0.5-0.6c-0.2-0.2-0.5-0.3-0.8-0.3c-0.3-0.1-0.7,0-1.1,0l-0.8,0.1l0.8,4.2
				L129.1,52.7z"/>
			<path class="st0" d="M141.5,51.2l0.2,3.9c0,0.2,0.1,0.3,0.2,0.4s0.4,0.1,0.7,0.2c0.1,0,0.1,0,0.1,0.1c0,0,0.1,0.1,0.1,0.2
				c0,0.1,0,0.2,0,0.3c-0.3,0-0.6,0-0.9,0c-0.3,0-0.6,0-0.8,0c-0.3,0-0.6,0-0.9,0.1s-0.7,0.1-1,0.1c0-0.1,0-0.2,0-0.2
				c0-0.1,0-0.2,0.1-0.3c0.4-0.1,0.7-0.2,0.8-0.3c0.1-0.1,0.2-0.2,0.2-0.4l-0.5-7.9c0-0.2-0.1-0.3-0.2-0.4c-0.1-0.1-0.4-0.1-0.8-0.2
				c-0.1,0-0.2-0.1-0.2-0.3c0-0.1,0-0.1,0-0.2c0.3,0,0.6,0,1,0c0.3,0,0.6,0,0.9,0c0.3,0,0.6,0,0.9-0.1c0.3,0,0.7-0.1,1-0.1
				c0,0.1,0,0.2,0,0.2c0,0.2,0,0.2-0.1,0.3c-0.4,0.1-0.7,0.2-0.8,0.3c-0.1,0.1-0.2,0.2-0.2,0.5l0.2,3.7l3.4-3.8
				c0.1-0.1,0.1-0.1,0.1-0.2c0-0.1,0.1-0.2,0.1-0.2c0-0.1-0.1-0.2-0.2-0.2c-0.1,0-0.3-0.1-0.5-0.1c-0.1,0-0.2-0.1-0.2-0.3
				c0-0.1,0-0.1,0-0.2c0.3,0,0.6,0,0.9,0c0.3,0,0.6,0,0.8,0c0.2,0,0.5,0,0.7-0.1s0.5-0.1,0.7-0.1c0,0.1,0,0.2,0,0.2
				c0,0.2,0,0.3-0.2,0.3c-0.2,0.1-0.4,0.1-0.6,0.2s-0.4,0.2-0.5,0.4l-3.3,3.7l4.5,4.3c0.2,0.2,0.4,0.3,0.6,0.4s0.4,0.1,0.6,0.1
				c0.1,0,0.2,0.1,0.2,0.3c0,0.1,0,0.2,0,0.3c-0.3,0-0.7,0-1.1,0c-0.4,0-0.7,0-1,0c-0.3,0-0.6,0-0.9,0.1c-0.3,0-0.7,0.1-1,0.1
				c0-0.1,0-0.2,0-0.2c0-0.2,0-0.2,0.2-0.3c0.5-0.1,0.7-0.2,0.7-0.4c0-0.1-0.1-0.2-0.2-0.3L141.5,51.2z"/>
			<path class="st0" d="M159,48.5c-0.1,0-0.2,0-0.2,0c-0.1,0-0.2,0-0.3-0.1c-0.1-0.1-0.1-0.1-0.1-0.2c-0.2-0.6-0.5-1-0.9-1.3
				s-0.9-0.4-1.5-0.5c-0.2,0-0.5,0-0.7,0.1c-0.2,0.1-0.4,0.1-0.6,0.3c-0.2,0.1-0.3,0.3-0.4,0.5c-0.1,0.2-0.2,0.4-0.2,0.6
				c0,0.5,0.2,0.9,0.6,1.2c0.4,0.3,1,0.7,1.8,1c1,0.4,1.7,0.9,2.1,1.4c0.4,0.5,0.7,1.1,0.6,1.8c0,0.4-0.1,0.8-0.2,1.2
				s-0.4,0.7-0.7,0.9s-0.7,0.5-1.1,0.6c-0.4,0.1-1,0.2-1.6,0.2c-0.6,0-1.2-0.1-1.7-0.3c-0.5-0.2-0.9-0.4-1.3-0.6
				c0-0.4,0-0.9-0.1-1.3c0-0.4-0.1-0.8-0.2-1.2c0.1,0,0.2,0,0.3,0c0.1,0,0.2,0,0.3,0.1s0.1,0.2,0.2,0.3c0.2,0.8,0.5,1.3,0.9,1.7
				c0.4,0.4,1,0.6,1.7,0.6c0.3,0,0.6,0,0.9-0.1c0.3-0.1,0.5-0.2,0.6-0.4c0.2-0.2,0.3-0.3,0.4-0.5c0.1-0.2,0.1-0.4,0.2-0.7
				c0-0.5-0.1-1-0.5-1.3c-0.4-0.3-0.9-0.6-1.5-0.9c-0.4-0.2-0.8-0.4-1.2-0.6c-0.4-0.2-0.7-0.4-0.9-0.7c-0.2-0.2-0.4-0.5-0.6-0.9
				c-0.1-0.3-0.2-0.7-0.2-1.1c0-0.4,0.1-0.7,0.3-1.1s0.4-0.6,0.6-0.8c0.3-0.2,0.6-0.4,1-0.5c0.4-0.1,0.8-0.2,1.3-0.2
				c0.5,0,0.9,0.1,1.4,0.2s0.9,0.3,1.5,0.5c0,0.3,0,0.6,0,1C158.9,47.9,158.9,48.2,159,48.5z"/>
			<path class="st0" d="M179.6,59.6c0,0,0,0.1,0,0.1s0,0.1-0.1,0.2c-0.3-0.1-0.7-0.2-1.2-0.3c-0.1,0-0.3-0.1-0.4-0.1
				s-0.3-0.2-0.5-0.3c-0.2-0.1-0.4-0.4-0.7-0.6c-0.3-0.3-0.6-0.6-0.9-1.1c-0.5,0.4-1.1,0.7-1.7,0.8c-0.6,0.2-1.2,0.2-1.8,0.1
				c-0.4-0.1-0.7-0.2-1.1-0.4c-0.3-0.2-0.6-0.4-0.8-0.6c-0.2-0.3-0.3-0.5-0.4-0.9c-0.1-0.3-0.1-0.7,0-1.2c0.1-0.6,0.4-1.1,0.9-1.5
				c0.5-0.4,1.1-0.7,1.8-1c-0.2-0.3-0.4-0.6-0.5-0.9c-0.1-0.3-0.2-0.5-0.2-0.7s-0.1-0.4-0.1-0.7c0-0.2,0-0.4,0.1-0.6
				c0.1-0.6,0.4-1,0.9-1.2c0.5-0.2,1.1-0.3,1.7-0.2c0.3,0.1,0.6,0.2,0.8,0.3s0.4,0.3,0.6,0.6c0.2,0.2,0.3,0.5,0.3,0.7s0,0.6,0,0.8
				c-0.1,0.4-0.3,0.7-0.6,1c-0.3,0.3-0.8,0.6-1.4,0.8c0.4,0.7,0.8,1.3,1.2,1.8c0.3,0.5,0.7,1,0.9,1.4c0.3-0.2,0.5-0.5,0.7-0.7
				c0.2-0.2,0.4-0.5,0.6-0.7c0.2-0.2,0.3-0.4,0.4-0.6c0.1-0.2,0.2-0.3,0.2-0.5c0-0.1,0-0.2-0.1-0.3s-0.2-0.2-0.5-0.3
				c-0.1,0-0.2-0.1-0.2-0.2c0,0,0-0.1,0-0.1s0-0.1,0.1-0.1c0.2,0.1,0.4,0.1,0.6,0.2c0.2,0.1,0.5,0.1,0.7,0.2
				c0.5,0.1,0.9,0.2,1.2,0.2c0,0,0,0.1,0,0.2c0,0.1,0,0.1,0,0.1c0,0.1-0.1,0.2-0.2,0.2c-0.1,0-0.3,0-0.4,0c-0.1,0-0.2,0-0.3,0.1
				s-0.2,0.1-0.2,0.2c-0.1,0.1-0.2,0.2-0.3,0.3c-0.3,0.4-0.7,0.8-1,1.3c-0.4,0.4-0.7,0.8-1.1,1.2c0.3,0.4,0.6,0.8,0.8,1.1
				c0.2,0.3,0.4,0.5,0.6,0.7c0.2,0.2,0.3,0.4,0.4,0.5c0.1,0.1,0.2,0.2,0.3,0.3c0,0,0.1,0,0.1,0.1c0.1,0,0.2,0.1,0.2,0.1
				s0.2,0.1,0.2,0.1C179.6,59.5,179.6,59.6,179.6,59.6z M173,53.2c-0.4,0.2-0.8,0.5-1.1,0.9c-0.3,0.4-0.5,0.7-0.6,1.2
				c-0.1,0.4-0.1,0.7,0,0.9c0.1,0.3,0.2,0.5,0.3,0.7s0.3,0.3,0.5,0.4c0.2,0.1,0.4,0.2,0.6,0.2c0.4,0.1,0.8,0.1,1.2,0
				c0.4-0.1,0.9-0.3,1.4-0.6c-0.3-0.4-0.7-1-1.1-1.6S173.5,54,173,53.2z M174.1,52.4c0.4-0.2,0.6-0.4,0.8-0.7
				c0.2-0.3,0.3-0.5,0.4-0.8c0.1-0.5,0.1-0.9-0.1-1.2c-0.1-0.3-0.4-0.5-0.8-0.6c-0.3-0.1-0.5,0-0.7,0.1c-0.2,0.1-0.3,0.3-0.4,0.6
				c-0.1,0.3,0,0.6,0.1,1C173.4,51.3,173.7,51.8,174.1,52.4z"/>
			<path class="st0" d="M193.3,65c-0.8-0.3-1.4-0.8-1.9-1.3c-0.5-0.5-0.8-1.1-1.1-1.7c-0.2-0.6-0.3-1.2-0.2-1.9s0.2-1.3,0.5-2
				c0.2-0.6,0.6-1.1,1-1.6s1-0.9,1.5-1.2c0.6-0.3,1.2-0.5,2-0.5c0.7,0,1.5,0.1,2.3,0.5c0.3,0.1,0.6,0.3,0.9,0.4
				c0.3,0.1,0.5,0.3,0.7,0.4c0.2,0.1,0.4,0.3,0.6,0.4c0.2,0.1,0.4,0.3,0.6,0.5c-0.1,0.3-0.2,0.6-0.3,1c-0.1,0.4-0.2,0.8-0.3,1.2
				c-0.1,0-0.2,0-0.3,0c-0.1,0-0.1-0.1-0.2-0.1c-0.1,0-0.1-0.1-0.1-0.2c0.1-0.7,0-1.3-0.2-1.7c-0.3-0.4-0.7-0.8-1.4-1.1
				c-0.6-0.3-1.2-0.4-1.7-0.4c-0.5,0-1,0.1-1.5,0.3c-0.5,0.2-0.9,0.5-1.2,0.9c-0.4,0.4-0.7,0.9-0.9,1.5c-0.3,0.7-0.4,1.3-0.5,1.9
				c0,0.6,0,1.2,0.2,1.8c0.2,0.5,0.4,1,0.8,1.4c0.4,0.4,0.8,0.7,1.3,0.9c0.4,0.2,0.8,0.3,1.1,0.3c0.3,0,0.6,0,0.8-0.1
				c0.2-0.1,0.5-0.2,0.7-0.4c0.2-0.2,0.5-0.4,0.7-0.6c0.1-0.1,0.3-0.1,0.4-0.1c0,0,0.1,0,0.1,0.1c0,0,0.1,0.1,0.1,0.1
				c-0.3,0.3-0.5,0.6-0.8,1c-0.3,0.4-0.6,0.7-0.8,1.1c-0.5-0.1-1-0.3-1.5-0.4C194.5,65.4,193.9,65.2,193.3,65z"/>
			<path class="st0" d="M203,63.7c0.4-0.6,0.8-1.1,1.4-1.5c0.5-0.4,1.1-0.7,1.7-0.9c0.6-0.2,1.3-0.3,1.9-0.2
				c0.7,0.1,1.3,0.2,1.8,0.6c0.8,0.5,1.4,1,1.8,1.6c0.4,0.6,0.7,1.2,0.9,1.8s0.1,1.3,0,1.9c-0.1,0.7-0.4,1.3-0.7,1.9
				c-0.4,0.7-0.9,1.3-1.5,1.7c-0.6,0.4-1.2,0.7-1.8,0.9s-1.3,0.2-2,0.1c-0.7-0.1-1.3-0.4-1.9-0.7c-0.6-0.4-1.2-0.8-1.6-1.3
				c-0.4-0.5-0.7-1.1-0.8-1.7c-0.1-0.6-0.2-1.3-0.1-1.9C202.4,65,202.6,64.4,203,63.7z M205.4,70.2c0.4,0.2,0.9,0.4,1.3,0.4
				c0.4,0,0.9,0,1.3-0.1s0.8-0.4,1.2-0.7c0.4-0.3,0.7-0.7,1-1.2c0.4-0.6,0.7-1.3,0.8-1.9s0.3-1.2,0.2-1.8c0-0.6-0.2-1.1-0.5-1.6
				c-0.3-0.5-0.7-0.9-1.2-1.2c-0.4-0.2-0.8-0.4-1.2-0.4s-0.8,0-1.2,0.1c-0.4,0.1-0.8,0.3-1.2,0.6c-0.4,0.3-0.7,0.7-1,1.2
				c-0.4,0.7-0.7,1.3-0.9,2c-0.2,0.7-0.3,1.3-0.2,1.8s0.2,1.1,0.4,1.6C204.4,69.6,204.8,69.9,205.4,70.2z"/>
		</g>
	</g>
	<g>
		<path class="st0" d="M61.8,121c-2.5,0-4.6-0.4-6.4-1.1c-1.8-0.8-3.4-1.8-4.6-3.1s-2.1-2.9-2.7-4.7c-0.6-1.8-0.9-3.7-0.9-5.8
			c0-1.7,0.3-3.5,0.9-5.2c0.6-1.8,1.5-3.3,2.7-4.7c1.2-1.4,2.7-2.6,4.6-3.5c1.8-0.9,4-1.3,6.4-1.3c1,0,1.8,0,2.6,0.1
			c0.8,0,1.6,0.1,2.3,0.2c0.7,0.1,1.4,0.2,2.1,0.4c0.7,0.2,1.4,0.3,2.2,0.5c0,0.8,0.1,1.8,0.3,2.9c0.2,1.1,0.4,2.3,0.7,3.5
			c-0.2,0.1-0.5,0.2-0.7,0.2c-0.2,0-0.4,0-0.6-0.1c-0.2-0.1-0.3-0.2-0.4-0.5c-0.5-1.9-1.4-3.3-2.5-4.1c-1.1-0.8-2.8-1.2-4.9-1.2
			c-1.8,0-3.4,0.3-4.8,0.9c-1.4,0.6-2.6,1.4-3.5,2.5c-0.9,1.1-1.7,2.3-2.1,3.8c-0.5,1.5-0.7,3.1-0.7,4.9c0,2,0.3,3.9,0.9,5.6
			c0.6,1.7,1.4,3.2,2.5,4.4c1,1.2,2.2,2.2,3.6,2.8c1.4,0.7,2.9,1,4.4,1c1.3,0,2.3-0.1,3.2-0.4c0.9-0.2,1.6-0.6,2.1-1.1
			s1.1-1,1.4-1.7c0.4-0.7,0.8-1.5,1.1-2.3c0.2-0.4,0.6-0.7,1.1-0.7c0.1,0,0.3,0,0.5,0.1c0.2,0,0.3,0.1,0.4,0.2
			c-0.4,1-0.7,2.1-1.1,3.4s-0.6,2.5-0.9,3.7c-1.4,0.2-2.9,0.4-4.4,0.5C65.2,120.9,63.6,121,61.8,121z"/>
		<path class="st0" d="M87.4,107.7h-3.2v9.6c0,0.6,0.3,1.1,0.9,1.3c0.6,0.2,1.5,0.4,2.7,0.6c0.4,0.1,0.5,0.3,0.5,0.7
			c0,0.2,0,0.5-0.1,0.7c-0.8-0.1-1.7-0.1-2.9-0.2s-2.2-0.1-3.3-0.1c-0.8,0-1.6,0-2.6,0.1c-1,0-1.9,0.1-2.8,0.2
			c-0.1-0.3-0.1-0.5-0.1-0.7c0-0.4,0.2-0.6,0.5-0.7c1.1-0.2,1.9-0.4,2.3-0.6c0.5-0.2,0.7-0.7,0.7-1.2V95.1c0-0.6-0.2-1-0.6-1.2
			c-0.4-0.3-1.2-0.5-2.5-0.6c-0.3,0-0.4-0.3-0.4-0.7c0-0.2,0-0.4,0.1-0.7c0.9,0.1,1.8,0.1,2.7,0.2c0.9,0,1.8,0.1,2.7,0.1h5.9
			c3.2,0,5.5,0.7,7.1,2.1c1.6,1.4,2.4,3.3,2.4,5.6c0,0.6-0.1,1.3-0.3,2c-0.2,0.7-0.6,1.4-1,2.1c-0.5,0.7-1,1.3-1.8,1.9
			s-1.6,1-2.5,1.4l7.3,10.2c0.6,0.8,1.2,1.3,1.8,1.6c0.7,0.3,1.3,0.5,1.9,0.7c0.3,0.1,0.4,0.3,0.4,0.6c0,0.2,0,0.5-0.1,0.8
			c-0.7-0.1-1.5-0.1-2.5-0.2c-1,0-1.9-0.1-2.7-0.1c-0.6,0-1.2-0.3-1.9-0.8c-0.6-0.5-1.2-1.2-1.8-2L87.4,107.7z M86.5,105.9
			c2,0,3.6-0.4,4.7-1.3c1.1-0.9,1.7-2.4,1.7-4.5c0-0.9-0.1-1.7-0.4-2.5c-0.2-0.8-0.6-1.4-1.1-2c-0.5-0.6-1.2-1-2-1.3
			c-0.8-0.3-1.8-0.5-3-0.5h-2.2v12.1H86.5z"/>
		<path class="st0" d="M112.6,93.8V105h6.8c0.6,0,1-0.3,1.2-0.9c0.2-0.6,0.4-1.3,0.6-2.1c0.1-0.4,0.3-0.6,0.8-0.6c0.1,0,0.2,0,0.4,0
			c0.1,0,0.3,0.1,0.4,0.1c-0.1,0.6-0.1,1.4-0.2,2.2s-0.1,1.5-0.1,2.1c0,0.5,0,1.1,0,1.8c0,0.7,0.1,1.5,0.2,2.4
			c-0.2,0.1-0.5,0.1-0.7,0.1c-0.5,0-0.7-0.2-0.8-0.6c-0.1-0.8-0.3-1.5-0.6-2.1c-0.2-0.6-0.7-0.9-1.2-0.9h-6.8v10.3
			c0,0.6,0.4,1,1.2,1.2c0.8,0.2,2.1,0.3,3.9,0.3h2.4c0.8,0,1.6-0.1,2.2-0.4c0.6-0.2,1.2-0.6,1.7-1c0.5-0.4,0.9-0.9,1.3-1.5
			c0.4-0.6,0.7-1.2,1.1-1.9c0.1-0.2,0.3-0.3,0.7-0.3c0.1,0,0.3,0,0.5,0.1c0.2,0.1,0.3,0.2,0.5,0.3c-0.3,0.6-0.5,1.2-0.7,2
			c-0.2,0.8-0.4,1.5-0.5,2.2c-0.2,0.7-0.4,1.3-0.5,1.8c-0.2,0.5-0.4,0.7-0.7,0.7c-0.2,0-0.6,0-1,0s-0.9-0.1-1.4-0.1
			c-0.5,0-1,0-1.6-0.1c-0.5,0-1,0-1.4,0h-9.6c-0.8,0-1.8,0-2.7,0.1c-1,0-1.9,0.1-2.8,0.2c-0.1-0.3-0.1-0.5-0.1-0.7
			c0-0.4,0.1-0.6,0.4-0.7c1.1-0.2,1.9-0.4,2.4-0.7s0.7-0.6,0.7-1.2V95.1c0-0.6-0.2-1-0.6-1.2c-0.4-0.2-1.2-0.4-2.5-0.7
			c-0.3-0.1-0.4-0.3-0.4-0.7c0-0.1,0-0.3,0-0.4c0-0.1,0-0.2,0.1-0.3c1.3,0.1,2.3,0.1,3.2,0.2c0.8,0,1.6,0,2.3,0h8.6
			c1.3,0,2.5,0,3.4-0.1c1-0.1,1.6-0.1,1.9-0.1c0.4,0,0.6,0.2,0.8,0.7c0.1,0.5,0.2,1.1,0.3,1.7c0.1,0.7,0.2,1.4,0.3,2.1
			c0.1,0.8,0.3,1.4,0.7,1.9c-0.2,0.2-0.5,0.3-0.8,0.3c-0.4,0-0.6-0.1-0.7-0.4c-0.4-0.8-0.7-1.4-1-1.9c-0.3-0.5-0.7-1-1.1-1.3
			c-0.4-0.4-0.9-0.6-1.5-0.8c-0.6-0.2-1.3-0.3-2.2-0.3H112.6z"/>
		<path class="st0" d="M148.1,110.1h-9.8l-2.8,7c-0.1,0.3-0.2,0.6-0.2,0.9c0,0.6,0.9,1,2.7,1.3c0.2,0,0.3,0.1,0.4,0.2
			c0.1,0.1,0.1,0.3,0.1,0.5s0,0.4-0.1,0.7c-0.8-0.1-1.6-0.1-2.5-0.2c-0.9,0-1.7-0.1-2.6-0.1c-0.6,0-1.2,0-1.8,0
			c-0.6,0-1.3,0.1-1.9,0.2c-0.1-0.2-0.1-0.5-0.1-0.7c0-0.2,0-0.4,0.1-0.5c0.1-0.1,0.2-0.2,0.5-0.3c0.9-0.1,1.6-0.3,2-0.5
			c0.5-0.2,0.8-0.6,1-1l10.5-25.4c0.2-0.5,0.5-0.7,0.8-0.7c0.1,0,0.3,0,0.5,0.1l10.6,26.2c0.2,0.4,0.6,0.7,1.2,1s1.2,0.4,1.8,0.5
			c0.2,0.1,0.3,0.1,0.4,0.2c0.1,0.1,0.2,0.3,0.2,0.5c0,0.2,0,0.4-0.1,0.7c-0.9-0.1-1.9-0.1-2.8-0.2c-0.9,0-1.8-0.1-2.5-0.1
			c-0.8,0-1.8,0-2.8,0.1c-1,0-2,0.1-2.8,0.2c-0.1-0.3-0.1-0.5-0.1-0.7c0-0.3,0.1-0.4,0.2-0.5c0.1-0.1,0.2-0.2,0.3-0.2
			c0.8-0.1,1.4-0.3,1.8-0.5c0.5-0.2,0.7-0.5,0.7-0.9c0-0.2-0.1-0.4-0.2-0.7L148.1,110.1z M147.4,108.3l-4.1-10.7l-4.2,10.7H147.4z"
			/>
		<path class="st0" d="M172.4,93.8v23.4c0,0.7,0.3,1.1,0.8,1.4c0.6,0.3,1.5,0.5,2.8,0.6c0.3,0,0.5,0.2,0.5,0.7c0,0.2,0,0.5-0.1,0.7
			c-0.9-0.1-1.9-0.1-3-0.2s-2.1-0.1-3.1-0.1c-1,0-2.1,0-3.1,0.1c-1.1,0-2.1,0.1-3,0.2c-0.1-0.3-0.1-0.5-0.1-0.7
			c0-0.4,0.1-0.6,0.4-0.7c1.3-0.2,2.3-0.4,2.8-0.7c0.6-0.3,0.9-0.7,0.9-1.4V93.8h-4.5c-0.9,0-1.6,0.1-2.2,0.3
			c-0.6,0.2-1.1,0.4-1.6,0.8s-0.8,0.8-1.1,1.4c-0.3,0.6-0.7,1.2-1,1.9c-0.1,0.1-0.2,0.2-0.3,0.3c-0.1,0.1-0.3,0.1-0.4,0.1
			c-0.3,0-0.6-0.1-0.8-0.3c0.3-1.1,0.5-2,0.7-2.8c0.1-0.8,0.3-1.5,0.4-2c0.1-0.5,0.2-1,0.4-1.2c0.1-0.3,0.3-0.4,0.6-0.4
			c0.2,0,0.5,0,0.9,0c0.4,0,0.8,0.1,1.2,0.1c0.4,0,0.9,0.1,1.3,0.1c0.4,0,0.8,0,1.2,0h14.6c0.4,0,0.7,0,1.2,0c0.4,0,0.9-0.1,1.3-0.1
			c0.4,0,0.8-0.1,1.2-0.1c0.4,0,0.7,0,0.9,0c0.3,0,0.5,0.2,0.6,0.5c0.1,0.3,0.3,0.7,0.4,1.3c0.1,0.6,0.2,1.2,0.4,2.1
			c0.1,0.8,0.4,1.7,0.7,2.7c-0.1,0.1-0.3,0.1-0.4,0.2c-0.1,0.1-0.3,0.1-0.5,0.1c-0.1,0-0.2,0-0.4-0.1c-0.1-0.1-0.2-0.2-0.3-0.3
			c-0.3-0.7-0.6-1.4-1-1.9c-0.3-0.6-0.7-1-1.1-1.4c-0.4-0.4-0.9-0.6-1.5-0.8c-0.6-0.2-1.3-0.3-2.2-0.3H172.4z"/>
		<path class="st0" d="M193.9,117.4c0,0.6,0.2,1,0.6,1.2s1.2,0.4,2.3,0.7c0.3,0.1,0.4,0.3,0.4,0.7c0,0.2,0,0.4-0.1,0.7
			c-0.9-0.1-1.8-0.1-2.7-0.2s-1.8-0.1-2.6-0.1c-0.8,0-1.7,0-2.6,0.1c-0.9,0-1.8,0.1-2.7,0.2c-0.1-0.3-0.1-0.5-0.1-0.7
			c0-0.4,0.1-0.6,0.4-0.7c1.1-0.2,1.9-0.4,2.3-0.7c0.4-0.2,0.6-0.6,0.6-1.2V95.1c0-0.6-0.2-1-0.6-1.2c-0.4-0.2-1.2-0.5-2.3-0.6
			c-0.2,0-0.3-0.1-0.4-0.3c-0.1-0.1-0.1-0.3-0.1-0.5c0-0.2,0-0.4,0.1-0.7c0.9,0.1,1.8,0.1,2.7,0.2c0.9,0,1.8,0.1,2.6,0.1
			c0.7,0,1.6,0,2.5-0.1c0.9,0,1.9-0.1,2.8-0.2c0.1,0.3,0.1,0.5,0.1,0.7c0,0.4-0.1,0.7-0.4,0.7c-1.1,0.2-1.9,0.4-2.3,0.6
			c-0.4,0.2-0.6,0.7-0.6,1.2V117.4z"/>
		<path class="st0" d="M222.9,95.5c0.1-0.3,0.2-0.6,0.2-0.9c0-0.4-0.2-0.7-0.6-0.9s-1.1-0.4-2-0.5c-0.3,0-0.5-0.3-0.5-0.7
			c0-0.1,0-0.3,0-0.4c0-0.1,0-0.2,0-0.3c0.1,0,0.2,0,0.6,0c0.3,0,0.7,0.1,1.2,0.1c0.5,0,0.9,0.1,1.5,0.1c0.5,0,1,0,1.5,0
			c1,0,1.8,0,2.6-0.1c0.8-0.1,1.3-0.1,1.4-0.1c0,0.1,0,0.2,0,0.3c0,0.1,0,0.2,0,0.2s0,0.1,0,0.2c0,0.5-0.2,0.7-0.5,0.8
			c-0.9,0.1-1.6,0.2-2.1,0.4c-0.4,0.2-0.8,0.6-1,1.2l-10.8,26c-0.1,0-0.1,0-0.2,0c-0.1,0-0.1,0-0.2,0c-0.3,0-0.6-0.2-0.8-0.7
			l-10.3-25.5c-0.2-0.4-0.5-0.7-0.9-0.9c-0.4-0.2-1.1-0.4-2.2-0.5c-0.3,0-0.5-0.3-0.5-0.8c0-0.2,0-0.5,0.1-0.7
			c0.9,0.1,1.8,0.1,2.8,0.2s1.9,0.1,2.7,0.1c0.7,0,1.6,0,2.7-0.1s2-0.1,2.9-0.2c0.1,0.3,0.1,0.5,0.1,0.7c0,0.4-0.2,0.7-0.5,0.7
			c-1.7,0.2-2.6,0.6-2.6,1.4c0,0.2,0,0.4,0.1,0.6l7.4,19L222.9,95.5z"/>
		<path class="st0" d="M238.8,93.8V105h6.8c0.6,0,1-0.3,1.2-0.9c0.2-0.6,0.4-1.3,0.6-2.1c0.1-0.4,0.3-0.6,0.8-0.6c0.1,0,0.2,0,0.3,0
			c0.1,0,0.3,0.1,0.3,0.1c-0.1,0.6-0.1,1.4-0.2,2.2c0,0.8-0.1,1.5-0.1,2.1c0,0.5,0,1.1,0,1.8c0,0.7,0.1,1.5,0.2,2.4
			c-0.2,0.1-0.5,0.1-0.7,0.1c-0.5,0-0.7-0.2-0.8-0.6c-0.1-0.8-0.3-1.5-0.6-2.1c-0.2-0.6-0.7-0.9-1.2-0.9h-6.8v10.3
			c0,0.6,0.4,1,1.2,1.2c0.8,0.2,2.1,0.3,3.9,0.3h2.4c0.8,0,1.6-0.1,2.2-0.4c0.6-0.2,1.2-0.6,1.7-1c0.5-0.4,0.9-0.9,1.3-1.5
			c0.4-0.6,0.7-1.2,1.1-1.9c0.1-0.2,0.3-0.3,0.7-0.3c0.1,0,0.3,0,0.5,0.1c0.2,0.1,0.3,0.2,0.5,0.3c-0.3,0.6-0.5,1.2-0.7,2
			c-0.2,0.8-0.4,1.5-0.5,2.2s-0.4,1.3-0.5,1.8c-0.2,0.5-0.4,0.7-0.7,0.7c-0.2,0-0.6,0-1,0s-0.9-0.1-1.4-0.1c-0.5,0-1,0-1.6-0.1
			c-0.5,0-1,0-1.4,0h-9.6c-0.8,0-1.8,0-2.7,0.1c-1,0-1.9,0.1-2.8,0.2c-0.1-0.3-0.1-0.5-0.1-0.7c0-0.4,0.1-0.6,0.4-0.7
			c1.1-0.2,1.9-0.4,2.4-0.7s0.7-0.6,0.7-1.2V95.1c0-0.6-0.2-1-0.6-1.2c-0.4-0.2-1.2-0.4-2.5-0.7c-0.3-0.1-0.4-0.3-0.4-0.7
			c0-0.1,0-0.3,0-0.4c0-0.1,0-0.2,0.1-0.3c1.3,0.1,2.3,0.1,3.2,0.2c0.8,0,1.6,0,2.3,0h8.6c1.3,0,2.5,0,3.4-0.1
			c1-0.1,1.6-0.1,1.9-0.1c0.4,0,0.6,0.2,0.8,0.7c0.1,0.5,0.2,1.1,0.3,1.7c0.1,0.7,0.2,1.4,0.3,2.1c0.1,0.8,0.3,1.4,0.7,1.9
			c-0.2,0.2-0.5,0.3-0.8,0.3c-0.4,0-0.6-0.1-0.7-0.4c-0.4-0.8-0.7-1.4-1-1.9c-0.3-0.5-0.7-1-1.1-1.3c-0.4-0.4-0.9-0.6-1.5-0.8
			c-0.6-0.2-1.3-0.3-2.2-0.3H238.8z"/>
	</g>
	<g>
		
			<rect x="147.5" y="74.4" transform="matrix(0.7071 0.7071 -0.7071 0.7071 98.7019 -83.7138)" class="st0" width="5.8" height="5.8"/>
		<g>
			<polygon class="st0" points="158.6,75.8 218.3,77.3 158.6,78.7 			"/>
			<polygon class="st0" points="142.2,78.7 82.5,77.3 142.2,75.8 			"/>
		</g>
	</g>
	<g>
		<g>
			<path class="st0" d="M95.3,139.8v8.3c0,0.2,0.1,0.4,0.3,0.5c0.2,0.1,0.5,0.2,1,0.2c0.1,0,0.2,0.1,0.2,0.2c0,0.1,0,0.2,0,0.3
				c-0.3,0-0.7,0-1-0.1s-0.7,0-1.1,0c-0.4,0-0.7,0-1.1,0c-0.4,0-0.7,0-1.1,0.1c0-0.1,0-0.2,0-0.3c0-0.1,0.1-0.2,0.2-0.2
				c0.5-0.1,0.8-0.1,1-0.2c0.2-0.1,0.3-0.3,0.3-0.5v-8.3h-1.6c-0.3,0-0.6,0-0.8,0.1c-0.2,0.1-0.4,0.2-0.6,0.3s-0.3,0.3-0.4,0.5
				c-0.1,0.2-0.2,0.4-0.4,0.7c0,0.1-0.1,0.1-0.1,0.1s-0.1,0-0.1,0c-0.1,0-0.2,0-0.3-0.1c0.1-0.4,0.2-0.7,0.2-1
				c0.1-0.3,0.1-0.5,0.1-0.7c0-0.2,0.1-0.3,0.1-0.4c0-0.1,0.1-0.2,0.2-0.2c0.1,0,0.2,0,0.3,0c0.1,0,0.3,0,0.4,0c0.1,0,0.3,0,0.5,0
				s0.3,0,0.4,0h5.2c0.1,0,0.3,0,0.4,0s0.3,0,0.5,0c0.2,0,0.3,0,0.4,0c0.1,0,0.2,0,0.3,0c0.1,0,0.2,0.1,0.2,0.2
				c0,0.1,0.1,0.3,0.1,0.5s0.1,0.4,0.1,0.7c0,0.3,0.1,0.6,0.2,1c-0.1,0-0.1,0-0.1,0.1s-0.1,0-0.2,0c0,0-0.1,0-0.1,0
				s-0.1-0.1-0.1-0.1c-0.1-0.3-0.2-0.5-0.3-0.7c-0.1-0.2-0.2-0.4-0.4-0.5s-0.3-0.2-0.5-0.3c-0.2-0.1-0.5-0.1-0.8-0.1H95.3z"/>
			<path class="st0" d="M107.3,144.7h-1.1v3.4c0,0.2,0.1,0.4,0.3,0.5c0.2,0.1,0.5,0.1,1,0.2c0.1,0,0.2,0.1,0.2,0.3
				c0,0.1,0,0.2,0,0.3c-0.3,0-0.6,0-1-0.1c-0.4,0-0.8,0-1.2,0c-0.3,0-0.6,0-0.9,0s-0.7,0-1,0.1c0-0.1,0-0.2,0-0.2
				c0-0.1,0.1-0.2,0.2-0.2c0.4-0.1,0.7-0.1,0.8-0.2c0.2-0.1,0.2-0.2,0.2-0.4v-7.9c0-0.2-0.1-0.3-0.2-0.4c-0.2-0.1-0.4-0.2-0.9-0.2
				c-0.1,0-0.2-0.1-0.2-0.3c0-0.1,0-0.1,0-0.2c0.3,0,0.6,0,1,0.1s0.6,0,0.9,0h2.1c1.1,0,2,0.2,2.5,0.7c0.6,0.5,0.9,1.2,0.9,2
				c0,0.2,0,0.5-0.1,0.7c-0.1,0.2-0.2,0.5-0.4,0.7c-0.2,0.2-0.4,0.5-0.6,0.7c-0.3,0.2-0.6,0.4-0.9,0.5l2.6,3.6
				c0.2,0.3,0.4,0.5,0.7,0.6s0.5,0.2,0.7,0.2c0.1,0,0.1,0.1,0.1,0.2c0,0.1,0,0.2,0,0.3c-0.2,0-0.5,0-0.9-0.1c-0.3,0-0.7,0-0.9,0
				c-0.2,0-0.4-0.1-0.7-0.3c-0.2-0.2-0.4-0.4-0.6-0.7L107.3,144.7z M106.9,144.1c0.7,0,1.3-0.2,1.7-0.5c0.4-0.3,0.6-0.8,0.6-1.6
				c0-0.3,0-0.6-0.1-0.9c-0.1-0.3-0.2-0.5-0.4-0.7c-0.2-0.2-0.4-0.4-0.7-0.5c-0.3-0.1-0.7-0.2-1.1-0.2h-0.8v4.3H106.9z"/>
			<path class="st0" d="M122.5,145.5h-3.5l-1,2.5c-0.1,0.1-0.1,0.2-0.1,0.3c0,0.2,0.3,0.4,0.9,0.5c0.1,0,0.1,0,0.1,0.1
				c0,0,0,0.1,0,0.2c0,0.1,0,0.1,0,0.2c-0.3,0-0.6,0-0.9-0.1s-0.6,0-0.9,0c-0.2,0-0.4,0-0.6,0c-0.2,0-0.4,0-0.7,0.1
				c0-0.1,0-0.2,0-0.2c0-0.1,0-0.1,0-0.2s0.1-0.1,0.2-0.1c0.3-0.1,0.6-0.1,0.7-0.2c0.2-0.1,0.3-0.2,0.3-0.4l3.7-9
				c0.1-0.2,0.2-0.3,0.3-0.3c0,0,0.1,0,0.2,0l3.8,9.3c0.1,0.1,0.2,0.3,0.4,0.3c0.2,0.1,0.4,0.1,0.6,0.2c0.1,0,0.1,0,0.1,0.1
				s0.1,0.1,0.1,0.2c0,0.1,0,0.1,0,0.2c-0.3,0-0.7,0-1-0.1c-0.3,0-0.6,0-0.9,0c-0.3,0-0.6,0-1,0s-0.7,0-1,0.1c0-0.1,0-0.2,0-0.2
				c0-0.1,0-0.2,0.1-0.2s0.1-0.1,0.1-0.1c0.3-0.1,0.5-0.1,0.7-0.2s0.2-0.2,0.2-0.3c0-0.1,0-0.1-0.1-0.2L122.5,145.5z M122.3,144.9
				l-1.4-3.8l-1.5,3.8H122.3z"/>
			<path class="st0" d="M140.7,144.2c0,0.6-0.1,1.2-0.3,1.8c-0.2,0.6-0.5,1.1-1,1.6c-0.4,0.5-1,0.9-1.6,1.2
				c-0.7,0.3-1.4,0.4-2.3,0.4h-3.2c-0.3,0-0.6,0-0.9,0c-0.3,0-0.7,0-1,0.1c0-0.1,0-0.2,0-0.2c0-0.1,0.1-0.2,0.2-0.2
				c0.4-0.1,0.7-0.2,0.8-0.3s0.2-0.2,0.2-0.4v-7.9c0-0.2-0.1-0.4-0.2-0.4s-0.4-0.2-0.8-0.2c-0.1,0-0.1,0-0.1-0.1c0-0.1,0-0.1,0-0.2
				c0-0.1,0-0.1,0-0.2c0.2,0,0.4,0,0.6,0c0.2,0,0.3,0,0.5,0s0.3,0,0.4,0s0.3,0,0.4,0h3.2c0.9,0,1.6,0.1,2.3,0.4
				c0.7,0.3,1.2,0.6,1.6,1.1c0.4,0.5,0.8,1,1,1.6C140.6,142.8,140.7,143.5,140.7,144.2z M139,144.5c0-1.6-0.4-2.8-1.2-3.5
				c-0.8-0.8-1.9-1.2-3.5-1.2H133v8.3c0,0.1,0,0.2,0.1,0.3s0.1,0.1,0.3,0.2c0.1,0,0.3,0.1,0.5,0.1s0.5,0,0.8,0c0.8,0,1.5-0.1,2-0.3
				c0.5-0.2,1-0.5,1.3-0.8c0.3-0.4,0.6-0.8,0.7-1.3C139,145.7,139,145.1,139,144.5z"/>
			<path class="st0" d="M147.9,139.8v4h2.4c0.2,0,0.4-0.1,0.4-0.3c0.1-0.2,0.2-0.4,0.2-0.7c0-0.1,0.1-0.2,0.3-0.2c0,0,0.1,0,0.1,0
				c0.1,0,0.1,0,0.1,0c0,0.2,0,0.5-0.1,0.8c0,0.3,0,0.5,0,0.8c0,0.2,0,0.4,0,0.6c0,0.3,0,0.5,0.1,0.9c-0.1,0-0.2,0-0.2,0
				c-0.2,0-0.3-0.1-0.3-0.2c-0.1-0.3-0.1-0.5-0.2-0.7c-0.1-0.2-0.2-0.3-0.4-0.3h-2.4v3.7c0,0.2,0.1,0.4,0.4,0.4s0.7,0.1,1.4,0.1h0.9
				c0.3,0,0.6,0,0.8-0.1c0.2-0.1,0.4-0.2,0.6-0.4c0.2-0.2,0.3-0.3,0.5-0.5s0.3-0.4,0.4-0.7c0-0.1,0.1-0.1,0.2-0.1c0.1,0,0.1,0,0.2,0
				c0.1,0,0.1,0.1,0.2,0.1c-0.1,0.2-0.2,0.4-0.2,0.7c-0.1,0.3-0.1,0.5-0.2,0.8s-0.1,0.5-0.2,0.6c-0.1,0.2-0.2,0.3-0.3,0.3
				c-0.1,0-0.2,0-0.4,0c-0.2,0-0.3,0-0.5,0c-0.2,0-0.4,0-0.6,0c-0.2,0-0.3,0-0.5,0h-3.4c-0.3,0-0.6,0-1,0s-0.7,0-1,0.1
				c0-0.1,0-0.2,0-0.2c0-0.1,0.1-0.2,0.2-0.2c0.4-0.1,0.7-0.2,0.8-0.2c0.2-0.1,0.3-0.2,0.3-0.4v-7.9c0-0.2-0.1-0.3-0.2-0.4
				c-0.2-0.1-0.4-0.2-0.9-0.2c-0.1,0-0.2-0.1-0.2-0.3c0-0.1,0-0.1,0-0.1c0,0,0-0.1,0-0.1c0.4,0,0.8,0.1,1.1,0.1c0.3,0,0.6,0,0.8,0
				h3.1c0.5,0,0.9,0,1.2,0c0.3,0,0.6,0,0.7,0c0.1,0,0.2,0.1,0.3,0.3c0,0.2,0.1,0.4,0.1,0.6c0,0.2,0.1,0.5,0.1,0.8
				c0,0.3,0.1,0.5,0.2,0.7c-0.1,0.1-0.2,0.1-0.3,0.1c-0.1,0-0.2,0-0.3-0.1c-0.1-0.3-0.2-0.5-0.4-0.7c-0.1-0.2-0.2-0.3-0.4-0.5
				c-0.1-0.1-0.3-0.2-0.5-0.3c-0.2-0.1-0.5-0.1-0.8-0.1H147.9z"/>
			<path class="st0" d="M167.2,139.4c0,0,0-0.1,0.1-0.1c0,0,0.1-0.1,0.1-0.1c0.1,0,0.1,0,0.2-0.1c0.1,0,0.2,0,0.4,0
				c0.1,0,0.2,0,0.3,0c0.1,0,0.3,0,0.4,0c0.2,0,0.3,0,0.5,0c0.2,0,0.3,0,0.4,0c0,0.1,0,0.2,0,0.2c0,0.2-0.1,0.3-0.2,0.3
				c-0.4,0.1-0.6,0.1-0.7,0.2c-0.1,0.1-0.2,0.2-0.2,0.3c0,0,0,0.1,0,0.4c0,0.3,0,0.7,0.1,1.3c0,0.6,0.1,1.4,0.1,2.5
				c0,1,0.1,2.3,0.2,3.8c0,0.2,0.1,0.3,0.2,0.4c0.1,0.1,0.4,0.2,0.8,0.2c0.1,0,0.1,0,0.1,0.1c0,0,0,0.1,0,0.2c0,0.1,0,0.1,0,0.2
				c-0.4,0-0.7,0-1-0.1s-0.6,0-0.8,0c-0.1,0-0.2,0-0.4,0c-0.2,0-0.3,0-0.5,0c-0.2,0-0.3,0-0.5,0c-0.2,0-0.3,0-0.4,0
				c0-0.1,0-0.2,0-0.2c0-0.2,0.1-0.2,0.2-0.2c0.4-0.1,0.7-0.2,0.8-0.2c0.1-0.1,0.2-0.2,0.2-0.4c0,0,0-0.2,0-0.6s0-0.8-0.1-1.3
				c0-0.5-0.1-1.1-0.1-1.6c0-0.6-0.1-1.1-0.1-1.7s0-1-0.1-1.4c0-0.4,0-0.6,0-0.7l-3.4,8.2c0,0.1-0.1,0.2-0.1,0.2
				c0,0-0.1,0.1-0.1,0.1c-0.1,0-0.1,0-0.1,0l-3.8-8.7c0,0.1,0,0.4,0,0.8s0,0.9-0.1,1.4c0,0.5-0.1,1.1-0.1,1.7c0,0.6-0.1,1.2-0.1,1.7
				s0,1-0.1,1.3s0,0.5,0,0.6c0,0.3,0.4,0.5,1.1,0.7c0.1,0,0.2,0.1,0.2,0.2c0,0.1,0,0.1,0,0.2c-0.3,0-0.6,0-0.8-0.1s-0.5,0-0.7,0
				c-0.2,0-0.4,0-0.7,0s-0.5,0-0.8,0.1c0-0.1,0-0.2,0-0.2c0-0.1,0.1-0.2,0.2-0.2c0.3-0.1,0.5-0.1,0.7-0.2c0.2-0.1,0.3-0.2,0.3-0.4
				c0-0.1,0-0.4,0-0.8c0-0.4,0-0.9,0.1-1.5c0-0.6,0.1-1.2,0.1-1.9s0.1-1.3,0.1-1.8c0-0.6,0-1,0.1-1.4c0-0.4,0-0.6,0-0.6
				c0-0.2-0.1-0.3-0.2-0.4c-0.1-0.1-0.4-0.1-0.7-0.2c-0.1,0-0.2-0.1-0.2-0.3c0-0.1,0-0.1,0-0.2c0.1,0,0.3,0,0.5,0c0.2,0,0.3,0,0.5,0
				c0.2,0,0.3,0,0.5,0c0.2,0,0.3,0,0.4,0c0.2,0,0.3,0,0.4,0s0.2,0,0.2,0.1c0.1,0,0.1,0.1,0.1,0.1c0,0,0,0.1,0.1,0.1l3.3,7.7
				L167.2,139.4z"/>
			<path class="st0" d="M180.7,145.5h-3.5l-1,2.5c-0.1,0.1-0.1,0.2-0.1,0.3c0,0.2,0.3,0.4,0.9,0.5c0.1,0,0.1,0,0.1,0.1
				c0,0,0,0.1,0,0.2c0,0.1,0,0.1,0,0.2c-0.3,0-0.6,0-0.9-0.1s-0.6,0-0.9,0c-0.2,0-0.4,0-0.6,0c-0.2,0-0.4,0-0.7,0.1
				c0-0.1,0-0.2,0-0.2c0-0.1,0-0.1,0-0.2c0-0.1,0.1-0.1,0.2-0.1c0.3-0.1,0.6-0.1,0.7-0.2c0.2-0.1,0.3-0.2,0.3-0.4l3.7-9
				c0.1-0.2,0.2-0.3,0.3-0.3c0,0,0.1,0,0.2,0l3.8,9.3c0.1,0.1,0.2,0.3,0.4,0.3c0.2,0.1,0.4,0.1,0.6,0.2c0.1,0,0.1,0,0.1,0.1
				c0,0,0.1,0.1,0.1,0.2c0,0.1,0,0.1,0,0.2c-0.3,0-0.7,0-1-0.1c-0.3,0-0.6,0-0.9,0c-0.3,0-0.6,0-1,0c-0.4,0-0.7,0-1,0.1
				c0-0.1,0-0.2,0-0.2c0-0.1,0-0.2,0.1-0.2c0,0,0.1-0.1,0.1-0.1c0.3-0.1,0.5-0.1,0.7-0.2s0.2-0.2,0.2-0.3c0-0.1,0-0.1-0.1-0.2
				L180.7,145.5z M180.4,144.9l-1.4-3.8l-1.5,3.8H180.4z"/>
			<path class="st0" d="M192.4,144.7h-1.1v3.4c0,0.2,0.1,0.4,0.3,0.5c0.2,0.1,0.5,0.1,1,0.2c0.1,0,0.2,0.1,0.2,0.3
				c0,0.1,0,0.2,0,0.3c-0.3,0-0.6,0-1-0.1s-0.8,0-1.2,0c-0.3,0-0.6,0-0.9,0s-0.7,0-1,0.1c0-0.1,0-0.2,0-0.2c0-0.1,0.1-0.2,0.2-0.2
				c0.4-0.1,0.7-0.1,0.8-0.2c0.2-0.1,0.2-0.2,0.2-0.4v-7.9c0-0.2-0.1-0.3-0.2-0.4c-0.2-0.1-0.4-0.2-0.9-0.2c-0.1,0-0.2-0.1-0.2-0.3
				c0-0.1,0-0.1,0-0.2c0.3,0,0.6,0,1,0.1c0.3,0,0.6,0,0.9,0h2.1c1.1,0,2,0.2,2.5,0.7c0.6,0.5,0.9,1.2,0.9,2c0,0.2,0,0.5-0.1,0.7
				c-0.1,0.2-0.2,0.5-0.4,0.7c-0.2,0.2-0.4,0.5-0.6,0.7c-0.3,0.2-0.6,0.4-0.9,0.5l2.6,3.6c0.2,0.3,0.4,0.5,0.7,0.6
				c0.2,0.1,0.5,0.2,0.7,0.2c0.1,0,0.1,0.1,0.1,0.2c0,0.1,0,0.2,0,0.3c-0.2,0-0.5,0-0.9-0.1c-0.3,0-0.7,0-0.9,0
				c-0.2,0-0.4-0.1-0.7-0.3c-0.2-0.2-0.4-0.4-0.6-0.7L192.4,144.7z M192.1,144.1c0.7,0,1.3-0.2,1.7-0.5c0.4-0.3,0.6-0.8,0.6-1.6
				c0-0.3,0-0.6-0.1-0.9c-0.1-0.3-0.2-0.5-0.4-0.7c-0.2-0.2-0.4-0.4-0.7-0.5c-0.3-0.1-0.7-0.2-1.1-0.2h-0.8v4.3H192.1z"/>
			<path class="st0" d="M204.3,144.2v3.9c0,0.2,0.1,0.4,0.2,0.4c0.1,0.1,0.4,0.2,0.7,0.2c0.1,0,0.1,0,0.1,0.1c0,0,0,0.1,0,0.2
				c0,0.1,0,0.2,0,0.3c-0.3,0-0.6,0-0.9-0.1c-0.3,0-0.6,0-0.8,0c-0.3,0-0.6,0-0.9,0c-0.3,0-0.7,0-1,0.1c0-0.1,0-0.2,0-0.2
				c0-0.1,0.1-0.2,0.2-0.2c0.4-0.1,0.7-0.2,0.8-0.2c0.1-0.1,0.2-0.2,0.2-0.4v-7.9c0-0.2-0.1-0.4-0.2-0.4c-0.1-0.1-0.4-0.2-0.8-0.2
				c-0.1,0-0.2-0.1-0.2-0.3c0-0.1,0-0.1,0-0.2c0.3,0,0.6,0,1,0.1s0.6,0,0.9,0c0.3,0,0.6,0,0.9,0c0.3,0,0.7,0,1-0.1
				c0,0.1,0,0.2,0,0.2c0,0.2-0.1,0.2-0.2,0.3c-0.4,0.1-0.7,0.1-0.8,0.2s-0.2,0.2-0.2,0.4v3.8l3.6-3.6c0.1-0.1,0.1-0.1,0.2-0.2
				c0-0.1,0.1-0.2,0.1-0.2c0-0.1-0.1-0.2-0.2-0.3s-0.3-0.1-0.5-0.1c-0.1,0-0.2-0.1-0.2-0.3c0-0.1,0-0.1,0-0.2c0.3,0,0.6,0,0.9,0.1
				c0.3,0,0.6,0,0.8,0c0.2,0,0.5,0,0.7,0c0.3,0,0.5,0,0.7-0.1c0,0.1,0,0.2,0,0.2c0,0.2-0.1,0.3-0.2,0.3c-0.2,0-0.4,0.1-0.6,0.2
				c-0.2,0.1-0.4,0.2-0.6,0.4l-3.5,3.4l4.2,4.6c0.2,0.2,0.4,0.3,0.5,0.4c0.2,0.1,0.4,0.1,0.6,0.2c0.1,0,0.2,0.1,0.2,0.3
				c0,0.1,0,0.2,0,0.3c-0.3,0-0.7,0-1.1-0.1s-0.7,0-1,0c-0.3,0-0.6,0-0.9,0s-0.7,0-1,0.1c0-0.1,0-0.2,0-0.2c0-0.2,0.1-0.2,0.2-0.2
				c0.5,0,0.7-0.2,0.7-0.4c0-0.1-0.1-0.2-0.2-0.3L204.3,144.2z"/>
		</g>
		<g>
			<g>
				<g>
					<path class="st0" d="M71.8,157.1l-13.2-13.2l13.2-13.2L85,143.9L71.8,157.1z M61.3,143.9l10.5,10.5l10.5-10.5l-10.5-10.5
						L61.3,143.9z"/>
				</g>
				<g>
					<g>
						<path class="st0" d="M65.9,140.4c0,0,0.1,0,0.2,0c0.1,0,0.2,0,0.4,0c0.2,0,0.3,0,0.5,0c0.2,0,0.4,0,0.6,0c0.2,0,0.4,0,0.6,0
							c0.2,0,0.4,0,0.5,0c0.2,0,0.3,0,0.4,0c0.1,0,0.2,0,0.2,0c0,0,0,0.1,0,0.1c0,0.1,0,0.1,0,0.1c0,0.1-0.1,0.2-0.2,0.2
							c-0.3,0-0.5,0.1-0.6,0.2s-0.2,0.2-0.2,0.4v5.2c0,0.2,0.1,0.3,0.3,0.4c0.2,0.1,0.4,0.2,0.7,0.2c0.1,0,0.2,0.1,0.2,0.2
							c0,0,0,0.1,0,0.1s0,0.1,0,0.1c0,0-0.1,0-0.2,0c-0.1,0-0.3,0-0.4,0c-0.2,0-0.4,0-0.6,0c-0.2,0-0.4,0-0.6,0c-0.2,0-0.4,0-0.6,0
							c-0.2,0-0.4,0-0.5,0c-0.2,0-0.3,0-0.4,0c-0.1,0-0.2,0-0.2,0c0,0,0,0,0-0.1s0-0.1,0-0.1c0-0.1,0.1-0.2,0.2-0.2
							c0.3-0.1,0.5-0.1,0.7-0.2c0.2-0.1,0.3-0.2,0.3-0.4v-5.2c0-0.2-0.1-0.3-0.3-0.4c-0.2-0.1-0.4-0.2-0.6-0.2
							c-0.1,0-0.2-0.1-0.2-0.2c0,0,0-0.1,0-0.1S65.9,140.4,65.9,140.4z"/>
						<path class="st0" d="M75.7,142.2c0.7,0.5,1.2,0.9,1.5,1.3s0.5,0.9,0.5,1.4c0,0.5-0.1,0.9-0.3,1.2s-0.4,0.6-0.7,0.9
							s-0.6,0.4-1,0.5s-0.8,0.2-1.1,0.2c-0.4,0-0.8,0-1.2-0.1c-0.4-0.1-0.7-0.2-0.9-0.5c-0.3-0.2-0.5-0.5-0.6-0.8
							c-0.1-0.3-0.2-0.7-0.2-1.1c0-0.6,0.2-1.1,0.6-1.5s0.9-0.8,1.5-1.2c-0.4-0.2-0.6-0.4-0.9-0.6c-0.2-0.2-0.4-0.4-0.6-0.6
							S72,141,72,140.8s-0.1-0.4-0.1-0.6c0-0.3,0.1-0.6,0.2-0.9c0.1-0.3,0.3-0.5,0.5-0.8s0.5-0.4,0.8-0.6c0.3-0.1,0.8-0.2,1.2-0.2
							c0.4,0,0.8,0.1,1.2,0.2c0.3,0.1,0.6,0.3,0.8,0.4c0.2,0.2,0.4,0.4,0.5,0.7c0.1,0.3,0.2,0.5,0.2,0.8c0,0.5-0.2,1-0.5,1.4
							C76.5,141.6,76.1,142,75.7,142.2z M74.1,143c-0.4,0.3-0.7,0.6-0.9,1c-0.2,0.4-0.3,0.8-0.3,1.2c0,0.7,0.2,1.2,0.5,1.6
							c0.3,0.3,0.7,0.5,1.2,0.5c0.2,0,0.4,0,0.6-0.1c0.2-0.1,0.4-0.2,0.5-0.4c0.2-0.2,0.3-0.3,0.4-0.6c0.1-0.2,0.1-0.4,0.1-0.7
							c0-0.2,0-0.3,0-0.5c0-0.1-0.1-0.3-0.2-0.4c-0.1-0.1-0.2-0.3-0.3-0.4c-0.2-0.1-0.3-0.3-0.6-0.5L74.1,143z M75.3,142
							c0.3-0.3,0.5-0.6,0.6-0.9c0.2-0.3,0.3-0.6,0.3-1c0-0.5-0.2-0.9-0.5-1.2c-0.3-0.3-0.7-0.4-1.1-0.4c-0.4,0-0.7,0.1-1,0.4
							s-0.4,0.6-0.4,1c0,0.3,0.1,0.5,0.2,0.8c0.2,0.2,0.5,0.5,0.9,0.8L75.3,142z"/>
					</g>
				</g>
			</g>
			<g>
				<g>
					<path class="st0" d="M233.5,157.1l-13.2-13.2l13.2-13.2l13.2,13.2L233.5,157.1z M223.1,143.9l10.5,10.5l10.5-10.5l-10.5-10.5
						L223.1,143.9z"/>
				</g>
				<g>
					<g>
						<path class="st0" d="M227.9,141.6c-0.2,0-0.4,0.1-0.5,0.2c-0.1,0.1-0.3,0.3-0.4,0.6c-0.1,0.1-0.2,0.2-0.3,0.2
							c-0.1,0-0.2,0-0.3,0c0.1-0.2,0.1-0.4,0.2-0.6c0.1-0.2,0.1-0.3,0.1-0.5c0-0.1,0.1-0.3,0.1-0.4c0-0.1,0.1-0.3,0.1-0.4
							c0-0.1,0-0.1,0.1-0.2c0,0,0.1,0,0.2,0c0.2,0,0.4,0,0.7,0c0.3,0,0.6,0,0.9,0h3.6v0.4c-0.6,1.2-1.1,2.2-1.5,3.1
							s-0.7,1.7-0.9,2.4c-0.2,0.7-0.3,1.3-0.4,1.9c-0.1,0.6-0.1,1.2-0.2,1.7c0,0.1,0,0.2-0.1,0.2c-0.1,0.1-0.2,0.1-0.2,0.2
							s-0.2,0.1-0.3,0.1c-0.1,0-0.2,0-0.4,0c-0.1,0-0.3,0-0.3,0c-0.1,0-0.1-0.1-0.1-0.2c0-0.1,0-0.1,0-0.2s0-0.1,0-0.2
							c0.1-0.5,0.2-1,0.3-1.6c0.2-0.5,0.4-1.1,0.6-1.8s0.6-1.4,1-2.2c0.4-0.8,0.9-1.7,1.5-2.7H227.9z"/>
						<path class="st0" d="M238.1,142.2c0.7,0.5,1.2,0.9,1.5,1.3c0.4,0.4,0.5,0.9,0.5,1.4c0,0.5-0.1,0.9-0.3,1.2s-0.4,0.6-0.7,0.9
							s-0.6,0.4-1,0.5s-0.8,0.2-1.1,0.2c-0.4,0-0.8,0-1.2-0.1c-0.4-0.1-0.7-0.2-0.9-0.5c-0.3-0.2-0.5-0.5-0.6-0.8
							c-0.1-0.3-0.2-0.7-0.2-1.1c0-0.6,0.2-1.1,0.6-1.5s0.9-0.8,1.5-1.2c-0.4-0.2-0.6-0.4-0.9-0.6c-0.2-0.2-0.4-0.4-0.6-0.6
							c-0.1-0.2-0.2-0.4-0.3-0.6c-0.1-0.2-0.1-0.4-0.1-0.6c0-0.3,0.1-0.6,0.2-0.9c0.1-0.3,0.3-0.5,0.5-0.8s0.5-0.4,0.8-0.6
							c0.3-0.1,0.8-0.2,1.2-0.2c0.4,0,0.8,0.1,1.2,0.2c0.3,0.1,0.6,0.3,0.8,0.4c0.2,0.2,0.4,0.4,0.5,0.7c0.1,0.3,0.2,0.5,0.2,0.8
							c0,0.5-0.2,1-0.5,1.4C238.9,141.6,238.5,142,238.1,142.2z M236.5,143c-0.4,0.3-0.7,0.6-0.9,1c-0.2,0.4-0.3,0.8-0.3,1.2
							c0,0.7,0.2,1.2,0.5,1.6c0.3,0.3,0.7,0.5,1.2,0.5c0.2,0,0.4,0,0.6-0.1c0.2-0.1,0.4-0.2,0.5-0.4c0.2-0.2,0.3-0.3,0.4-0.6
							c0.1-0.2,0.1-0.4,0.1-0.7c0-0.2,0-0.3,0-0.5c0-0.1-0.1-0.3-0.2-0.4c-0.1-0.1-0.2-0.3-0.3-0.4c-0.2-0.1-0.3-0.3-0.6-0.5
							L236.5,143z M237.7,142c0.3-0.3,0.5-0.6,0.6-0.9c0.2-0.3,0.3-0.6,0.3-1c0-0.5-0.2-0.9-0.4-1.2c-0.3-0.3-0.7-0.4-1.1-0.4
							c-0.4,0-0.7,0.1-1,0.4s-0.4,0.6-0.4,1c0,0.3,0.1,0.5,0.2,0.8c0.2,0.2,0.5,0.5,0.9,0.8L237.7,142z"/>
					</g>
				</g>
			</g>
		</g>
	</g>
</g>
</svg>
