<?xml version="1.0" encoding="utf-8"?>
<!-- Generator: Adobe Illustrator 19.1.0, SVG Export Plug-In . SVG Version: 6.00 Build 0)  -->
<svg version="1.1" id="Layer_1" xmlns="http://www.w3.org/2000/svg" xmlns:xlink="http://www.w3.org/1999/xlink" x="0px" y="0px"
	 viewBox="0 0 300 200" style="enable-background:new 0 0 300 200;" xml:space="preserve">
<style type="text/css">
	.st0{fill:#303030;}
	.st1{fill:none;stroke:#303030;stroke-width:2;stroke-miterlimit:10;}
</style>
<g>
	<g>
		<path class="st0" d="M89.2,52l5.4,10.3c0.2,0.3,0.4,0.4,0.7,0.4c0.3,0,0.8-0.1,1.4-0.4c0.1-0.1,0.3,0,0.4,0.2
			c0,0.1,0.1,0.2,0.1,0.3c-0.4,0.2-0.9,0.4-1.3,0.6s-0.9,0.5-1.4,0.7c-0.5,0.2-0.9,0.5-1.4,0.8c-0.5,0.3-0.9,0.5-1.3,0.8
			c-0.1-0.1-0.2-0.2-0.2-0.3c-0.1-0.2-0.1-0.3,0-0.4c0.5-0.4,0.9-0.7,1.1-0.9c0.2-0.3,0.2-0.5,0.1-0.8l-5.4-10.3l-2,1
			c-0.4,0.2-0.7,0.4-0.9,0.6c-0.2,0.2-0.4,0.5-0.5,0.7c-0.1,0.3-0.2,0.5-0.2,0.9s0,0.7,0,1.1c0,0.1,0,0.1-0.1,0.2
			c0,0.1-0.1,0.1-0.1,0.1c-0.1,0.1-0.3,0.1-0.4,0.1c-0.1-0.5-0.2-1-0.4-1.4s-0.2-0.7-0.3-1c-0.1-0.3-0.1-0.5-0.1-0.6
			c0-0.2,0-0.3,0.2-0.3c0.1,0,0.2-0.1,0.4-0.2s0.4-0.2,0.6-0.2c0.2-0.1,0.4-0.2,0.6-0.3c0.2-0.1,0.4-0.2,0.5-0.3l6.4-3.4
			c0.2-0.1,0.3-0.2,0.5-0.3s0.4-0.2,0.6-0.3c0.2-0.1,0.4-0.2,0.5-0.3c0.2-0.1,0.3-0.2,0.4-0.2c0.1-0.1,0.3,0,0.4,0.1
			s0.3,0.3,0.5,0.5c0.2,0.2,0.4,0.5,0.6,0.8c0.2,0.3,0.6,0.7,0.9,1c-0.1,0.1-0.1,0.1-0.1,0.2c0,0.1-0.1,0.1-0.2,0.1
			c-0.1,0-0.1,0-0.2,0.1c-0.1,0-0.1,0-0.2-0.1c-0.3-0.2-0.6-0.5-0.9-0.6c-0.3-0.2-0.5-0.3-0.8-0.3s-0.6-0.1-0.9,0
			c-0.3,0.1-0.6,0.2-1,0.4L89.2,52z"/>
		<path class="st0" d="M104,52.8l-1.5,0.6l1.7,4.5c0.1,0.3,0.3,0.4,0.7,0.4s0.8-0.1,1.4-0.2c0.2,0,0.3,0,0.4,0.2
			c0,0.1,0.1,0.2,0.1,0.4c-0.4,0.1-0.8,0.3-1.4,0.4c-0.5,0.2-1,0.4-1.5,0.6c-0.4,0.1-0.8,0.3-1.2,0.5s-0.9,0.4-1.3,0.6
			c-0.1-0.1-0.1-0.2-0.2-0.3c-0.1-0.2,0-0.3,0.1-0.4c0.5-0.3,0.8-0.5,1-0.7c0.2-0.2,0.2-0.4,0.1-0.7l-4-10.3
			c-0.1-0.3-0.3-0.4-0.5-0.5c-0.2-0.1-0.7,0-1.3,0.2c-0.1,0-0.3,0-0.3-0.3c0-0.1-0.1-0.2-0.1-0.3c0.4-0.1,0.8-0.3,1.3-0.4
			c0.4-0.1,0.9-0.3,1.2-0.5l2.7-1.1c1.5-0.6,2.7-0.7,3.7-0.3c1,0.4,1.7,1.1,2.1,2.2c0.1,0.3,0.2,0.6,0.2,1c0,0.4,0,0.7-0.1,1.1
			c-0.1,0.4-0.2,0.8-0.5,1.2c-0.2,0.4-0.5,0.8-0.9,1.1l5.2,3.4c0.4,0.3,0.8,0.4,1.1,0.4c0.4,0,0.7,0,1,0c0.1,0,0.2,0.1,0.3,0.2
			c0,0.1,0.1,0.2,0.1,0.4c-0.3,0.1-0.7,0.2-1.2,0.4s-0.9,0.3-1.2,0.5c-0.3,0.1-0.6,0.1-1,0s-0.8-0.3-1.2-0.6L104,52.8z M103.2,52.1
			c0.9-0.4,1.6-0.9,2-1.5c0.4-0.6,0.3-1.4,0-2.4c-0.2-0.4-0.4-0.8-0.6-1.1c-0.2-0.3-0.5-0.5-0.9-0.7c-0.3-0.2-0.7-0.2-1.2-0.2
			c-0.4,0-0.9,0.1-1.5,0.3l-1,0.4l2.2,5.6L103.2,52.1z"/>
		<path class="st0" d="M120.8,48.6l-4.7,1.2l-0.5,3.7c0,0.2,0,0.3,0,0.4c0.1,0.3,0.6,0.4,1.5,0.3c0.1,0,0.2,0,0.2,0.1
			c0.1,0.1,0.1,0.1,0.1,0.2c0,0.1,0,0.2,0,0.3c-0.4,0.1-0.8,0.2-1.2,0.2s-0.8,0.2-1.3,0.3c-0.3,0.1-0.6,0.2-0.9,0.2
			c-0.3,0.1-0.6,0.2-0.9,0.3c-0.1-0.1-0.1-0.2-0.1-0.3c0-0.1,0-0.2,0-0.3c0-0.1,0.1-0.1,0.2-0.2c0.4-0.2,0.7-0.4,0.9-0.5
			c0.2-0.2,0.3-0.4,0.3-0.6l1.9-13.6c0-0.3,0.1-0.4,0.3-0.5c0.1,0,0.1,0,0.3,0l8.4,11.3c0.1,0.2,0.4,0.3,0.7,0.3c0.3,0,0.6,0,0.9,0
			c0.1,0,0.2,0,0.2,0.1c0.1,0,0.1,0.1,0.1,0.2c0,0.1,0,0.2,0,0.3c-0.5,0.1-0.9,0.2-1.3,0.3c-0.4,0.1-0.9,0.2-1.2,0.3
			c-0.4,0.1-0.8,0.2-1.3,0.4s-1,0.3-1.4,0.4c-0.1-0.1-0.1-0.2-0.1-0.3c0-0.1,0-0.2,0-0.3c0-0.1,0.1-0.1,0.1-0.1
			c0.3-0.2,0.6-0.3,0.8-0.5c0.2-0.1,0.3-0.3,0.2-0.5c0-0.1-0.1-0.2-0.2-0.3L120.8,48.6z M120.3,47.9l-3.3-4.7l-0.7,5.7L120.3,47.9z"
			/>
		<path class="st0" d="M141.6,43.2c0.1,0.9,0.1,1.7-0.1,2.6c-0.2,0.9-0.5,1.7-1,2.4c-0.5,0.7-1.2,1.4-2.1,1.9
			c-0.9,0.5-1.9,0.9-3.1,1l-4.4,0.6c-0.4,0-0.8,0.1-1.3,0.2c-0.5,0.1-0.9,0.2-1.4,0.3c0-0.1-0.1-0.3-0.1-0.3c0-0.2,0-0.3,0.2-0.4
			c0.5-0.2,0.9-0.4,1.1-0.5c0.2-0.1,0.3-0.3,0.3-0.6l-1.4-11c0-0.3-0.2-0.5-0.4-0.6c-0.2-0.1-0.6-0.1-1.2-0.2c-0.1,0-0.2,0-0.2-0.1
			s-0.1-0.1-0.1-0.2s0-0.2,0-0.4c0.3,0,0.6,0,0.8,0c0.2,0,0.4,0,0.6-0.1c0.2,0,0.4,0,0.6-0.1c0.2,0,0.4-0.1,0.6-0.1l4.4-0.6
			c1.2-0.2,2.3-0.1,3.3,0.1c1,0.3,1.8,0.7,2.5,1.2c0.7,0.6,1.2,1.2,1.7,2C141.2,41.4,141.5,42.3,141.6,43.2z M139.4,43.9
			c-0.3-2.2-1.1-3.8-2.3-4.7c-1.2-0.9-2.9-1.3-5-1l-1.9,0.2l1.5,11.5c0,0.1,0.1,0.3,0.2,0.4c0.1,0.1,0.2,0.2,0.4,0.2
			c0.2,0,0.4,0,0.7,0c0.3,0,0.7,0,1.2-0.1c1.1-0.1,2-0.4,2.8-0.8c0.7-0.4,1.3-0.8,1.7-1.4c0.4-0.6,0.7-1.2,0.8-1.9
			C139.5,45.6,139.5,44.8,139.4,43.9z"/>
		<path class="st0" d="M147.7,36.9l0.1,5.6l3.4-0.1c0.3,0,0.5-0.1,0.6-0.4c0.1-0.3,0.2-0.6,0.3-1c0-0.2,0.2-0.3,0.4-0.3
			c0,0,0.1,0,0.2,0c0.1,0,0.1,0,0.2,0c0,0.3,0,0.7-0.1,1.1c0,0.4,0,0.8,0,1.1c0,0.2,0,0.5,0,0.9c0,0.4,0.1,0.8,0.1,1.2
			c-0.1,0-0.2,0-0.3,0c-0.2,0-0.4-0.1-0.4-0.3c-0.1-0.4-0.2-0.7-0.3-1s-0.3-0.4-0.6-0.4l-3.4,0.1l0.1,5.1c0,0.3,0.2,0.5,0.6,0.6
			c0.4,0.1,1,0.1,1.9,0.1l1.2,0c0.4,0,0.8-0.1,1.1-0.2s0.6-0.3,0.8-0.5s0.4-0.5,0.6-0.8c0.2-0.3,0.4-0.6,0.5-1
			c0-0.1,0.2-0.2,0.3-0.2c0.1,0,0.1,0,0.2,0.1c0.1,0,0.2,0.1,0.2,0.1c-0.1,0.3-0.2,0.6-0.3,1c-0.1,0.4-0.2,0.8-0.3,1.1
			c-0.1,0.4-0.2,0.6-0.3,0.9c-0.1,0.2-0.2,0.4-0.4,0.4c-0.1,0-0.3,0-0.5,0c-0.2,0-0.5,0-0.7,0c-0.3,0-0.5,0-0.8,0
			c-0.3,0-0.5,0-0.7,0l-4.8,0.1c-0.4,0-0.9,0-1.4,0.1c-0.5,0-0.9,0.1-1.4,0.1c0-0.1,0-0.3,0-0.3c0-0.2,0.1-0.3,0.2-0.4
			c0.6-0.1,0.9-0.2,1.2-0.3s0.4-0.3,0.3-0.6l-0.2-11.1c0-0.3-0.1-0.5-0.3-0.6c-0.2-0.1-0.6-0.2-1.2-0.3c-0.1,0-0.2-0.1-0.2-0.4
			c0-0.1,0-0.1,0-0.2c0-0.1,0-0.1,0-0.2c0.6,0,1.1,0.1,1.6,0.1c0.4,0,0.8,0,1.1,0l4.3-0.1c0.7,0,1.2,0,1.7-0.1
			c0.5-0.1,0.8-0.1,1-0.1c0.2,0,0.3,0.1,0.4,0.4c0.1,0.2,0.1,0.5,0.2,0.9c0,0.3,0.1,0.7,0.2,1.1c0.1,0.4,0.2,0.7,0.3,1
			c-0.1,0.1-0.2,0.1-0.4,0.1c-0.2,0-0.3-0.1-0.4-0.2c-0.2-0.4-0.4-0.7-0.5-1s-0.4-0.5-0.6-0.7c-0.2-0.2-0.5-0.3-0.8-0.4
			c-0.3-0.1-0.7-0.1-1.1-0.1L147.7,36.9z"/>
		<path class="st0" d="M171.8,37.9c0-0.1,0.1-0.1,0.1-0.2c0-0.1,0.1-0.1,0.2-0.1c0.1,0,0.2,0,0.4,0c0.1,0,0.4,0,0.6,0
			c0.1,0,0.3,0,0.5,0c0.2,0,0.4,0,0.6,0c0.2,0,0.4,0,0.7,0c0.2,0,0.4,0,0.6,0c0,0.1,0,0.3,0,0.4c0,0.2-0.1,0.3-0.3,0.3
			c-0.5,0-0.9,0.1-1.1,0.2s-0.3,0.3-0.3,0.5c0,0,0,0.2,0,0.6c0,0.4-0.1,1-0.1,1.9s-0.1,2-0.2,3.5c-0.1,1.4-0.2,3.2-0.4,5.4
			c0,0.3,0.1,0.5,0.2,0.6s0.5,0.3,1,0.4c0.1,0,0.1,0.1,0.1,0.1c0,0.1,0,0.1,0,0.2c0,0.1,0,0.2-0.1,0.3c-0.5-0.1-1-0.2-1.4-0.2
			s-0.8-0.1-1.1-0.2c-0.1,0-0.3,0-0.5-0.1c-0.2,0-0.4,0-0.7-0.1c-0.2,0-0.5,0-0.7,0s-0.4,0-0.6,0c0-0.1,0-0.3,0-0.4
			c0-0.2,0.1-0.3,0.3-0.3c0.6,0,1-0.1,1.2-0.2c0.2-0.1,0.3-0.3,0.4-0.5c0,0,0-0.3,0.1-0.8c0-0.5,0.1-1.1,0.1-1.8
			c0-0.7,0.1-1.5,0.2-2.3c0.1-0.8,0.1-1.6,0.2-2.3s0.1-1.4,0.1-1.9c0-0.5,0.1-0.9,0.1-1l-6.1,10.9c-0.1,0.1-0.1,0.2-0.2,0.3
			s-0.1,0.1-0.2,0.1c-0.1,0-0.2,0-0.2,0l-3.9-12.8c0,0.1-0.1,0.5-0.2,1c-0.1,0.6-0.2,1.2-0.3,2c-0.1,0.8-0.3,1.6-0.4,2.4
			c-0.1,0.8-0.3,1.6-0.4,2.3c-0.1,0.7-0.2,1.3-0.3,1.8c-0.1,0.5-0.1,0.7-0.1,0.8c-0.1,0.4,0.4,0.8,1.4,1.1c0.1,0,0.2,0.2,0.2,0.4
			c0,0.1,0,0.2-0.1,0.3c-0.4-0.1-0.8-0.1-1.1-0.2c-0.4-0.1-0.7-0.1-1-0.1c-0.2,0-0.5-0.1-0.9-0.1s-0.8,0-1.1-0.1c0-0.1,0-0.3,0-0.4
			c0-0.2,0.1-0.3,0.3-0.3c0.4,0,0.7-0.1,1-0.2c0.3-0.1,0.4-0.3,0.5-0.6c0-0.1,0.1-0.5,0.2-1.1s0.2-1.3,0.3-2.1
			c0.1-0.8,0.3-1.7,0.4-2.6c0.2-0.9,0.3-1.8,0.4-2.6c0.1-0.8,0.2-1.4,0.3-1.9c0.1-0.5,0.1-0.8,0.1-0.8c0-0.2,0-0.4-0.2-0.5
			c-0.2-0.1-0.5-0.3-1-0.4c-0.1,0-0.2-0.2-0.2-0.4c0-0.1,0-0.2,0.1-0.3c0.2,0,0.4,0.1,0.6,0.1c0.2,0,0.5,0.1,0.7,0.1
			c0.2,0,0.5,0.1,0.7,0.1s0.4,0.1,0.5,0.1c0.3,0,0.5,0.1,0.6,0.1c0.1,0,0.3,0.1,0.3,0.1c0.1,0,0.1,0.1,0.2,0.2
			c0,0.1,0.1,0.1,0.1,0.2l3.4,11.3L171.8,37.9z"/>
		<path class="st0" d="M185.2,49.5l-4.7-1.2l-2.2,3c-0.1,0.2-0.2,0.3-0.2,0.4c-0.1,0.3,0.3,0.6,1.1,1c0.1,0,0.2,0.1,0.2,0.2
			c0,0.1,0,0.2,0,0.2c0,0.1-0.1,0.2-0.1,0.3c-0.4-0.1-0.8-0.3-1.2-0.4s-0.8-0.2-1.2-0.4c-0.3-0.1-0.6-0.1-0.9-0.2
			c-0.3-0.1-0.6-0.1-1-0.2c0-0.1,0-0.2,0-0.3c0-0.1,0.1-0.2,0.1-0.2c0.1-0.1,0.1-0.1,0.3-0.1c0.5,0,0.8,0,1,0c0.2,0,0.4-0.2,0.6-0.4
			l8.3-10.9c0.2-0.2,0.3-0.3,0.5-0.3c0.1,0,0.1,0.1,0.2,0.1l1.8,13.9c0,0.2,0.2,0.4,0.5,0.6s0.5,0.3,0.8,0.5
			c0.1,0.1,0.1,0.1,0.2,0.2c0,0.1,0,0.2,0,0.3c0,0.1-0.1,0.2-0.1,0.3c-0.4-0.1-0.9-0.3-1.3-0.4s-0.8-0.2-1.2-0.3
			c-0.4-0.1-0.8-0.2-1.4-0.3c-0.5-0.1-1-0.2-1.4-0.3c0-0.1,0-0.3,0-0.3c0-0.1,0.1-0.2,0.1-0.2s0.1,0,0.2,0c0.4,0,0.7,0,0.9,0
			c0.2,0,0.4-0.1,0.4-0.3c0-0.1,0-0.2,0-0.3L185.2,49.5z M185.1,48.5l-0.6-5.7l-3.4,4.6L185.1,48.5z"/>
		<path class="st0" d="M197.3,52.2l-1.5-0.6l-1.7,4.5c-0.1,0.3-0.1,0.6,0.2,0.8c0.2,0.2,0.6,0.5,1.2,0.8c0.2,0.1,0.2,0.2,0.1,0.4
			c0,0.1-0.1,0.2-0.2,0.3c-0.4-0.2-0.8-0.4-1.3-0.6c-0.5-0.2-1-0.4-1.5-0.6c-0.4-0.1-0.8-0.3-1.2-0.4c-0.5-0.2-0.9-0.3-1.3-0.4
			c0-0.1,0.1-0.3,0.1-0.3c0.1-0.2,0.2-0.3,0.3-0.2c0.5,0.1,0.9,0.2,1.2,0.1c0.3,0,0.4-0.2,0.5-0.5l4-10.3c0.1-0.3,0.1-0.5-0.1-0.7
			c-0.1-0.2-0.5-0.5-1-0.7c-0.1-0.1-0.2-0.2-0.1-0.4c0-0.1,0.1-0.2,0.2-0.3c0.4,0.2,0.8,0.4,1.2,0.6c0.4,0.2,0.8,0.4,1.2,0.5
			l2.7,1.1c1.5,0.6,2.4,1.3,2.9,2.2c0.5,0.9,0.5,1.9,0.1,3c-0.1,0.3-0.3,0.6-0.5,0.9c-0.2,0.3-0.5,0.5-0.8,0.8
			c-0.3,0.2-0.7,0.4-1.1,0.5c-0.4,0.1-0.9,0.2-1.4,0.2l1.6,6c0.1,0.5,0.3,0.8,0.6,1.1c0.3,0.3,0.5,0.5,0.8,0.6
			c0.1,0.1,0.1,0.2,0.1,0.4c0,0.1-0.1,0.2-0.2,0.4c-0.3-0.1-0.7-0.3-1.1-0.5c-0.4-0.2-0.8-0.4-1.2-0.5c-0.3-0.1-0.5-0.3-0.7-0.7
			c-0.2-0.4-0.4-0.8-0.5-1.3L197.3,52.2z M197.2,51.2c0.9,0.4,1.8,0.5,2.4,0.3c0.7-0.2,1.2-0.8,1.6-1.8c0.2-0.4,0.3-0.8,0.3-1.2
			c0-0.4,0-0.8-0.2-1.1c-0.1-0.3-0.4-0.7-0.7-1c-0.3-0.3-0.8-0.6-1.3-0.8l-1-0.4l-2.2,5.6L197.2,51.2z"/>
		<path class="st0" d="M209.3,56.7l-2.6,4.9c-0.1,0.3-0.2,0.5,0,0.7c0.1,0.2,0.4,0.4,0.7,0.8c0.1,0,0.1,0.1,0.1,0.2
			c0,0.1,0,0.1-0.1,0.2c0,0.1-0.1,0.2-0.2,0.3c-0.4-0.2-0.8-0.5-1.1-0.7c-0.4-0.2-0.7-0.4-1-0.6c-0.3-0.2-0.7-0.4-1.1-0.6
			c-0.4-0.2-0.8-0.4-1.2-0.6c0-0.1,0.1-0.3,0.1-0.3c0.1-0.2,0.2-0.2,0.4-0.2c0.5,0.2,0.9,0.2,1.2,0.2s0.4-0.1,0.5-0.4l5.2-9.8
			c0.1-0.3,0.1-0.5,0-0.7c-0.1-0.2-0.4-0.5-0.9-0.8c-0.1-0.1-0.1-0.2,0-0.4c0-0.1,0.1-0.2,0.2-0.3c0.4,0.2,0.7,0.5,1.2,0.7
			c0.4,0.2,0.8,0.4,1.1,0.6c0.3,0.2,0.7,0.4,1.1,0.6c0.4,0.2,0.8,0.4,1.3,0.6c0,0.1-0.1,0.3-0.1,0.3c-0.1,0.2-0.2,0.3-0.4,0.2
			c-0.5-0.2-0.9-0.3-1.2-0.2c-0.2,0-0.4,0.2-0.6,0.4l-2.5,4.7l6.8-2.1c0.1,0,0.2-0.1,0.3-0.2c0.1-0.1,0.2-0.2,0.2-0.3
			c0.1-0.1,0.1-0.3-0.1-0.4s-0.3-0.3-0.5-0.5c-0.1-0.1-0.1-0.2,0-0.4c0-0.1,0.1-0.2,0.2-0.3c0.4,0.2,0.7,0.4,1.1,0.7
			c0.4,0.2,0.7,0.4,1,0.6c0.3,0.1,0.6,0.3,0.9,0.4c0.3,0.1,0.6,0.3,0.9,0.4c0,0.1-0.1,0.3-0.1,0.3c-0.1,0.2-0.2,0.3-0.4,0.3
			c-0.3-0.1-0.6-0.2-0.9-0.2c-0.3,0-0.6,0-1,0.1l-6.6,2l2.3,8.4c0.1,0.3,0.2,0.6,0.4,0.8c0.2,0.2,0.4,0.4,0.7,0.6
			c0.1,0.1,0.2,0.2,0.1,0.4c0,0.1-0.1,0.2-0.2,0.3c-0.4-0.2-0.8-0.5-1.3-0.8c-0.5-0.3-0.9-0.5-1.2-0.7c-0.4-0.2-0.7-0.4-1.2-0.6
			c-0.4-0.2-0.8-0.4-1.3-0.6c0-0.1,0.1-0.3,0.1-0.3c0.1-0.2,0.2-0.3,0.4-0.2c0.6,0.3,1,0.3,1.1,0c0.1-0.1,0.1-0.3,0-0.5L209.3,56.7z
			"/>
	</g>
	<g>
		<path class="st0" d="M134.2,72.7c0,0,0.1,0,0.3,0c0.2,0,0.3,0,0.6,0c0.2,0,0.5,0,0.7,0c0.3,0,0.5,0,0.8,0c0.3,0,0.5,0,0.8,0
			c0.3,0,0.5,0,0.7,0c0.2,0,0.4,0,0.6,0c0.2,0,0.3,0,0.3,0c0,0,0,0.1,0,0.2s0,0.1,0,0.2c0,0.2-0.1,0.3-0.2,0.3
			c-0.4,0.1-0.7,0.1-0.9,0.3c-0.2,0.1-0.3,0.3-0.3,0.6v7.2c0,0.3,0.1,0.5,0.4,0.6c0.3,0.1,0.6,0.2,1,0.3c0.1,0,0.2,0.1,0.2,0.3
			c0,0,0,0.1,0,0.2c0,0.1,0,0.1,0,0.1c0,0-0.2,0-0.3,0c-0.2,0-0.4,0-0.6,0s-0.5,0-0.8,0s-0.6,0-0.8,0c-0.3,0-0.5,0-0.8,0
			s-0.5,0-0.8,0s-0.4,0-0.6,0c-0.2,0-0.3,0-0.3,0c0,0,0-0.1,0-0.1c0-0.1,0-0.1,0-0.2c0-0.2,0.1-0.3,0.2-0.3c0.4-0.1,0.7-0.2,1-0.3
			c0.3-0.1,0.4-0.3,0.4-0.6v-7.3c0-0.3-0.1-0.5-0.4-0.6c-0.2-0.1-0.5-0.2-0.9-0.3c-0.1,0-0.2-0.1-0.2-0.3c0,0,0-0.1,0-0.2
			S134.2,72.8,134.2,72.7z"/>
		<path class="st0" d="M146.8,75.3c0.9,0.7,1.6,1.3,2.1,1.9c0.5,0.6,0.8,1.3,0.8,2c0,0.7-0.1,1.2-0.4,1.7c-0.3,0.5-0.6,0.9-1,1.2
			c-0.4,0.3-0.9,0.6-1.4,0.8s-1.1,0.3-1.6,0.3c-0.6,0-1.1-0.1-1.7-0.2c-0.5-0.1-1-0.3-1.3-0.6s-0.7-0.6-0.9-1.1
			c-0.2-0.4-0.3-0.9-0.3-1.5c0-0.8,0.3-1.6,0.8-2.1c0.5-0.6,1.2-1.2,2.2-1.7c-0.5-0.3-0.9-0.6-1.2-0.9c-0.3-0.3-0.6-0.6-0.8-0.9
			s-0.3-0.6-0.4-0.8s-0.1-0.6-0.1-0.9c0-0.4,0.1-0.8,0.2-1.2c0.1-0.4,0.4-0.8,0.7-1.1c0.3-0.3,0.7-0.6,1.2-0.8
			c0.5-0.2,1.1-0.3,1.7-0.3c0.6,0,1.2,0.1,1.6,0.2c0.5,0.2,0.9,0.4,1.2,0.6c0.3,0.3,0.6,0.6,0.7,0.9s0.3,0.7,0.3,1.1
			c0,0.7-0.2,1.4-0.7,1.9C148,74.5,147.4,74.9,146.8,75.3z M144.6,76.3c-0.5,0.4-1,0.9-1.2,1.4c-0.3,0.5-0.4,1.1-0.4,1.7
			c0,1,0.2,1.7,0.7,2.2c0.5,0.5,1,0.7,1.7,0.7c0.3,0,0.6-0.1,0.9-0.2c0.3-0.1,0.5-0.3,0.7-0.5c0.2-0.2,0.4-0.5,0.5-0.8
			c0.1-0.3,0.2-0.6,0.2-1c0-0.2,0-0.4-0.1-0.6c0-0.2-0.1-0.4-0.2-0.6c-0.1-0.2-0.3-0.4-0.5-0.6c-0.2-0.2-0.5-0.4-0.8-0.7L144.6,76.3
			z M146.2,74.9c0.4-0.4,0.7-0.8,0.9-1.2s0.4-0.9,0.4-1.4c0-0.7-0.2-1.3-0.6-1.7s-0.9-0.6-1.5-0.6c-0.6,0-1,0.2-1.4,0.5
			c-0.4,0.3-0.6,0.8-0.6,1.4c0,0.4,0.1,0.7,0.3,1.1c0.2,0.3,0.7,0.7,1.3,1.2L146.2,74.9z"/>
		<path class="st0" d="M152.8,74.4c-0.3,0-0.5,0.1-0.7,0.2c-0.2,0.2-0.4,0.4-0.5,0.8c-0.1,0.2-0.2,0.2-0.4,0.2c-0.1,0-0.2,0-0.4-0.1
			c0.1-0.3,0.2-0.6,0.2-0.8s0.1-0.5,0.2-0.7c0.1-0.2,0.1-0.4,0.1-0.6c0-0.2,0.1-0.4,0.1-0.6c0-0.1,0.1-0.2,0.1-0.2c0,0,0.1,0,0.2,0
			c0.3,0,0.6,0,1,0c0.4,0,0.8,0,1.3,0h5v0.5c-0.9,1.7-1.6,3.1-2.1,4.3c-0.5,1.2-0.9,2.3-1.2,3.3c-0.3,1-0.5,1.9-0.6,2.7
			s-0.2,1.6-0.3,2.4c0,0.1-0.1,0.2-0.2,0.3c-0.1,0.1-0.2,0.2-0.3,0.3s-0.3,0.1-0.5,0.1c-0.2,0-0.3,0-0.5,0c-0.2,0-0.4,0-0.5,0
			c-0.1,0-0.2-0.1-0.2-0.3c0-0.1,0-0.2,0-0.3c0-0.1,0-0.2,0-0.3c0.1-0.7,0.3-1.4,0.5-2.2s0.5-1.6,0.9-2.5c0.4-0.9,0.8-1.9,1.4-3
			c0.6-1.1,1.3-2.4,2.1-3.8H152.8z"/>
		<path class="st0" d="M166,75.3c0.9,0.7,1.6,1.3,2.1,1.9s0.8,1.3,0.8,2c0,0.7-0.1,1.2-0.4,1.7c-0.3,0.5-0.6,0.9-1,1.2
			c-0.4,0.3-0.9,0.6-1.4,0.8c-0.5,0.2-1.1,0.3-1.6,0.3c-0.6,0-1.1-0.1-1.7-0.2c-0.5-0.1-1-0.3-1.3-0.6s-0.7-0.6-0.9-1.1
			c-0.2-0.4-0.3-0.9-0.3-1.5c0-0.8,0.3-1.6,0.8-2.1c0.5-0.6,1.2-1.2,2.2-1.7c-0.5-0.3-0.9-0.6-1.2-0.9c-0.3-0.3-0.6-0.6-0.8-0.9
			s-0.3-0.6-0.4-0.8c-0.1-0.3-0.1-0.6-0.1-0.9c0-0.4,0.1-0.8,0.2-1.2c0.1-0.4,0.4-0.8,0.7-1.1c0.3-0.3,0.7-0.6,1.2-0.8
			c0.5-0.2,1.1-0.3,1.7-0.3c0.6,0,1.2,0.1,1.6,0.2c0.5,0.2,0.9,0.4,1.2,0.6c0.3,0.3,0.6,0.6,0.7,0.9c0.2,0.4,0.2,0.7,0.2,1.1
			c0,0.7-0.2,1.4-0.7,1.9C167.2,74.5,166.6,74.9,166,75.3z M163.8,76.3c-0.5,0.4-1,0.9-1.2,1.4c-0.3,0.5-0.4,1.1-0.4,1.7
			c0,1,0.2,1.7,0.7,2.2c0.5,0.5,1,0.7,1.7,0.7c0.3,0,0.6-0.1,0.9-0.2c0.3-0.1,0.5-0.3,0.7-0.5c0.2-0.2,0.4-0.5,0.5-0.8
			c0.1-0.3,0.2-0.6,0.2-1c0-0.2,0-0.4-0.1-0.6c0-0.2-0.1-0.4-0.2-0.6c-0.1-0.2-0.3-0.4-0.5-0.6c-0.2-0.2-0.5-0.4-0.8-0.7L163.8,76.3
			z M165.4,74.9c0.4-0.4,0.7-0.8,0.9-1.2c0.2-0.4,0.4-0.9,0.4-1.4c0-0.7-0.2-1.3-0.6-1.7c-0.4-0.4-0.9-0.6-1.5-0.6
			c-0.6,0-1,0.2-1.4,0.5c-0.4,0.3-0.6,0.8-0.6,1.4c0,0.4,0.1,0.7,0.3,1.1c0.2,0.3,0.7,0.7,1.3,1.2L165.4,74.9z"/>
	</g>
	<g>
		<g>
			<polygon class="st0" points="183.1,74.2 216.5,75.7 183.1,77.2 			"/>
		</g>
		<g>
			<polygon class="st0" points="119.7,77.2 86.4,75.7 119.7,74.2 			"/>
		</g>
	</g>
	<g>
		<path class="st0" d="M80,97.3c0.1-0.1,0.1-0.3,0.2-0.4c0.1-0.1,0.2-0.2,0.4-0.3c0.2-0.1,0.5-0.1,0.8-0.2c0.3,0,0.8-0.1,1.4-0.1
			c0.3,0,0.6,0,1,0c0.4,0,0.9,0,1.4,0c0.5,0,1,0,1.5-0.1c0.5,0,1-0.1,1.4-0.1c0.1,0.3,0.1,0.6,0.1,0.8c0,0.5-0.2,0.8-0.5,0.8
			c-1.2,0.2-2,0.4-2.4,0.7c-0.4,0.3-0.6,0.7-0.6,1.1c0,0,0,0.5,0.1,1.3s0.1,2.2,0.2,4.2c0.1,2,0.2,4.6,0.4,7.8s0.3,7.3,0.5,12.2
			c0,0.6,0.2,1.1,0.6,1.4c0.4,0.3,1.2,0.5,2.4,0.7c0.2,0,0.3,0.1,0.4,0.3c0.1,0.1,0.1,0.3,0.1,0.5s0,0.5-0.1,0.8
			c-1.2-0.1-2.2-0.1-3.1-0.2c-0.9,0-1.8-0.1-2.6-0.1c-0.3,0-0.7,0-1.2,0c-0.5,0-1,0-1.6,0c-0.5,0-1.1,0-1.6,0.1
			c-0.5,0-1,0.1-1.4,0.1c-0.1-0.3-0.1-0.6-0.1-0.8c0-0.5,0.2-0.8,0.5-0.8c1.3-0.3,2.2-0.5,2.7-0.8c0.5-0.3,0.7-0.7,0.7-1.3
			c0-0.1,0-0.7-0.1-1.8c0-1.1-0.1-2.5-0.2-4.1c-0.1-1.6-0.2-3.4-0.2-5.2c-0.1-1.9-0.2-3.6-0.2-5.3c-0.1-1.7-0.2-3.1-0.2-4.3
			c-0.1-1.2-0.1-1.9-0.1-2.2l-10.8,26.2c-0.1,0.3-0.3,0.5-0.4,0.7c-0.1,0.1-0.3,0.2-0.5,0.2c-0.2,0-0.4,0-0.4,0l-12.1-27.8
			c0,0.3-0.1,1.1-0.1,2.4c0,1.3-0.1,2.8-0.2,4.5c-0.1,1.7-0.2,3.6-0.3,5.5c-0.1,1.9-0.2,3.7-0.3,5.4c-0.1,1.6-0.1,3-0.2,4.2
			c0,1.1-0.1,1.7-0.1,1.8c0,1,1.1,1.7,3.4,2.1c0.3,0,0.5,0.3,0.5,0.8c0,0.2,0,0.5-0.1,0.8c-0.9-0.1-1.8-0.1-2.6-0.2
			c-0.9,0-1.6-0.1-2.3-0.1c-0.5,0-1.2,0-2.1,0.1c-0.9,0-1.7,0.1-2.5,0.2c-0.1-0.3-0.1-0.6-0.1-0.8c0-0.5,0.2-0.7,0.5-0.8
			c0.9-0.2,1.6-0.4,2.2-0.7c0.5-0.3,0.8-0.8,0.9-1.4c0-0.3,0-1.1,0.1-2.5c0.1-1.4,0.1-3,0.2-4.9c0.1-1.9,0.2-3.9,0.3-6
			c0.1-2.1,0.2-4.1,0.3-5.9c0.1-1.8,0.1-3.3,0.2-4.4s0.1-1.8,0.1-1.8c0-0.5-0.2-0.9-0.6-1.2c-0.4-0.2-1.2-0.5-2.3-0.7
			c-0.3,0-0.5-0.3-0.5-0.8c0-0.2,0-0.5,0.1-0.8c0.4,0,0.9,0.1,1.5,0.1c0.5,0,1.1,0.1,1.6,0.1s1.1,0,1.6,0c0.5,0,0.9,0,1.2,0
			c0.6,0,1.1,0,1.4,0.1c0.3,0,0.6,0.1,0.8,0.2c0.2,0.1,0.3,0.2,0.4,0.3c0.1,0.1,0.2,0.3,0.2,0.4L70,122L80,97.3z"/>
		<path class="st0" d="M108.5,125.1c0,0.7,0.2,1.1,0.7,1.4c0.5,0.2,1.3,0.5,2.6,0.8c0.3,0.1,0.5,0.3,0.5,0.8c0,0.2,0,0.5-0.1,0.8
			c-1-0.1-2-0.1-3.1-0.2c-1,0-2-0.1-2.9-0.1c-0.9,0-1.9,0-2.9,0.1c-1.1,0-2.1,0.1-3,0.2c-0.1-0.3-0.1-0.6-0.1-0.8
			c0-0.5,0.2-0.7,0.5-0.8c1.3-0.2,2.1-0.5,2.6-0.7c0.5-0.3,0.7-0.7,0.7-1.4V99.9c0-0.7-0.2-1.1-0.7-1.4c-0.5-0.3-1.3-0.5-2.6-0.7
			c-0.2,0-0.3-0.1-0.4-0.3c-0.1-0.2-0.1-0.3-0.1-0.5s0-0.5,0.1-0.8c1,0.1,2,0.1,3.1,0.2c1.1,0,2,0.1,2.9,0.1c0.8,0,1.8,0,2.8-0.1
			c1.1,0,2.1-0.1,3.1-0.2c0.1,0.3,0.1,0.6,0.1,0.8c0,0.5-0.2,0.8-0.5,0.8c-1.3,0.2-2.1,0.4-2.6,0.7c-0.5,0.3-0.7,0.8-0.7,1.4V125.1z
			"/>
		<path class="st0" d="M131.4,125c0,0.6,0.2,1,0.7,1.2c0.5,0.2,1.2,0.3,2,0.3h5.4c1,0,1.8-0.1,2.5-0.4c0.7-0.2,1.3-0.6,1.8-1.1
			c0.5-0.5,0.9-1,1.3-1.7c0.4-0.7,0.7-1.4,1-2.3c0.1-0.3,0.3-0.4,0.6-0.4c0.2,0,0.3,0,0.5,0.1c0.2,0.1,0.4,0.2,0.6,0.3
			c-0.2,1-0.5,2-0.7,3.1c-0.2,1.1-0.4,2.3-0.6,3.7c0,0.4-0.1,0.6-0.3,0.7c-0.2,0.1-0.4,0.1-0.6,0.1c-0.6,0-1.3,0-2.1-0.1
			c-0.8-0.1-1.6-0.1-2.2-0.1H129c-0.8,0-1.7,0-2.9,0.1c-1.2,0-2.3,0.1-3.3,0.2c-0.1-0.3-0.1-0.6-0.1-0.8c0-0.5,0.2-0.7,0.5-0.8
			c1.4-0.2,2.3-0.5,2.8-0.8c0.5-0.3,0.7-0.7,0.7-1.3V99.9c0-0.7-0.2-1.1-0.7-1.4c-0.5-0.3-1.4-0.5-2.7-0.7c-0.2,0-0.3-0.1-0.4-0.3
			c-0.1-0.1-0.1-0.3-0.1-0.5c0-0.2,0-0.5,0.1-0.8c1.1,0.1,2.2,0.1,3.3,0.2c1.1,0,2,0.1,2.8,0.1c1.1,0,2.3,0,3.6-0.1
			c1.3,0,2.4-0.1,3.4-0.2c0.1,0.3,0.1,0.6,0.1,0.8c0,0.6-0.2,0.9-0.5,0.9c-1.4,0.2-2.5,0.4-3.1,0.7c-0.7,0.3-1,0.9-1,1.7V125z"/>
		<path class="st0" d="M164.9,125c0,0.6,0.2,1,0.7,1.2c0.5,0.2,1.2,0.3,2,0.3h5.4c1,0,1.8-0.1,2.5-0.4c0.7-0.2,1.3-0.6,1.8-1.1
			c0.5-0.5,0.9-1,1.3-1.7c0.4-0.7,0.7-1.4,1-2.3c0.1-0.3,0.3-0.4,0.6-0.4c0.2,0,0.3,0,0.5,0.1c0.2,0.1,0.4,0.2,0.6,0.3
			c-0.2,1-0.5,2-0.7,3.1c-0.2,1.1-0.4,2.3-0.6,3.7c0,0.4-0.1,0.6-0.3,0.7c-0.2,0.1-0.4,0.1-0.6,0.1c-0.6,0-1.3,0-2.1-0.1
			c-0.8-0.1-1.6-0.1-2.2-0.1h-12.4c-0.8,0-1.7,0-2.9,0.1s-2.3,0.1-3.3,0.2c-0.1-0.3-0.1-0.6-0.1-0.8c0-0.5,0.2-0.7,0.5-0.8
			c1.4-0.2,2.3-0.5,2.8-0.8c0.5-0.3,0.7-0.7,0.7-1.3V99.9c0-0.7-0.2-1.1-0.7-1.4c-0.5-0.3-1.4-0.5-2.7-0.7c-0.2,0-0.3-0.1-0.4-0.3
			c-0.1-0.1-0.1-0.3-0.1-0.5c0-0.2,0-0.5,0.1-0.8c1.1,0.1,2.2,0.1,3.3,0.2c1.1,0,2,0.1,2.8,0.1c1.1,0,2.3,0,3.6-0.1
			c1.3,0,2.4-0.1,3.4-0.2c0.1,0.3,0.1,0.6,0.1,0.8c0,0.6-0.2,0.9-0.5,0.9c-1.4,0.2-2.5,0.4-3.1,0.7c-0.7,0.3-1,0.9-1,1.7V125z"/>
		<path class="st0" d="M198.4,98.4v12.7h7.7c0.7,0,1.1-0.3,1.4-1c0.3-0.6,0.5-1.4,0.7-2.3c0.1-0.4,0.4-0.6,0.9-0.6
			c0.1,0,0.2,0,0.4,0c0.2,0,0.3,0.1,0.4,0.1c-0.1,0.7-0.1,1.5-0.2,2.5c-0.1,0.9-0.1,1.7-0.1,2.4c0,0.6,0,1.2,0,2.1
			c0,0.8,0.1,1.7,0.2,2.7c-0.3,0.1-0.5,0.1-0.7,0.1c-0.5,0-0.8-0.2-0.9-0.6c-0.2-0.9-0.4-1.7-0.7-2.3c-0.3-0.6-0.8-1-1.4-1h-7.7
			v11.7c0,0.7,0.4,1.2,1.3,1.4c0.9,0.2,2.4,0.3,4.4,0.3h2.7c1,0,1.8-0.1,2.5-0.4c0.7-0.3,1.3-0.7,1.9-1.1c0.5-0.5,1-1,1.5-1.7
			c0.4-0.7,0.8-1.4,1.2-2.2c0.1-0.2,0.3-0.3,0.7-0.3c0.2,0,0.3,0,0.5,0.1c0.2,0.1,0.4,0.2,0.5,0.3c-0.3,0.6-0.6,1.4-0.8,2.2
			c-0.2,0.9-0.4,1.7-0.6,2.5c-0.2,0.8-0.4,1.5-0.6,2c-0.2,0.6-0.5,0.8-0.8,0.8c-0.3,0-0.6,0-1.1,0c-0.5,0-1-0.1-1.6-0.1
			c-0.6,0-1.2,0-1.8-0.1c-0.6,0-1.1,0-1.5,0h-10.8c-1,0-2,0-3.1,0.1c-1.1,0-2.1,0.1-3.1,0.2c-0.1-0.3-0.1-0.6-0.1-0.8
			c0-0.5,0.2-0.7,0.5-0.8c1.3-0.2,2.2-0.5,2.7-0.7c0.5-0.3,0.8-0.7,0.8-1.4V99.9c0-0.7-0.2-1.1-0.7-1.4c-0.5-0.2-1.4-0.5-2.8-0.8
			c-0.3-0.1-0.5-0.3-0.5-0.8c0-0.2,0-0.3,0-0.4c0-0.1,0-0.2,0.1-0.4c1.4,0.1,2.6,0.2,3.6,0.2c1,0,1.8,0,2.6,0h9.7
			c1.5,0,2.8,0,3.9-0.1c1.1-0.1,1.8-0.1,2.2-0.1c0.4,0,0.7,0.3,0.9,0.8c0.1,0.5,0.3,1.2,0.4,2c0.1,0.8,0.2,1.6,0.3,2.4
			c0.1,0.9,0.4,1.6,0.7,2.2c-0.3,0.2-0.6,0.3-0.9,0.3c-0.4,0-0.7-0.1-0.8-0.4c-0.4-0.9-0.8-1.6-1.1-2.2c-0.4-0.6-0.8-1.1-1.3-1.5
			c-0.5-0.4-1.1-0.7-1.7-0.9s-1.5-0.3-2.5-0.3H198.4z"/>
		<path class="st0" d="M237.9,114.1h-3.7V125c0,0.7,0.3,1.2,1,1.5c0.7,0.3,1.7,0.5,3.1,0.6c0.4,0.1,0.6,0.3,0.6,0.8
			c0,0.2,0,0.5-0.1,0.8c-0.9-0.1-2-0.1-3.2-0.2c-1.3,0-2.5-0.1-3.7-0.1c-0.9,0-1.8,0-3,0.1s-2.2,0.1-3.2,0.2
			c-0.1-0.3-0.1-0.6-0.1-0.8c0-0.5,0.2-0.7,0.5-0.8c1.3-0.2,2.1-0.4,2.6-0.7c0.5-0.3,0.8-0.7,0.8-1.4V99.9c0-0.6-0.2-1.1-0.7-1.4
			c-0.5-0.3-1.4-0.6-2.8-0.7c-0.3,0-0.5-0.3-0.5-0.8c0-0.2,0-0.5,0.1-0.8c1,0.1,2,0.1,3.1,0.2c1.1,0,2.1,0.1,3,0.1h6.7
			c3.6,0,6.2,0.8,8.1,2.3c1.8,1.6,2.7,3.7,2.7,6.4c0,0.7-0.1,1.5-0.4,2.3s-0.6,1.6-1.1,2.3c-0.5,0.8-1.2,1.5-2,2.1
			c-0.8,0.6-1.8,1.2-2.8,1.6l8.3,11.5c0.6,0.9,1.3,1.5,2.1,1.8c0.8,0.3,1.5,0.6,2.1,0.7c0.3,0.1,0.4,0.3,0.4,0.7
			c0,0.3,0,0.6-0.1,0.9c-0.8-0.1-1.7-0.1-2.8-0.2c-1.1,0-2.1-0.1-3-0.1c-0.7,0-1.4-0.3-2.1-0.9c-0.7-0.6-1.4-1.4-2-2.3L237.9,114.1z
			 M236.9,112.1c2.3,0,4.1-0.5,5.3-1.5c1.3-1,1.9-2.7,1.9-5.1c0-1-0.1-2-0.4-2.8c-0.3-0.9-0.7-1.6-1.3-2.2c-0.6-0.6-1.3-1.1-2.3-1.5
			c-0.9-0.4-2.1-0.5-3.4-0.5h-2.5v13.6H236.9z"/>
	</g>
	<rect x="97.6" y="143" class="st1" width="107.6" height="19.2"/>
	<g>
		<g>
			<path class="st0" d="M119.7,158.2c-0.8,0-1.5-0.1-2.1-0.4c-0.6-0.3-1.1-0.6-1.5-1c-0.4-0.4-0.7-1-0.9-1.6s-0.3-1.2-0.3-1.9
				c0-0.6,0.1-1.2,0.3-1.7c0.2-0.6,0.5-1.1,0.9-1.6c0.4-0.5,0.9-0.9,1.5-1.2s1.3-0.4,2.1-0.4c0.3,0,0.6,0,0.9,0c0.3,0,0.5,0,0.8,0.1
				s0.5,0.1,0.7,0.1c0.2,0.1,0.5,0.1,0.7,0.2c0,0.3,0,0.6,0.1,1c0.1,0.4,0.1,0.8,0.2,1.2c-0.1,0-0.2,0.1-0.2,0.1c-0.1,0-0.1,0-0.2,0
				c-0.1,0-0.1-0.1-0.1-0.2c-0.2-0.6-0.5-1.1-0.8-1.4c-0.4-0.3-0.9-0.4-1.6-0.4c-0.6,0-1.1,0.1-1.6,0.3c-0.5,0.2-0.9,0.5-1.2,0.8
				c-0.3,0.4-0.6,0.8-0.7,1.3c-0.2,0.5-0.2,1-0.2,1.6c0,0.7,0.1,1.3,0.3,1.9s0.5,1,0.8,1.5c0.3,0.4,0.7,0.7,1.2,0.9s1,0.3,1.5,0.3
				c0.4,0,0.8,0,1.1-0.1c0.3-0.1,0.5-0.2,0.7-0.4c0.2-0.2,0.4-0.3,0.5-0.6s0.3-0.5,0.4-0.8c0.1-0.1,0.2-0.2,0.4-0.2c0,0,0.1,0,0.2,0
				c0.1,0,0.1,0,0.1,0.1c-0.1,0.3-0.2,0.7-0.4,1.1s-0.2,0.8-0.3,1.2c-0.5,0.1-1,0.1-1.5,0.2C120.9,158.2,120.3,158.2,119.7,158.2z"
				/>
			<path class="st0" d="M127.2,157c0,0.2,0.1,0.3,0.2,0.3c0.1,0.1,0.3,0.1,0.6,0.1h1.6c0.3,0,0.5,0,0.7-0.1c0.2-0.1,0.4-0.2,0.5-0.3
				c0.1-0.1,0.3-0.3,0.4-0.5s0.2-0.4,0.3-0.7c0-0.1,0.1-0.1,0.2-0.1c0,0,0.1,0,0.2,0c0.1,0,0.1,0.1,0.2,0.1
				c-0.1,0.3-0.1,0.6-0.2,0.9c-0.1,0.3-0.1,0.7-0.2,1.1c0,0.1,0,0.2-0.1,0.2s-0.1,0-0.2,0c-0.2,0-0.4,0-0.6,0s-0.5,0-0.6,0h-3.6
				c-0.2,0-0.5,0-0.8,0c-0.3,0-0.7,0-1,0.1c0-0.1,0-0.2,0-0.2c0-0.1,0-0.2,0.1-0.2c0.4-0.1,0.7-0.1,0.8-0.2c0.1-0.1,0.2-0.2,0.2-0.4
				v-7.4c0-0.2-0.1-0.3-0.2-0.4c-0.1-0.1-0.4-0.2-0.8-0.2c0,0-0.1,0-0.1-0.1c0,0,0-0.1,0-0.2c0-0.1,0-0.2,0-0.2c0.3,0,0.7,0,1,0.1
				c0.3,0,0.6,0,0.8,0c0.3,0,0.7,0,1.1,0s0.7,0,1-0.1c0,0.1,0,0.2,0,0.2c0,0.2-0.1,0.3-0.2,0.3c-0.4,0-0.7,0.1-0.9,0.2
				c-0.2,0.1-0.3,0.3-0.3,0.5V157z"/>
			<path class="st0" d="M132.6,153.3c0-0.7,0.1-1.3,0.4-1.9c0.2-0.6,0.6-1.1,1-1.6c0.4-0.4,0.9-0.8,1.5-1.1c0.6-0.3,1.1-0.4,1.8-0.4
				c0.8,0,1.6,0.1,2.2,0.4c0.6,0.3,1.2,0.6,1.6,1.1c0.4,0.5,0.7,1,0.9,1.6c0.2,0.6,0.3,1.2,0.3,1.9c0,0.8-0.1,1.5-0.4,2.1
				s-0.6,1.1-1,1.5c-0.4,0.4-1,0.7-1.6,1s-1.2,0.3-1.9,0.3c-0.7,0-1.3-0.1-1.9-0.4c-0.6-0.2-1.1-0.6-1.5-1c-0.4-0.4-0.7-1-1-1.6
				C132.7,154.7,132.6,154,132.6,153.3z M137.6,157.5c0.5,0,0.9-0.1,1.3-0.3s0.7-0.4,1-0.7c0.3-0.3,0.5-0.7,0.6-1.1
				c0.2-0.4,0.2-0.9,0.2-1.4c0-0.7-0.1-1.3-0.2-1.9c-0.1-0.6-0.4-1.1-0.7-1.6c-0.3-0.4-0.7-0.8-1.1-1c-0.5-0.3-1-0.4-1.6-0.4
				c-0.4,0-0.8,0.1-1.1,0.2c-0.4,0.2-0.7,0.4-1,0.7c-0.3,0.3-0.5,0.6-0.7,1.1c-0.2,0.4-0.2,0.9-0.2,1.4c0,0.7,0.1,1.4,0.2,2
				c0.2,0.6,0.4,1.2,0.7,1.6c0.3,0.5,0.7,0.8,1.1,1.1C136.6,157.4,137.1,157.5,137.6,157.5z"/>
			<path class="st0" d="M148,149.1v7.8c0,0.2,0.1,0.4,0.3,0.5c0.2,0.1,0.5,0.2,0.9,0.2c0.1,0,0.2,0.1,0.2,0.2c0,0.1,0,0.2,0,0.2
				c-0.3,0-0.6,0-1-0.1c-0.3,0-0.7,0-1,0c-0.3,0-0.7,0-1,0s-0.7,0-1,0.1c0-0.1,0-0.2,0-0.2c0-0.1,0-0.2,0.1-0.2
				c0.4-0.1,0.8-0.1,0.9-0.2c0.2-0.1,0.3-0.2,0.3-0.5v-7.8h-1.5c-0.3,0-0.5,0-0.7,0.1c-0.2,0.1-0.4,0.1-0.5,0.3s-0.3,0.3-0.4,0.5
				c-0.1,0.2-0.2,0.4-0.3,0.6c0,0-0.1,0.1-0.1,0.1c0,0-0.1,0-0.1,0c-0.1,0-0.2,0-0.3-0.1c0.1-0.4,0.2-0.7,0.2-0.9
				c0-0.3,0.1-0.5,0.1-0.7c0-0.2,0.1-0.3,0.1-0.4c0-0.1,0.1-0.1,0.2-0.1c0.1,0,0.2,0,0.3,0s0.3,0,0.4,0c0.1,0,0.3,0,0.4,0
				s0.3,0,0.4,0h4.9c0.1,0,0.2,0,0.4,0c0.1,0,0.3,0,0.4,0s0.3,0,0.4,0c0.1,0,0.2,0,0.3,0c0.1,0,0.2,0.1,0.2,0.2
				c0,0.1,0.1,0.2,0.1,0.4c0,0.2,0.1,0.4,0.1,0.7c0,0.3,0.1,0.6,0.2,0.9c0,0-0.1,0-0.1,0.1c0,0-0.1,0-0.2,0c0,0-0.1,0-0.1,0
				c0,0-0.1-0.1-0.1-0.1c-0.1-0.2-0.2-0.5-0.3-0.6c-0.1-0.2-0.2-0.3-0.4-0.5s-0.3-0.2-0.5-0.3c-0.2-0.1-0.4-0.1-0.7-0.1H148z"/>
			<path class="st0" d="M161.1,157c0,0.2,0.1,0.3,0.2,0.4c0.1,0.1,0.4,0.1,0.8,0.2c0.1,0,0.1,0.1,0.1,0.2c0,0.1,0,0.2,0,0.3
				c-0.2,0-0.5,0-0.9-0.1c-0.3,0-0.6,0-0.9,0c-0.3,0-0.6,0-0.9,0s-0.6,0-0.9,0.1c0-0.1,0-0.2,0-0.3c0-0.1,0-0.2,0.1-0.2
				c0.4-0.1,0.6-0.1,0.7-0.2c0.1-0.1,0.2-0.2,0.2-0.4v-3.5h-4.6v3.5c0,0.2,0.1,0.3,0.2,0.4c0.1,0.1,0.4,0.1,0.8,0.2
				c0.1,0,0.2,0.1,0.2,0.2c0,0.1,0,0.2,0,0.3c-0.3,0-0.5,0-0.9-0.1s-0.6,0-0.9,0c-0.3,0-0.6,0-0.9,0c-0.3,0-0.6,0-0.9,0.1
				c0-0.1,0-0.2,0-0.3c0-0.1,0-0.2,0.1-0.2c0.4-0.1,0.6-0.1,0.8-0.2c0.1-0.1,0.2-0.2,0.2-0.4v-7.4c0-0.1,0-0.2,0-0.2
				c0-0.1-0.1-0.1-0.1-0.2c-0.1,0-0.2-0.1-0.3-0.1c-0.1,0-0.3-0.1-0.5-0.1c-0.1,0-0.1-0.1-0.1-0.2c0-0.1,0-0.2,0-0.2
				c0.2,0,0.5,0,0.8,0.1c0.3,0,0.6,0,0.9,0c0.3,0,0.6,0,0.9,0s0.6,0,0.9-0.1c0,0.1,0,0.2,0,0.2c0,0.1,0,0.2-0.1,0.2
				c-0.4,0.1-0.6,0.1-0.8,0.2c-0.1,0.1-0.2,0.2-0.2,0.4v3.3h4.6v-3.3c0-0.2-0.1-0.3-0.2-0.4c-0.1-0.1-0.4-0.2-0.7-0.2
				c-0.1,0-0.2-0.1-0.2-0.2c0-0.1,0-0.2,0-0.2c0.2,0,0.5,0,0.9,0.1c0.3,0,0.6,0,0.9,0c0.3,0,0.6,0,0.8,0s0.6,0,0.9-0.1
				c0,0.1,0,0.2,0,0.2c0,0.1,0,0.2-0.1,0.2c-0.4,0.1-0.6,0.1-0.8,0.2c-0.1,0.1-0.2,0.2-0.2,0.4V157z"/>
			<path class="st0" d="M166.1,157c0,0.2,0.1,0.3,0.2,0.4c0.1,0.1,0.4,0.1,0.8,0.2c0.1,0,0.1,0.1,0.1,0.2c0,0.1,0,0.1,0,0.2
				c-0.3,0-0.6,0-0.9-0.1s-0.6,0-0.9,0c-0.3,0-0.6,0-0.9,0s-0.6,0-0.9,0.1c0-0.1,0-0.2,0-0.2c0-0.1,0-0.2,0.1-0.2
				c0.4-0.1,0.6-0.1,0.8-0.2c0.1-0.1,0.2-0.2,0.2-0.4v-7.4c0-0.2-0.1-0.3-0.2-0.4c-0.1-0.1-0.4-0.2-0.8-0.2c-0.1,0-0.1,0-0.1-0.1
				s0-0.1,0-0.2s0-0.1,0-0.2c0.3,0,0.6,0,0.9,0.1c0.3,0,0.6,0,0.9,0c0.2,0,0.5,0,0.8,0c0.3,0,0.6,0,0.9-0.1c0,0.1,0,0.2,0,0.2
				c0,0.1,0,0.2-0.1,0.2c-0.4,0.1-0.6,0.1-0.8,0.2c-0.1,0.1-0.2,0.2-0.2,0.4V157z"/>
			<path class="st0" d="M176.1,155.7v-6.1c0-0.2-0.1-0.4-0.2-0.5c-0.2-0.1-0.4-0.2-0.8-0.2c-0.1,0-0.2-0.1-0.2-0.2
				c0-0.1,0-0.1,0-0.2c0.2,0,0.5,0,0.7,0.1s0.5,0,0.7,0c0.2,0,0.4,0,0.7,0c0.2,0,0.5,0,0.7-0.1c0,0.1,0,0.2,0,0.2
				c0,0.2,0,0.2-0.1,0.2c-0.3,0-0.6,0.1-0.7,0.2c-0.1,0.1-0.2,0.2-0.2,0.4v8.6c0,0-0.1,0-0.1,0c0,0-0.1,0-0.1,0
				c-0.1,0-0.1,0-0.2-0.1c-0.1,0-0.1-0.1-0.2-0.2l-5.9-7.8v6.9c0,0.2,0.1,0.3,0.2,0.4s0.4,0.2,0.8,0.2c0.1,0,0.1,0.1,0.1,0.2
				c0,0.1,0,0.1,0,0.2c-0.2,0-0.5,0-0.7-0.1s-0.5,0-0.7,0c-0.2,0-0.4,0-0.7,0c-0.3,0-0.5,0-0.7,0.1c0-0.1,0-0.2,0-0.2
				c0-0.1,0.1-0.2,0.2-0.2c0.3-0.1,0.6-0.1,0.7-0.2s0.2-0.2,0.2-0.4v-7.5c0-0.2-0.1-0.3-0.2-0.4s-0.3-0.1-0.7-0.2
				c-0.1,0-0.2-0.1-0.2-0.2c0,0,0-0.1,0-0.1c0,0,0-0.1,0-0.1c0.2,0,0.4,0,0.6,0c0.2,0,0.3,0,0.5,0s0.3,0,0.5,0c0.3,0,0.5,0,0.6,0
				c0.1,0,0.2,0.1,0.2,0.1L176.1,155.7z"/>
			<path class="st0" d="M186.8,158c-0.4,0.1-0.9,0.1-1.3,0.2c-0.5,0-1,0.1-1.6,0.1c-0.8,0-1.6-0.1-2.2-0.4c-0.6-0.3-1.1-0.6-1.5-1
				s-0.7-1-0.9-1.6c-0.2-0.6-0.3-1.2-0.3-1.9c0-0.6,0.1-1.2,0.3-1.8c0.2-0.6,0.5-1.1,0.9-1.6c0.4-0.5,0.9-0.8,1.5-1.1
				c0.6-0.3,1.3-0.4,2.1-0.4c0.3,0,0.6,0,0.8,0c0.3,0,0.5,0,0.8,0.1c0.3,0,0.5,0.1,0.8,0.1c0.3,0.1,0.6,0.1,0.9,0.2
				c0,0.3,0.1,0.7,0.1,1.1c0.1,0.4,0.1,0.7,0.2,1.1c0,0-0.1,0-0.1,0c-0.1,0-0.1,0-0.1,0c-0.2,0-0.3-0.1-0.3-0.2
				c-0.2-0.7-0.5-1.1-0.9-1.4c-0.4-0.3-1-0.4-1.8-0.4c-0.6,0-1.2,0.1-1.6,0.3s-0.9,0.5-1.2,0.8c-0.3,0.4-0.5,0.8-0.7,1.3
				c-0.2,0.5-0.2,1-0.2,1.6c0,0.7,0.1,1.3,0.3,1.9s0.5,1,0.8,1.5c0.3,0.4,0.8,0.7,1.2,0.9s1,0.3,1.5,0.3c0.3,0,0.6,0,0.9-0.1
				s0.5-0.1,0.7-0.1v-2.2c0-0.3-0.1-0.4-0.2-0.5c-0.2-0.1-0.4-0.2-0.8-0.2c-0.1,0-0.1,0-0.2-0.1s0-0.1,0-0.2c0-0.1,0-0.2,0-0.2
				c0.3,0,0.6,0,0.9,0.1c0.3,0,0.6,0,0.9,0c0.3,0,0.5,0,0.9,0c0.3,0,0.6,0,0.9-0.1c0,0.1,0,0.2,0,0.2c0,0.1,0,0.2-0.1,0.2
				c0,0-0.1,0.1-0.1,0.1c-0.3,0-0.5,0.1-0.7,0.2c-0.1,0.1-0.2,0.2-0.2,0.4v2.6c0,0.1,0,0.2-0.1,0.2C187.1,157.9,187,157.9,186.8,158
				z"/>
		</g>
	</g>
	<g>
		
			<rect x="196.7" y="151.1" transform="matrix(0.7071 0.7071 -0.7071 0.7071 165.9422 -95.4802)" class="st0" width="3" height="3"/>
		
			<rect x="103.1" y="151.1" transform="matrix(0.7071 0.7071 -0.7071 0.7071 138.5134 -29.2618)" class="st0" width="3" height="3"/>
	</g>
</g>
</svg>
