<?xml version="1.0" encoding="utf-8"?>
<!-- Generator: Adobe Illustrator 19.1.0, SVG Export Plug-In . SVG Version: 6.00 Build 0)  -->
<svg version="1.1" id="Layer_1" xmlns="http://www.w3.org/2000/svg" xmlns:xlink="http://www.w3.org/1999/xlink" x="0px" y="0px"
	 viewBox="0 0 300 200" style="enable-background:new 0 0 300 200;" xml:space="preserve">
<style type="text/css">
	.st0{fill:#303030;}
	.st1{font-family:'Athelas-Regular';}
	.st2{font-size:39.2208px;}
	.st3{font-family:'PlayfairDisplay-Regular';}
	.st4{font-size:11.0028px;}
	.st5{fill:none;stroke:#303030;stroke-width:2;stroke-miterlimit:10;}
	.st6{font-size:10.2705px;}
	.st7{letter-spacing:1;}
</style>
<g>
	<text transform="matrix(1 0 0 1 38.8647 111.3134)" class="st0 st1 st2">JACKERSON</text>
	<text transform="matrix(1 0 0 1 75.104 128.8379)" class="st0 st3 st4">PROVIDING QUALITY PRODUCTS</text>
	<g>
		<rect x="107.5" y="62.5" class="st5" width="84" height="13.1"/>
		<g>
			<text transform="matrix(1 0 0 1 122.7549 73.0459)" class="st0 st3 st6 st7">ORIGINAL</text>
		</g>
	</g>
	<g>
		
			<rect x="184.5" y="67.7" transform="matrix(0.7071 0.7071 -0.7071 0.7071 103.2417 -111.1838)" class="st0" width="2.7" height="2.7"/>
		
			<rect x="111.8" y="67.7" transform="matrix(0.7071 0.7071 -0.7071 0.7071 81.9756 -59.8348)" class="st0" width="2.7" height="2.7"/>
	</g>
	<g>
		<polygon class="st0" points="199.5,135.5 247.8,136.7 199.5,137.9 		"/>
		<polygon class="st0" points="99.6,135.5 51.2,136.7 99.6,137.9 		"/>
	</g>
	<g>
		
			<rect x="105.2" y="135" transform="matrix(0.7071 0.7071 -0.7071 0.7071 127.9379 -35.5662)" class="st0" width="3.4" height="3.4"/>
		
			<rect x="119.4" y="135" transform="matrix(0.7071 0.7071 -0.7071 0.7071 132.0997 -45.6128)" class="st0" width="3.4" height="3.4"/>
		
			<rect x="190.5" y="135" transform="matrix(0.7071 0.7071 -0.7071 0.7071 152.9071 -95.8462)" class="st0" width="3.4" height="3.4"/>
		
			<rect x="147.8" y="135" transform="matrix(0.7071 0.7071 -0.7071 0.7071 140.4227 -65.7062)" class="st0" width="3.4" height="3.4"/>
		
			<rect x="133.6" y="135" transform="matrix(0.7071 0.7071 -0.7071 0.7071 136.2612 -55.6595)" class="st0" width="3.4" height="3.4"/>
		
			<rect x="162" y="135" transform="matrix(0.7071 0.7071 -0.7071 0.7071 144.5842 -75.7529)" class="st0" width="3.4" height="3.4"/>
		
			<rect x="176.3" y="135" transform="matrix(0.7071 0.7071 -0.7071 0.7071 148.7451 -85.7995)" class="st0" width="3.4" height="3.4"/>
	</g>
</g>
</svg>
