<?xml version="1.0" encoding="utf-8"?>
<!-- Generator: Adobe Illustrator 16.0.4, SVG Export Plug-In . SVG Version: 6.00 Build 0)  -->
<!DOCTYPE svg PUBLIC "-//W3C//DTD SVG 1.1//EN" "http://www.w3.org/Graphics/SVG/1.1/DTD/svg11.dtd">
<svg version="1.1" id="Layer_1" xmlns="http://www.w3.org/2000/svg" xmlns:xlink="http://www.w3.org/1999/xlink" x="0px" y="0px"
	 width="523.377px" height="197.402px" viewBox="0 0 523.377 197.402" enable-background="new 0 0 523.377 197.402"
	 xml:space="preserve">
<g opacity="0.1">
	<line fill="none" stroke="#666766" stroke-width="1.3" stroke-miterlimit="10" x1="54.479" y1="195.649" x2="54.479" y2="0.649"/>
	<line fill="none" stroke="#666766" stroke-width="1.3" stroke-miterlimit="10" x1="3.13" y1="79.299" x2="523.13" y2="79.299"/>
	<line fill="none" stroke="#666766" stroke-width="1.3" stroke-miterlimit="10" x1="3.13" y1="118.299" x2="523.13" y2="118.299"/>
	<line fill="none" stroke="#666766" stroke-width="1.3" stroke-miterlimit="10" x1="3.13" y1="157.299" x2="523.13" y2="157.299"/>
	<line fill="none" stroke="#666766" stroke-width="1.3" stroke-miterlimit="10" x1="3.13" y1="40.299" x2="523.13" y2="40.299"/>
	
		<line fill="none" stroke="#666766" stroke-width="1.3" stroke-miterlimit="10" x1="106.479" y1="195.649" x2="106.479" y2="0.649"/>
	
		<line fill="none" stroke="#666766" stroke-width="1.3" stroke-miterlimit="10" x1="158.479" y1="195.649" x2="158.479" y2="0.649"/>
	
		<line fill="none" stroke="#666766" stroke-width="1.3" stroke-miterlimit="10" x1="262.479" y1="195.649" x2="262.479" y2="0.649"/>
	
		<line fill="none" stroke="#666766" stroke-width="1.3" stroke-miterlimit="10" x1="314.479" y1="195.649" x2="314.479" y2="0.649"/>
	
		<line fill="none" stroke="#666766" stroke-width="1.3" stroke-miterlimit="10" x1="366.479" y1="195.649" x2="366.479" y2="0.649"/>
	
		<line fill="none" stroke="#666766" stroke-width="1.3" stroke-miterlimit="10" x1="418.479" y1="195.649" x2="418.479" y2="0.649"/>
	
		<line fill="none" stroke="#666766" stroke-width="1.3" stroke-miterlimit="10" x1="470.479" y1="195.649" x2="470.479" y2="0.649"/>
	
		<line fill="none" stroke="#666766" stroke-width="1.3" stroke-miterlimit="10" x1="210.479" y1="195.649" x2="210.479" y2="0.649"/>
</g>
<polyline fill="none" stroke="#26BEC8" stroke-width="4" stroke-miterlimit="10" points="3.13,195.649 107.13,117.649 
	211.13,65.649 315.13,169.649 419.13,104.649 523.13,13.649 "/>
<polyline fill="none" stroke="#80C566" stroke-width="4" stroke-miterlimit="10" points="3.13,195.649 107.13,143.649 
	211.13,104.649 315.13,91.649 419.131,78.649 523.131,52.649 "/>
<polyline fill="none" stroke="#EC5088" stroke-width="4" stroke-miterlimit="10" points="3.13,195.649 107.13,169.649 
	211.13,156.649 315.131,78.649 419.13,26.649 523.131,78.649 "/>
<path opacity="0.1" fill="none" stroke="#CCCCCC" stroke-width="2.6" stroke-miterlimit="10" d="M3.13,195.649"/>
</svg>
